<mxfile host="app.diagrams.net" agent="Mozilla/5.0 (Windows NT 10.0; Win64; x64) AppleWebKit/537.36 (KHTML, like Gecko) Chrome/141.0.0.0 Safari/537.36" version="28.2.7">
  <diagram name="第 1 页" id="5li1zPGdkGokyuqZ-Cab">
    <mxGraphModel dx="3432" dy="2717" grid="1" gridSize="10" guides="1" tooltips="1" connect="1" arrows="1" fold="1" page="1" pageScale="1" pageWidth="827" pageHeight="1169" math="0" shadow="0">
      <root>
        <mxCell id="0" />
        <mxCell id="1" parent="0" />
        <mxCell id="qxeG9Fw4XrytaZjSxtoZ-2" value="test_tpu" style="text;html=1;whiteSpace=wrap;strokeColor=none;fillColor=none;align=center;verticalAlign=middle;rounded=0;" parent="1" vertex="1">
          <mxGeometry x="40" y="50" width="60" height="30" as="geometry" />
        </mxCell>
        <mxCell id="qxeG9Fw4XrytaZjSxtoZ-3" value="sram_128x32b_a0" style="rounded=0;whiteSpace=wrap;html=1;" parent="1" vertex="1">
          <mxGeometry x="980" y="150" width="120" height="240" as="geometry" />
        </mxCell>
        <mxCell id="qxeG9Fw4XrytaZjSxtoZ-4" value="sram_128x32b_a1" style="rounded=0;whiteSpace=wrap;html=1;" parent="1" vertex="1">
          <mxGeometry x="60" y="450" width="120" height="60" as="geometry" />
        </mxCell>
        <mxCell id="qxeG9Fw4XrytaZjSxtoZ-5" value="sram_128x32b_a2" style="rounded=0;whiteSpace=wrap;html=1;" parent="1" vertex="1">
          <mxGeometry x="200" y="380" width="120" height="60" as="geometry" />
        </mxCell>
        <mxCell id="qxeG9Fw4XrytaZjSxtoZ-6" value="sram_128x32b_a3" style="rounded=0;whiteSpace=wrap;html=1;" parent="1" vertex="1">
          <mxGeometry x="200" y="450" width="120" height="60" as="geometry" />
        </mxCell>
        <mxCell id="qxeG9Fw4XrytaZjSxtoZ-13" value="sram_128x32b_b0" style="rounded=0;whiteSpace=wrap;html=1;" parent="1" vertex="1">
          <mxGeometry x="60" y="540" width="120" height="60" as="geometry" />
        </mxCell>
        <mxCell id="qxeG9Fw4XrytaZjSxtoZ-14" value="sram_128x32b_b1" style="rounded=0;whiteSpace=wrap;html=1;" parent="1" vertex="1">
          <mxGeometry x="60" y="610" width="120" height="60" as="geometry" />
        </mxCell>
        <mxCell id="qxeG9Fw4XrytaZjSxtoZ-15" value="sram_128x32b_b2" style="rounded=0;whiteSpace=wrap;html=1;" parent="1" vertex="1">
          <mxGeometry x="200" y="540" width="120" height="60" as="geometry" />
        </mxCell>
        <mxCell id="qxeG9Fw4XrytaZjSxtoZ-16" value="sram_128x32b_b3" style="rounded=0;whiteSpace=wrap;html=1;" parent="1" vertex="1">
          <mxGeometry x="200" y="610" width="120" height="60" as="geometry" />
        </mxCell>
        <mxCell id="qxeG9Fw4XrytaZjSxtoZ-17" value="DUT" style="rounded=0;whiteSpace=wrap;html=1;" parent="1" vertex="1">
          <mxGeometry x="460" y="210" width="120" height="350" as="geometry" />
        </mxCell>
        <mxCell id="qxeG9Fw4XrytaZjSxtoZ-19" value="sram_16x128b_c0" style="rounded=0;whiteSpace=wrap;html=1;" parent="1" vertex="1">
          <mxGeometry x="1290" y="170" width="120" height="150" as="geometry" />
        </mxCell>
        <mxCell id="qxeG9Fw4XrytaZjSxtoZ-22" value="" style="endArrow=classic;html=1;rounded=0;" parent="1" edge="1">
          <mxGeometry relative="1" as="geometry">
            <mxPoint x="1190" y="184.76" as="sourcePoint" />
            <mxPoint x="1290" y="184.76" as="targetPoint" />
          </mxGeometry>
        </mxCell>
        <mxCell id="qxeG9Fw4XrytaZjSxtoZ-23" value="clk" style="edgeLabel;resizable=0;html=1;;align=center;verticalAlign=middle;" parent="qxeG9Fw4XrytaZjSxtoZ-22" connectable="0" vertex="1">
          <mxGeometry relative="1" as="geometry" />
        </mxCell>
        <mxCell id="qxeG9Fw4XrytaZjSxtoZ-26" value="" style="endArrow=classic;html=1;rounded=0;" parent="1" edge="1">
          <mxGeometry relative="1" as="geometry">
            <mxPoint x="1190" y="204.76" as="sourcePoint" />
            <mxPoint x="1290" y="204.76" as="targetPoint" />
          </mxGeometry>
        </mxCell>
        <mxCell id="qxeG9Fw4XrytaZjSxtoZ-27" value="csb" style="edgeLabel;resizable=0;html=1;;align=center;verticalAlign=middle;" parent="qxeG9Fw4XrytaZjSxtoZ-26" connectable="0" vertex="1">
          <mxGeometry relative="1" as="geometry" />
        </mxCell>
        <mxCell id="qxeG9Fw4XrytaZjSxtoZ-28" value="" style="endArrow=classic;html=1;rounded=0;" parent="1" edge="1">
          <mxGeometry relative="1" as="geometry">
            <mxPoint x="1190" y="224.27999999999997" as="sourcePoint" />
            <mxPoint x="1290" y="224.27999999999997" as="targetPoint" />
          </mxGeometry>
        </mxCell>
        <mxCell id="qxeG9Fw4XrytaZjSxtoZ-29" value="wsb" style="edgeLabel;resizable=0;html=1;;align=center;verticalAlign=middle;" parent="qxeG9Fw4XrytaZjSxtoZ-28" connectable="0" vertex="1">
          <mxGeometry relative="1" as="geometry" />
        </mxCell>
        <mxCell id="qxeG9Fw4XrytaZjSxtoZ-30" value="" style="endArrow=classic;html=1;rounded=0;" parent="1" edge="1">
          <mxGeometry relative="1" as="geometry">
            <mxPoint x="1190" y="244.76" as="sourcePoint" />
            <mxPoint x="1290" y="244.76" as="targetPoint" />
          </mxGeometry>
        </mxCell>
        <mxCell id="qxeG9Fw4XrytaZjSxtoZ-31" value="wdata" style="edgeLabel;resizable=0;html=1;;align=center;verticalAlign=middle;" parent="qxeG9Fw4XrytaZjSxtoZ-30" connectable="0" vertex="1">
          <mxGeometry relative="1" as="geometry" />
        </mxCell>
        <mxCell id="qxeG9Fw4XrytaZjSxtoZ-32" value="" style="endArrow=classic;html=1;rounded=0;" parent="1" edge="1">
          <mxGeometry relative="1" as="geometry">
            <mxPoint x="1190" y="264.52" as="sourcePoint" />
            <mxPoint x="1290" y="264.52" as="targetPoint" />
          </mxGeometry>
        </mxCell>
        <mxCell id="qxeG9Fw4XrytaZjSxtoZ-33" value="waddr" style="edgeLabel;resizable=0;html=1;;align=center;verticalAlign=middle;" parent="qxeG9Fw4XrytaZjSxtoZ-32" connectable="0" vertex="1">
          <mxGeometry relative="1" as="geometry" />
        </mxCell>
        <mxCell id="qxeG9Fw4XrytaZjSxtoZ-34" value="" style="endArrow=classic;html=1;rounded=0;" parent="1" edge="1">
          <mxGeometry relative="1" as="geometry">
            <mxPoint x="1190" y="284.76" as="sourcePoint" />
            <mxPoint x="1290" y="284.76" as="targetPoint" />
          </mxGeometry>
        </mxCell>
        <mxCell id="qxeG9Fw4XrytaZjSxtoZ-35" value="raddr" style="edgeLabel;resizable=0;html=1;;align=center;verticalAlign=middle;" parent="qxeG9Fw4XrytaZjSxtoZ-34" connectable="0" vertex="1">
          <mxGeometry relative="1" as="geometry" />
        </mxCell>
        <mxCell id="qxeG9Fw4XrytaZjSxtoZ-38" value="" style="endArrow=classic;html=1;rounded=0;" parent="1" edge="1">
          <mxGeometry relative="1" as="geometry">
            <mxPoint x="1190" y="304.76" as="sourcePoint" />
            <mxPoint x="1290" y="304.76" as="targetPoint" />
          </mxGeometry>
        </mxCell>
        <mxCell id="qxeG9Fw4XrytaZjSxtoZ-39" value="rdata" style="edgeLabel;resizable=0;html=1;;align=center;verticalAlign=middle;" parent="qxeG9Fw4XrytaZjSxtoZ-38" connectable="0" vertex="1">
          <mxGeometry relative="1" as="geometry" />
        </mxCell>
        <mxCell id="qxeG9Fw4XrytaZjSxtoZ-40" value="sram_16x128b_c0" style="rounded=0;whiteSpace=wrap;html=1;" parent="1" vertex="1">
          <mxGeometry x="800" y="380" width="120" height="150" as="geometry" />
        </mxCell>
        <mxCell id="qxeG9Fw4XrytaZjSxtoZ-41" value="" style="endArrow=classic;html=1;rounded=0;" parent="1" edge="1">
          <mxGeometry relative="1" as="geometry">
            <mxPoint x="700" y="394.76" as="sourcePoint" />
            <mxPoint x="800" y="394.76" as="targetPoint" />
          </mxGeometry>
        </mxCell>
        <mxCell id="qxeG9Fw4XrytaZjSxtoZ-42" value="clk" style="edgeLabel;resizable=0;html=1;;align=center;verticalAlign=middle;" parent="qxeG9Fw4XrytaZjSxtoZ-41" connectable="0" vertex="1">
          <mxGeometry relative="1" as="geometry" />
        </mxCell>
        <mxCell id="qxeG9Fw4XrytaZjSxtoZ-43" value="" style="endArrow=classic;html=1;rounded=0;" parent="1" edge="1">
          <mxGeometry relative="1" as="geometry">
            <mxPoint x="700" y="414.76" as="sourcePoint" />
            <mxPoint x="800" y="414.76" as="targetPoint" />
          </mxGeometry>
        </mxCell>
        <mxCell id="qxeG9Fw4XrytaZjSxtoZ-44" value="csb" style="edgeLabel;resizable=0;html=1;;align=center;verticalAlign=middle;" parent="qxeG9Fw4XrytaZjSxtoZ-43" connectable="0" vertex="1">
          <mxGeometry relative="1" as="geometry" />
        </mxCell>
        <mxCell id="qxeG9Fw4XrytaZjSxtoZ-45" value="" style="endArrow=classic;html=1;rounded=0;" parent="1" edge="1">
          <mxGeometry relative="1" as="geometry">
            <mxPoint x="700" y="434.28" as="sourcePoint" />
            <mxPoint x="800" y="434.28" as="targetPoint" />
          </mxGeometry>
        </mxCell>
        <mxCell id="qxeG9Fw4XrytaZjSxtoZ-46" value="wsb" style="edgeLabel;resizable=0;html=1;;align=center;verticalAlign=middle;" parent="qxeG9Fw4XrytaZjSxtoZ-45" connectable="0" vertex="1">
          <mxGeometry relative="1" as="geometry" />
        </mxCell>
        <mxCell id="qxeG9Fw4XrytaZjSxtoZ-47" value="" style="endArrow=classic;html=1;rounded=0;" parent="1" edge="1">
          <mxGeometry relative="1" as="geometry">
            <mxPoint x="700" y="454.76" as="sourcePoint" />
            <mxPoint x="800" y="454.76" as="targetPoint" />
          </mxGeometry>
        </mxCell>
        <mxCell id="qxeG9Fw4XrytaZjSxtoZ-48" value="wdata" style="edgeLabel;resizable=0;html=1;;align=center;verticalAlign=middle;" parent="qxeG9Fw4XrytaZjSxtoZ-47" connectable="0" vertex="1">
          <mxGeometry relative="1" as="geometry" />
        </mxCell>
        <mxCell id="qxeG9Fw4XrytaZjSxtoZ-49" value="" style="endArrow=classic;html=1;rounded=0;" parent="1" edge="1">
          <mxGeometry relative="1" as="geometry">
            <mxPoint x="700" y="474.52" as="sourcePoint" />
            <mxPoint x="800" y="474.52" as="targetPoint" />
          </mxGeometry>
        </mxCell>
        <mxCell id="qxeG9Fw4XrytaZjSxtoZ-50" value="waddr" style="edgeLabel;resizable=0;html=1;;align=center;verticalAlign=middle;" parent="qxeG9Fw4XrytaZjSxtoZ-49" connectable="0" vertex="1">
          <mxGeometry relative="1" as="geometry" />
        </mxCell>
        <mxCell id="qxeG9Fw4XrytaZjSxtoZ-51" value="" style="endArrow=classic;html=1;rounded=0;" parent="1" edge="1">
          <mxGeometry relative="1" as="geometry">
            <mxPoint x="700" y="494.76" as="sourcePoint" />
            <mxPoint x="800" y="494.76" as="targetPoint" />
          </mxGeometry>
        </mxCell>
        <mxCell id="qxeG9Fw4XrytaZjSxtoZ-52" value="raddr" style="edgeLabel;resizable=0;html=1;;align=center;verticalAlign=middle;" parent="qxeG9Fw4XrytaZjSxtoZ-51" connectable="0" vertex="1">
          <mxGeometry relative="1" as="geometry" />
        </mxCell>
        <mxCell id="qxeG9Fw4XrytaZjSxtoZ-53" value="" style="endArrow=classic;html=1;rounded=0;" parent="1" edge="1">
          <mxGeometry relative="1" as="geometry">
            <mxPoint x="700" y="514.76" as="sourcePoint" />
            <mxPoint x="800" y="514.76" as="targetPoint" />
          </mxGeometry>
        </mxCell>
        <mxCell id="qxeG9Fw4XrytaZjSxtoZ-54" value="rdata" style="edgeLabel;resizable=0;html=1;;align=center;verticalAlign=middle;" parent="qxeG9Fw4XrytaZjSxtoZ-53" connectable="0" vertex="1">
          <mxGeometry relative="1" as="geometry" />
        </mxCell>
        <mxCell id="qxeG9Fw4XrytaZjSxtoZ-55" value="sram_16x128b_c0" style="rounded=0;whiteSpace=wrap;html=1;" parent="1" vertex="1">
          <mxGeometry x="800" y="570" width="120" height="150" as="geometry" />
        </mxCell>
        <mxCell id="qxeG9Fw4XrytaZjSxtoZ-56" value="" style="endArrow=classic;html=1;rounded=0;" parent="1" edge="1">
          <mxGeometry relative="1" as="geometry">
            <mxPoint x="700" y="584.76" as="sourcePoint" />
            <mxPoint x="800" y="584.76" as="targetPoint" />
          </mxGeometry>
        </mxCell>
        <mxCell id="qxeG9Fw4XrytaZjSxtoZ-57" value="clk" style="edgeLabel;resizable=0;html=1;;align=center;verticalAlign=middle;" parent="qxeG9Fw4XrytaZjSxtoZ-56" connectable="0" vertex="1">
          <mxGeometry relative="1" as="geometry" />
        </mxCell>
        <mxCell id="qxeG9Fw4XrytaZjSxtoZ-58" value="" style="endArrow=classic;html=1;rounded=0;" parent="1" edge="1">
          <mxGeometry relative="1" as="geometry">
            <mxPoint x="700" y="604.76" as="sourcePoint" />
            <mxPoint x="800" y="604.76" as="targetPoint" />
          </mxGeometry>
        </mxCell>
        <mxCell id="qxeG9Fw4XrytaZjSxtoZ-59" value="csb" style="edgeLabel;resizable=0;html=1;;align=center;verticalAlign=middle;" parent="qxeG9Fw4XrytaZjSxtoZ-58" connectable="0" vertex="1">
          <mxGeometry relative="1" as="geometry" />
        </mxCell>
        <mxCell id="qxeG9Fw4XrytaZjSxtoZ-60" value="" style="endArrow=classic;html=1;rounded=0;" parent="1" edge="1">
          <mxGeometry relative="1" as="geometry">
            <mxPoint x="700" y="624.28" as="sourcePoint" />
            <mxPoint x="800" y="624.28" as="targetPoint" />
          </mxGeometry>
        </mxCell>
        <mxCell id="qxeG9Fw4XrytaZjSxtoZ-61" value="wsb" style="edgeLabel;resizable=0;html=1;;align=center;verticalAlign=middle;" parent="qxeG9Fw4XrytaZjSxtoZ-60" connectable="0" vertex="1">
          <mxGeometry relative="1" as="geometry" />
        </mxCell>
        <mxCell id="qxeG9Fw4XrytaZjSxtoZ-62" value="" style="endArrow=classic;html=1;rounded=0;" parent="1" edge="1">
          <mxGeometry relative="1" as="geometry">
            <mxPoint x="700" y="644.76" as="sourcePoint" />
            <mxPoint x="800" y="644.76" as="targetPoint" />
          </mxGeometry>
        </mxCell>
        <mxCell id="qxeG9Fw4XrytaZjSxtoZ-63" value="wdata" style="edgeLabel;resizable=0;html=1;;align=center;verticalAlign=middle;" parent="qxeG9Fw4XrytaZjSxtoZ-62" connectable="0" vertex="1">
          <mxGeometry relative="1" as="geometry" />
        </mxCell>
        <mxCell id="qxeG9Fw4XrytaZjSxtoZ-64" value="" style="endArrow=classic;html=1;rounded=0;" parent="1" edge="1">
          <mxGeometry relative="1" as="geometry">
            <mxPoint x="700" y="664.52" as="sourcePoint" />
            <mxPoint x="800" y="664.52" as="targetPoint" />
          </mxGeometry>
        </mxCell>
        <mxCell id="qxeG9Fw4XrytaZjSxtoZ-65" value="waddr" style="edgeLabel;resizable=0;html=1;;align=center;verticalAlign=middle;" parent="qxeG9Fw4XrytaZjSxtoZ-64" connectable="0" vertex="1">
          <mxGeometry relative="1" as="geometry" />
        </mxCell>
        <mxCell id="qxeG9Fw4XrytaZjSxtoZ-66" value="" style="endArrow=classic;html=1;rounded=0;" parent="1" edge="1">
          <mxGeometry relative="1" as="geometry">
            <mxPoint x="700" y="684.76" as="sourcePoint" />
            <mxPoint x="800" y="684.76" as="targetPoint" />
          </mxGeometry>
        </mxCell>
        <mxCell id="qxeG9Fw4XrytaZjSxtoZ-67" value="raddr" style="edgeLabel;resizable=0;html=1;;align=center;verticalAlign=middle;" parent="qxeG9Fw4XrytaZjSxtoZ-66" connectable="0" vertex="1">
          <mxGeometry relative="1" as="geometry" />
        </mxCell>
        <mxCell id="qxeG9Fw4XrytaZjSxtoZ-68" value="" style="endArrow=classic;html=1;rounded=0;" parent="1" edge="1">
          <mxGeometry relative="1" as="geometry">
            <mxPoint x="700" y="704.76" as="sourcePoint" />
            <mxPoint x="800" y="704.76" as="targetPoint" />
          </mxGeometry>
        </mxCell>
        <mxCell id="qxeG9Fw4XrytaZjSxtoZ-69" value="rdata" style="edgeLabel;resizable=0;html=1;;align=center;verticalAlign=middle;" parent="qxeG9Fw4XrytaZjSxtoZ-68" connectable="0" vertex="1">
          <mxGeometry relative="1" as="geometry" />
        </mxCell>
        <mxCell id="qxeG9Fw4XrytaZjSxtoZ-70" value="///sram&#xa;module sram_128x32b(&#xa;input clk,&#xa;input [3:0] bytemask,&#xa;input csb,  //chip enable&#xa;input wsb,  //write enable&#xa;input [7:0] wdata, //write data&#xa;input [9:0] waddr, //write address&#xa;input [9:0] raddr, //read address&#xa;&#xa;&#xa;output reg [31:0] rdata //read data&#xa;);" style="text;whiteSpace=wrap;" parent="1" vertex="1">
          <mxGeometry x="610" y="-160" width="210" height="310" as="geometry" />
        </mxCell>
        <mxCell id="qxeG9Fw4XrytaZjSxtoZ-99" value="" style="endArrow=classic;html=1;rounded=0;" parent="1" edge="1">
          <mxGeometry width="50" height="50" relative="1" as="geometry">
            <mxPoint x="430" y="120" as="sourcePoint" />
            <mxPoint x="290" y="120" as="targetPoint" />
          </mxGeometry>
        </mxCell>
        <mxCell id="qxeG9Fw4XrytaZjSxtoZ-111" value="clk" style="edgeLabel;html=1;align=center;verticalAlign=middle;resizable=0;points=[];" parent="qxeG9Fw4XrytaZjSxtoZ-99" vertex="1" connectable="0">
          <mxGeometry x="-0.0229" y="-2" relative="1" as="geometry">
            <mxPoint as="offset" />
          </mxGeometry>
        </mxCell>
        <mxCell id="qxeG9Fw4XrytaZjSxtoZ-104" value="" style="endArrow=classic;html=1;rounded=0;" parent="1" edge="1">
          <mxGeometry width="50" height="50" relative="1" as="geometry">
            <mxPoint x="430" y="140" as="sourcePoint" />
            <mxPoint x="290" y="140" as="targetPoint" />
          </mxGeometry>
        </mxCell>
        <mxCell id="qxeG9Fw4XrytaZjSxtoZ-112" value="[3:0] bytemask" style="edgeLabel;html=1;align=center;verticalAlign=middle;resizable=0;points=[];" parent="qxeG9Fw4XrytaZjSxtoZ-104" vertex="1" connectable="0">
          <mxGeometry x="-0.1782" relative="1" as="geometry">
            <mxPoint as="offset" />
          </mxGeometry>
        </mxCell>
        <mxCell id="qxeG9Fw4XrytaZjSxtoZ-198" value="systolic_controll" style="rounded=0;whiteSpace=wrap;html=1;" parent="1" vertex="1">
          <mxGeometry x="350" y="1490" width="110" height="430" as="geometry" />
        </mxCell>
        <mxCell id="qxeG9Fw4XrytaZjSxtoZ-200" value="" style="rounded=0;whiteSpace=wrap;html=1;" parent="1" vertex="1">
          <mxGeometry x="810" y="1040" width="580" height="640" as="geometry" />
        </mxCell>
        <mxCell id="qxeG9Fw4XrytaZjSxtoZ-202" value="quantize" style="rounded=0;whiteSpace=wrap;html=1;" parent="1" vertex="1">
          <mxGeometry x="1550" y="1249" width="120" height="60" as="geometry" />
        </mxCell>
        <mxCell id="qxeG9Fw4XrytaZjSxtoZ-203" value="addr_sel" style="rounded=0;whiteSpace=wrap;html=1;" parent="1" vertex="1">
          <mxGeometry x="1780" y="1650" width="150" height="251" as="geometry" />
        </mxCell>
        <mxCell id="qxeG9Fw4XrytaZjSxtoZ-204" value="write_out" style="rounded=0;whiteSpace=wrap;html=1;" parent="1" vertex="1">
          <mxGeometry x="1810" y="1249" width="90" height="355" as="geometry" />
        </mxCell>
        <mxCell id="qxeG9Fw4XrytaZjSxtoZ-205" value="clk" style="endArrow=classic;html=1;rounded=0;" parent="1" edge="1">
          <mxGeometry relative="1" as="geometry">
            <mxPoint x="190" y="1520" as="sourcePoint" />
            <mxPoint x="350" y="1520" as="targetPoint" />
          </mxGeometry>
        </mxCell>
        <mxCell id="qxeG9Fw4XrytaZjSxtoZ-206" value="clk" style="edgeLabel;resizable=0;html=1;;align=center;verticalAlign=middle;" parent="qxeG9Fw4XrytaZjSxtoZ-205" connectable="0" vertex="1">
          <mxGeometry relative="1" as="geometry" />
        </mxCell>
        <mxCell id="qxeG9Fw4XrytaZjSxtoZ-208" value="clk" style="endArrow=classic;html=1;rounded=0;" parent="1" edge="1">
          <mxGeometry relative="1" as="geometry">
            <mxPoint x="190" y="1620" as="sourcePoint" />
            <mxPoint x="350" y="1620" as="targetPoint" />
          </mxGeometry>
        </mxCell>
        <mxCell id="qxeG9Fw4XrytaZjSxtoZ-209" value="srstn" style="edgeLabel;resizable=0;html=1;;align=center;verticalAlign=middle;" parent="qxeG9Fw4XrytaZjSxtoZ-208" connectable="0" vertex="1">
          <mxGeometry relative="1" as="geometry" />
        </mxCell>
        <mxCell id="qxeG9Fw4XrytaZjSxtoZ-211" value="clk" style="endArrow=classic;html=1;rounded=0;" parent="1" edge="1">
          <mxGeometry relative="1" as="geometry">
            <mxPoint x="190" y="1680" as="sourcePoint" />
            <mxPoint x="350" y="1680" as="targetPoint" />
          </mxGeometry>
        </mxCell>
        <mxCell id="qxeG9Fw4XrytaZjSxtoZ-212" value="tpu_start" style="edgeLabel;resizable=0;html=1;;align=center;verticalAlign=middle;" parent="qxeG9Fw4XrytaZjSxtoZ-211" connectable="0" vertex="1">
          <mxGeometry relative="1" as="geometry" />
        </mxCell>
        <mxCell id="qxeG9Fw4XrytaZjSxtoZ-213" value="clk" style="endArrow=classic;html=1;rounded=0;exitX=0.996;exitY=0.02;exitDx=0;exitDy=0;exitPerimeter=0;edgeStyle=orthogonalEdgeStyle;" parent="1" source="qxeG9Fw4XrytaZjSxtoZ-198" edge="1">
          <mxGeometry relative="1" as="geometry">
            <mxPoint x="650" y="1480" as="sourcePoint" />
            <mxPoint x="810" y="1480" as="targetPoint" />
            <Array as="points">
              <mxPoint x="510" y="1499" />
              <mxPoint x="510" y="1480" />
            </Array>
          </mxGeometry>
        </mxCell>
        <mxCell id="qxeG9Fw4XrytaZjSxtoZ-214" value="alu_start" style="edgeLabel;resizable=0;html=1;;align=center;verticalAlign=middle;" parent="qxeG9Fw4XrytaZjSxtoZ-213" connectable="0" vertex="1">
          <mxGeometry relative="1" as="geometry" />
        </mxCell>
        <mxCell id="qxeG9Fw4XrytaZjSxtoZ-215" value="clk" style="endArrow=classic;html=1;rounded=0;" parent="1" edge="1">
          <mxGeometry relative="1" as="geometry">
            <mxPoint x="650" y="1610" as="sourcePoint" />
            <mxPoint x="810" y="1610" as="targetPoint" />
          </mxGeometry>
        </mxCell>
        <mxCell id="qxeG9Fw4XrytaZjSxtoZ-216" value="clk" style="edgeLabel;resizable=0;html=1;;align=center;verticalAlign=middle;" parent="qxeG9Fw4XrytaZjSxtoZ-215" connectable="0" vertex="1">
          <mxGeometry relative="1" as="geometry" />
        </mxCell>
        <mxCell id="qxeG9Fw4XrytaZjSxtoZ-217" value="cycle_num[8:0]" style="endArrow=classic;html=1;rounded=0;" parent="1" edge="1">
          <mxGeometry relative="1" as="geometry">
            <mxPoint x="461" y="1520" as="sourcePoint" />
            <mxPoint x="810" y="1520" as="targetPoint" />
          </mxGeometry>
        </mxCell>
        <mxCell id="qxeG9Fw4XrytaZjSxtoZ-219" value="matrix_index[5:0]" style="endArrow=classic;html=1;rounded=0;exitX=0.985;exitY=0.165;exitDx=0;exitDy=0;exitPerimeter=0;" parent="1" source="qxeG9Fw4XrytaZjSxtoZ-198" edge="1">
          <mxGeometry relative="1" as="geometry">
            <mxPoint x="650" y="1560" as="sourcePoint" />
            <mxPoint x="810" y="1560" as="targetPoint" />
          </mxGeometry>
        </mxCell>
        <mxCell id="qxeG9Fw4XrytaZjSxtoZ-233" value="sram_rdata_w0[31:0]" style="endArrow=classic;html=1;rounded=0;" parent="1" edge="1">
          <mxGeometry relative="1" as="geometry">
            <mxPoint x="989.9999999999995" y="879.998695652174" as="sourcePoint" />
            <mxPoint x="989.9999999999995" y="1039.9986956521739" as="targetPoint" />
            <mxPoint as="offset" />
          </mxGeometry>
        </mxCell>
        <mxCell id="qxeG9Fw4XrytaZjSxtoZ-236" value="sram_rdata_w1[31:0]" style="endArrow=classic;html=1;rounded=0;" parent="1" edge="1">
          <mxGeometry relative="1" as="geometry">
            <mxPoint x="1109.9999999999995" y="879.998695652174" as="sourcePoint" />
            <mxPoint x="1109.9999999999995" y="1039.9986956521739" as="targetPoint" />
            <mxPoint as="offset" />
          </mxGeometry>
        </mxCell>
        <mxCell id="qxeG9Fw4XrytaZjSxtoZ-237" value="sram_rdata_w2[31:0]" style="endArrow=classic;html=1;rounded=0;" parent="1" edge="1">
          <mxGeometry relative="1" as="geometry">
            <mxPoint x="1229.9999999999995" y="879.998695652174" as="sourcePoint" />
            <mxPoint x="1229.9999999999995" y="1039.9986956521739" as="targetPoint" />
            <mxPoint as="offset" />
          </mxGeometry>
        </mxCell>
        <mxCell id="qxeG9Fw4XrytaZjSxtoZ-238" value="sram_rdata_w3[31:0]" style="endArrow=classic;html=1;rounded=0;" parent="1" edge="1">
          <mxGeometry relative="1" as="geometry">
            <mxPoint x="1349.9999999999995" y="879.998695652174" as="sourcePoint" />
            <mxPoint x="1349.9999999999995" y="1039.9986956521739" as="targetPoint" />
            <mxPoint as="offset" />
          </mxGeometry>
        </mxCell>
        <mxCell id="qxeG9Fw4XrytaZjSxtoZ-239" value="sram_rdata_d2[31:0]" style="endArrow=classic;html=1;rounded=0;entryX=-0.001;entryY=0.414;entryDx=0;entryDy=0;entryPerimeter=0;" parent="1" edge="1">
          <mxGeometry x="-0.0014" relative="1" as="geometry">
            <mxPoint x="650.58" y="1309.4099999999999" as="sourcePoint" />
            <mxPoint x="810.0000000000001" y="1309.5699999999997" as="targetPoint" />
            <mxPoint as="offset" />
          </mxGeometry>
        </mxCell>
        <mxCell id="qxeG9Fw4XrytaZjSxtoZ-240" value="sram_rdata_d0[31:0]" style="endArrow=classic;html=1;rounded=0;entryX=-0.001;entryY=0.414;entryDx=0;entryDy=0;entryPerimeter=0;" parent="1" edge="1">
          <mxGeometry x="0.0063" relative="1" as="geometry">
            <mxPoint x="650" y="1120" as="sourcePoint" />
            <mxPoint x="809" y="1120" as="targetPoint" />
            <mxPoint as="offset" />
          </mxGeometry>
        </mxCell>
        <mxCell id="qxeG9Fw4XrytaZjSxtoZ-241" value="sram_rdata_d1[31:0]" style="endArrow=classic;html=1;rounded=0;entryX=-0.001;entryY=0.414;entryDx=0;entryDy=0;entryPerimeter=0;" parent="1" edge="1">
          <mxGeometry relative="1" as="geometry">
            <mxPoint x="651" y="1208.4099999999999" as="sourcePoint" />
            <mxPoint x="810" y="1208.4099999999999" as="targetPoint" />
            <mxPoint as="offset" />
          </mxGeometry>
        </mxCell>
        <mxCell id="qxeG9Fw4XrytaZjSxtoZ-242" value="sram_rdata_d3[31:0]" style="endArrow=classic;html=1;rounded=0;entryX=-0.001;entryY=0.414;entryDx=0;entryDy=0;entryPerimeter=0;edgeStyle=orthogonalEdgeStyle;" parent="1" edge="1">
          <mxGeometry relative="1" as="geometry">
            <mxPoint x="650.58" y="1408.4099999999999" as="sourcePoint" />
            <mxPoint x="810.0000000000001" y="1408.5699999999997" as="targetPoint" />
            <mxPoint as="offset" />
          </mxGeometry>
        </mxCell>
        <mxCell id="qxeG9Fw4XrytaZjSxtoZ-244" value="" style="whiteSpace=wrap;html=1;aspect=fixed;" parent="1" vertex="1">
          <mxGeometry x="900" y="1070" width="80" height="80" as="geometry" />
        </mxCell>
        <mxCell id="qxeG9Fw4XrytaZjSxtoZ-259" value="" style="whiteSpace=wrap;html=1;aspect=fixed;" parent="1" vertex="1">
          <mxGeometry x="1020" y="1070" width="80" height="80" as="geometry" />
        </mxCell>
        <mxCell id="qxeG9Fw4XrytaZjSxtoZ-260" value="" style="whiteSpace=wrap;html=1;aspect=fixed;" parent="1" vertex="1">
          <mxGeometry x="1140" y="1070" width="80" height="80" as="geometry" />
        </mxCell>
        <mxCell id="qxeG9Fw4XrytaZjSxtoZ-261" value="" style="whiteSpace=wrap;html=1;aspect=fixed;" parent="1" vertex="1">
          <mxGeometry x="1260" y="1070" width="80" height="80" as="geometry" />
        </mxCell>
        <mxCell id="qxeG9Fw4XrytaZjSxtoZ-262" value="" style="whiteSpace=wrap;html=1;aspect=fixed;" parent="1" vertex="1">
          <mxGeometry x="900" y="1169" width="80" height="80" as="geometry" />
        </mxCell>
        <mxCell id="qxeG9Fw4XrytaZjSxtoZ-263" value="" style="whiteSpace=wrap;html=1;aspect=fixed;" parent="1" vertex="1">
          <mxGeometry x="1020" y="1169" width="80" height="80" as="geometry" />
        </mxCell>
        <mxCell id="qxeG9Fw4XrytaZjSxtoZ-264" value="" style="whiteSpace=wrap;html=1;aspect=fixed;" parent="1" vertex="1">
          <mxGeometry x="1140" y="1169" width="80" height="80" as="geometry" />
        </mxCell>
        <mxCell id="qxeG9Fw4XrytaZjSxtoZ-265" value="" style="whiteSpace=wrap;html=1;aspect=fixed;" parent="1" vertex="1">
          <mxGeometry x="1260" y="1169" width="80" height="80" as="geometry" />
        </mxCell>
        <mxCell id="qxeG9Fw4XrytaZjSxtoZ-266" value="systolic" style="text;whiteSpace=wrap;html=1;" parent="1" vertex="1">
          <mxGeometry x="810" y="1040" width="70" height="40" as="geometry" />
        </mxCell>
        <mxCell id="qxeG9Fw4XrytaZjSxtoZ-267" value="" style="whiteSpace=wrap;html=1;aspect=fixed;" parent="1" vertex="1">
          <mxGeometry x="900" y="1270" width="80" height="80" as="geometry" />
        </mxCell>
        <mxCell id="qxeG9Fw4XrytaZjSxtoZ-268" value="" style="whiteSpace=wrap;html=1;aspect=fixed;" parent="1" vertex="1">
          <mxGeometry x="1020" y="1270" width="80" height="80" as="geometry" />
        </mxCell>
        <mxCell id="qxeG9Fw4XrytaZjSxtoZ-269" value="" style="whiteSpace=wrap;html=1;aspect=fixed;" parent="1" vertex="1">
          <mxGeometry x="1140" y="1270" width="80" height="80" as="geometry" />
        </mxCell>
        <mxCell id="qxeG9Fw4XrytaZjSxtoZ-270" value="" style="whiteSpace=wrap;html=1;aspect=fixed;" parent="1" vertex="1">
          <mxGeometry x="1260" y="1270" width="80" height="80" as="geometry" />
        </mxCell>
        <mxCell id="qxeG9Fw4XrytaZjSxtoZ-271" value="" style="whiteSpace=wrap;html=1;aspect=fixed;" parent="1" vertex="1">
          <mxGeometry x="900" y="1369" width="80" height="80" as="geometry" />
        </mxCell>
        <mxCell id="qxeG9Fw4XrytaZjSxtoZ-272" value="" style="whiteSpace=wrap;html=1;aspect=fixed;" parent="1" vertex="1">
          <mxGeometry x="1020" y="1369" width="80" height="80" as="geometry" />
        </mxCell>
        <mxCell id="qxeG9Fw4XrytaZjSxtoZ-273" value="" style="whiteSpace=wrap;html=1;aspect=fixed;" parent="1" vertex="1">
          <mxGeometry x="1140" y="1369" width="80" height="80" as="geometry" />
        </mxCell>
        <mxCell id="qxeG9Fw4XrytaZjSxtoZ-274" value="" style="whiteSpace=wrap;html=1;aspect=fixed;" parent="1" vertex="1">
          <mxGeometry x="1260" y="1369" width="80" height="80" as="geometry" />
        </mxCell>
        <mxCell id="qxeG9Fw4XrytaZjSxtoZ-275" value="mul_outcome[335:0]" style="endArrow=classic;html=1;rounded=0;entryX=-0.001;entryY=0.414;entryDx=0;entryDy=0;entryPerimeter=0;" parent="1" edge="1">
          <mxGeometry x="-0.0014" relative="1" as="geometry">
            <mxPoint x="1390" y="1279.9999999999998" as="sourcePoint" />
            <mxPoint x="1549.42" y="1280.1599999999996" as="targetPoint" />
            <mxPoint as="offset" />
          </mxGeometry>
        </mxCell>
        <mxCell id="qxeG9Fw4XrytaZjSxtoZ-279" style="edgeStyle=orthogonalEdgeStyle;rounded=0;orthogonalLoop=1;jettySize=auto;html=1;exitX=0.5;exitY=1;exitDx=0;exitDy=0;endArrow=none;endFill=0;" parent="1" source="qxeG9Fw4XrytaZjSxtoZ-276" edge="1">
          <mxGeometry relative="1" as="geometry">
            <mxPoint x="190" y="1520" as="targetPoint" />
          </mxGeometry>
        </mxCell>
        <mxCell id="qxeG9Fw4XrytaZjSxtoZ-276" value="" style="shape=offPageConnector;whiteSpace=wrap;html=1;rotation=-90;" parent="1" vertex="1">
          <mxGeometry x="-10" y="1449" width="20" height="60" as="geometry" />
        </mxCell>
        <mxCell id="qxeG9Fw4XrytaZjSxtoZ-280" value="clk" style="endArrow=classic;html=1;rounded=0;" parent="1" edge="1">
          <mxGeometry relative="1" as="geometry">
            <mxPoint x="650" y="1660" as="sourcePoint" />
            <mxPoint x="810" y="1660" as="targetPoint" />
          </mxGeometry>
        </mxCell>
        <mxCell id="qxeG9Fw4XrytaZjSxtoZ-281" value="srstn" style="edgeLabel;resizable=0;html=1;;align=center;verticalAlign=middle;" parent="qxeG9Fw4XrytaZjSxtoZ-280" connectable="0" vertex="1">
          <mxGeometry relative="1" as="geometry" />
        </mxCell>
        <mxCell id="qxeG9Fw4XrytaZjSxtoZ-282" value="" style="shape=offPageConnector;whiteSpace=wrap;html=1;rotation=-90;" parent="1" vertex="1">
          <mxGeometry x="610" y="1630" width="20" height="60" as="geometry" />
        </mxCell>
        <mxCell id="qxeG9Fw4XrytaZjSxtoZ-283" value="" style="shape=offPageConnector;whiteSpace=wrap;html=1;rotation=-90;" parent="1" vertex="1">
          <mxGeometry x="610" y="1580" width="20" height="60" as="geometry" />
        </mxCell>
        <mxCell id="qxeG9Fw4XrytaZjSxtoZ-284" value="" style="shape=offPageConnector;whiteSpace=wrap;html=1;rotation=-90;" parent="1" vertex="1">
          <mxGeometry x="150" y="1590" width="20" height="60" as="geometry" />
        </mxCell>
        <mxCell id="qxeG9Fw4XrytaZjSxtoZ-285" value="" style="shape=offPageConnector;whiteSpace=wrap;html=1;rotation=-90;" parent="1" vertex="1">
          <mxGeometry x="150" y="1650" width="20" height="60" as="geometry" />
        </mxCell>
        <mxCell id="qxeG9Fw4XrytaZjSxtoZ-289" value="sram_raddr_w1[9:0]" style="endArrow=classic;html=1;rounded=0;entryX=-0.001;entryY=0.414;entryDx=0;entryDy=0;entryPerimeter=0;" parent="1" edge="1">
          <mxGeometry x="0.0063" relative="1" as="geometry">
            <mxPoint x="1930" y="1680.26" as="sourcePoint" />
            <mxPoint x="2089" y="1680.26" as="targetPoint" />
            <mxPoint as="offset" />
          </mxGeometry>
        </mxCell>
        <mxCell id="qxeG9Fw4XrytaZjSxtoZ-290" value="sram_raddr_w0[9:0]" style="endArrow=classic;html=1;rounded=0;entryX=-0.001;entryY=0.414;entryDx=0;entryDy=0;entryPerimeter=0;" parent="1" edge="1">
          <mxGeometry x="0.0063" relative="1" as="geometry">
            <mxPoint x="1930" y="1660" as="sourcePoint" />
            <mxPoint x="2089" y="1660" as="targetPoint" />
            <mxPoint as="offset" />
          </mxGeometry>
        </mxCell>
        <mxCell id="qxeG9Fw4XrytaZjSxtoZ-291" value="sram_raddr_w2[9:0]" style="endArrow=classic;html=1;rounded=0;entryX=-0.001;entryY=0.414;entryDx=0;entryDy=0;entryPerimeter=0;" parent="1" edge="1">
          <mxGeometry x="0.0063" relative="1" as="geometry">
            <mxPoint x="1930" y="1714.57" as="sourcePoint" />
            <mxPoint x="2089" y="1714.57" as="targetPoint" />
            <mxPoint as="offset" />
          </mxGeometry>
        </mxCell>
        <mxCell id="qxeG9Fw4XrytaZjSxtoZ-292" value="sram_raddr_w3[9:0]" style="endArrow=classic;html=1;rounded=0;entryX=-0.001;entryY=0.414;entryDx=0;entryDy=0;entryPerimeter=0;" parent="1" edge="1">
          <mxGeometry x="0.0063" relative="1" as="geometry">
            <mxPoint x="1930" y="1741" as="sourcePoint" />
            <mxPoint x="2089" y="1741" as="targetPoint" />
            <mxPoint as="offset" />
          </mxGeometry>
        </mxCell>
        <mxCell id="qxeG9Fw4XrytaZjSxtoZ-293" value="sram_raddr_d1[9:0]" style="endArrow=classic;html=1;rounded=0;entryX=-0.001;entryY=0.414;entryDx=0;entryDy=0;entryPerimeter=0;" parent="1" edge="1">
          <mxGeometry x="0.0063" relative="1" as="geometry">
            <mxPoint x="1930" y="1831.26" as="sourcePoint" />
            <mxPoint x="2089" y="1831.26" as="targetPoint" />
            <mxPoint as="offset" />
          </mxGeometry>
        </mxCell>
        <mxCell id="qxeG9Fw4XrytaZjSxtoZ-294" value="sram_raddr_d0[9:0]" style="endArrow=classic;html=1;rounded=0;entryX=-0.001;entryY=0.414;entryDx=0;entryDy=0;entryPerimeter=0;" parent="1" edge="1">
          <mxGeometry x="0.0063" relative="1" as="geometry">
            <mxPoint x="1930" y="1801" as="sourcePoint" />
            <mxPoint x="2089" y="1801" as="targetPoint" />
            <mxPoint as="offset" />
          </mxGeometry>
        </mxCell>
        <mxCell id="qxeG9Fw4XrytaZjSxtoZ-295" value="sram_raddr_d2[9:0]" style="endArrow=classic;html=1;rounded=0;entryX=-0.001;entryY=0.414;entryDx=0;entryDy=0;entryPerimeter=0;" parent="1" edge="1">
          <mxGeometry x="0.0063" relative="1" as="geometry">
            <mxPoint x="1930" y="1865.57" as="sourcePoint" />
            <mxPoint x="2089" y="1865.57" as="targetPoint" />
            <mxPoint as="offset" />
          </mxGeometry>
        </mxCell>
        <mxCell id="qxeG9Fw4XrytaZjSxtoZ-296" value="sram_raddr_d3[9:0]" style="endArrow=classic;html=1;rounded=0;entryX=-0.001;entryY=0.414;entryDx=0;entryDy=0;entryPerimeter=0;" parent="1" edge="1">
          <mxGeometry x="0.0063" relative="1" as="geometry">
            <mxPoint x="1930" y="1892" as="sourcePoint" />
            <mxPoint x="2089" y="1892" as="targetPoint" />
            <mxPoint as="offset" />
          </mxGeometry>
        </mxCell>
        <mxCell id="qxeG9Fw4XrytaZjSxtoZ-297" value="addr_serial_num[6:0]" style="endArrow=classic;html=1;rounded=0;entryX=-0.001;entryY=0.414;entryDx=0;entryDy=0;entryPerimeter=0;exitX=0.981;exitY=0.66;exitDx=0;exitDy=0;exitPerimeter=0;" parent="1" edge="1">
          <mxGeometry x="0.0063" relative="1" as="geometry">
            <mxPoint x="457.90999999999985" y="1845.7999999999997" as="sourcePoint" />
            <mxPoint x="1780" y="1847.07" as="targetPoint" />
            <mxPoint as="offset" />
          </mxGeometry>
        </mxCell>
        <mxCell id="qxeG9Fw4XrytaZjSxtoZ-298" value="clk" style="endArrow=classic;html=1;rounded=0;entryX=-0.001;entryY=0.414;entryDx=0;entryDy=0;entryPerimeter=0;" parent="1" edge="1">
          <mxGeometry x="0.0063" relative="1" as="geometry">
            <mxPoint x="1621" y="1871" as="sourcePoint" />
            <mxPoint x="1780" y="1871" as="targetPoint" />
            <mxPoint as="offset" />
          </mxGeometry>
        </mxCell>
        <mxCell id="qxeG9Fw4XrytaZjSxtoZ-299" value="data_set[1:0]" style="endArrow=classic;html=1;rounded=0;entryX=-0.001;entryY=0.414;entryDx=0;entryDy=0;entryPerimeter=0;exitX=1.018;exitY=0.702;exitDx=0;exitDy=0;exitPerimeter=0;edgeStyle=orthogonalEdgeStyle;" parent="1" source="qxeG9Fw4XrytaZjSxtoZ-198" edge="1">
          <mxGeometry x="0.0063" relative="1" as="geometry">
            <mxPoint x="1654" y="1520" as="sourcePoint" />
            <mxPoint x="1813" y="1520" as="targetPoint" />
            <mxPoint as="offset" />
            <Array as="points">
              <mxPoint x="1610" y="1792" />
              <mxPoint x="1610" y="1520" />
            </Array>
          </mxGeometry>
        </mxCell>
        <mxCell id="qxeG9Fw4XrytaZjSxtoZ-300" value="clk" style="endArrow=classic;html=1;rounded=0;entryX=-0.001;entryY=0.414;entryDx=0;entryDy=0;entryPerimeter=0;" parent="1" edge="1">
          <mxGeometry x="0.0063" relative="1" as="geometry">
            <mxPoint x="1651" y="1590" as="sourcePoint" />
            <mxPoint x="1810" y="1590" as="targetPoint" />
            <mxPoint as="offset" />
          </mxGeometry>
        </mxCell>
        <mxCell id="qxeG9Fw4XrytaZjSxtoZ-301" value="srstn" style="endArrow=classic;html=1;rounded=0;entryX=-0.001;entryY=0.414;entryDx=0;entryDy=0;entryPerimeter=0;" parent="1" edge="1">
          <mxGeometry x="0.0063" relative="1" as="geometry">
            <mxPoint x="1651" y="1560" as="sourcePoint" />
            <mxPoint x="1810" y="1560" as="targetPoint" />
            <mxPoint as="offset" />
          </mxGeometry>
        </mxCell>
        <mxCell id="qxeG9Fw4XrytaZjSxtoZ-302" value="matrix_index[5:0]" style="endArrow=classic;html=1;rounded=0;entryX=-0.001;entryY=0.414;entryDx=0;entryDy=0;entryPerimeter=0;exitX=1.005;exitY=0.621;exitDx=0;exitDy=0;exitPerimeter=0;" parent="1" source="qxeG9Fw4XrytaZjSxtoZ-198" edge="1">
          <mxGeometry x="0.0063" relative="1" as="geometry">
            <mxPoint x="1651" y="1470" as="sourcePoint" />
            <mxPoint x="1810" y="1470" as="targetPoint" />
            <mxPoint as="offset" />
            <Array as="points">
              <mxPoint x="1540" y="1750" />
              <mxPoint x="1540" y="1470" />
            </Array>
          </mxGeometry>
        </mxCell>
        <mxCell id="qxeG9Fw4XrytaZjSxtoZ-303" value="sram_waddr_a[5:0]" style="endArrow=classic;html=1;rounded=0;entryX=-0.001;entryY=0.414;entryDx=0;entryDy=0;entryPerimeter=0;" parent="1" edge="1">
          <mxGeometry x="0.0063" relative="1" as="geometry">
            <mxPoint x="1900" y="1270" as="sourcePoint" />
            <mxPoint x="2059" y="1270" as="targetPoint" />
            <mxPoint as="offset" />
          </mxGeometry>
        </mxCell>
        <mxCell id="qxeG9Fw4XrytaZjSxtoZ-304" value="quantized_data[127:0]" style="endArrow=classic;html=1;rounded=0;" parent="1" edge="1">
          <mxGeometry x="-0.0053" relative="1" as="geometry">
            <mxPoint x="1670" y="1279.9999999999998" as="sourcePoint" />
            <mxPoint x="1810" y="1280" as="targetPoint" />
            <mxPoint as="offset" />
          </mxGeometry>
        </mxCell>
        <mxCell id="qxeG9Fw4XrytaZjSxtoZ-305" value="sram_write_enable" style="endArrow=classic;html=1;rounded=0;entryX=-0.001;entryY=0.414;entryDx=0;entryDy=0;entryPerimeter=0;exitX=0.992;exitY=0.538;exitDx=0;exitDy=0;exitPerimeter=0;" parent="1" source="qxeG9Fw4XrytaZjSxtoZ-198" edge="1">
          <mxGeometry x="0.8416" relative="1" as="geometry">
            <mxPoint x="1651" y="1430" as="sourcePoint" />
            <mxPoint x="1810" y="1430" as="targetPoint" />
            <mxPoint x="-1" as="offset" />
            <Array as="points">
              <mxPoint x="1510" y="1721" />
              <mxPoint x="1510" y="1430" />
            </Array>
          </mxGeometry>
        </mxCell>
        <mxCell id="qxeG9Fw4XrytaZjSxtoZ-306" value="&lt;span style=&quot;font-size: 11px; text-wrap-mode: nowrap; background-color: rgb(255, 255, 255);&quot;&gt;sram_write_enable&lt;/span&gt;" style="text;html=1;whiteSpace=wrap;strokeColor=none;fillColor=none;align=center;verticalAlign=middle;rounded=0;" parent="1" vertex="1">
          <mxGeometry x="490" y="1710" width="60" height="30" as="geometry" />
        </mxCell>
        <mxCell id="qxeG9Fw4XrytaZjSxtoZ-307" value="sram_waddr_b[5:0]" style="endArrow=classic;html=1;rounded=0;entryX=-0.001;entryY=0.414;entryDx=0;entryDy=0;entryPerimeter=0;" parent="1" edge="1">
          <mxGeometry x="0.0063" relative="1" as="geometry">
            <mxPoint x="1900" y="1301.38" as="sourcePoint" />
            <mxPoint x="2059" y="1301.38" as="targetPoint" />
            <mxPoint as="offset" />
          </mxGeometry>
        </mxCell>
        <mxCell id="qxeG9Fw4XrytaZjSxtoZ-308" value="sram_waddr_c[5:0]" style="endArrow=classic;html=1;rounded=0;entryX=-0.001;entryY=0.414;entryDx=0;entryDy=0;entryPerimeter=0;" parent="1" edge="1">
          <mxGeometry x="0.0063" relative="1" as="geometry">
            <mxPoint x="1900" y="1331.91" as="sourcePoint" />
            <mxPoint x="2059" y="1331.91" as="targetPoint" />
            <mxPoint as="offset" />
          </mxGeometry>
        </mxCell>
        <mxCell id="qxeG9Fw4XrytaZjSxtoZ-312" value="sram_wdata_a[127:0]" style="endArrow=classic;html=1;rounded=0;entryX=-0.001;entryY=0.414;entryDx=0;entryDy=0;entryPerimeter=0;" parent="1" edge="1">
          <mxGeometry x="0.0063" relative="1" as="geometry">
            <mxPoint x="1900" y="1386.04" as="sourcePoint" />
            <mxPoint x="2059" y="1386.04" as="targetPoint" />
            <mxPoint as="offset" />
          </mxGeometry>
        </mxCell>
        <mxCell id="qxeG9Fw4XrytaZjSxtoZ-313" value="sram_wdata_b[127:0]" style="endArrow=classic;html=1;rounded=0;entryX=-0.001;entryY=0.414;entryDx=0;entryDy=0;entryPerimeter=0;" parent="1" edge="1">
          <mxGeometry x="0.0063" relative="1" as="geometry">
            <mxPoint x="1900" y="1417.42" as="sourcePoint" />
            <mxPoint x="2059" y="1417.42" as="targetPoint" />
            <mxPoint as="offset" />
          </mxGeometry>
        </mxCell>
        <mxCell id="qxeG9Fw4XrytaZjSxtoZ-314" value="sram_wdata_c[127:0]" style="endArrow=classic;html=1;rounded=0;entryX=-0.001;entryY=0.414;entryDx=0;entryDy=0;entryPerimeter=0;" parent="1" edge="1">
          <mxGeometry x="0.0063" relative="1" as="geometry">
            <mxPoint x="1900" y="1447.95" as="sourcePoint" />
            <mxPoint x="2059" y="1447.95" as="targetPoint" />
            <mxPoint as="offset" />
          </mxGeometry>
        </mxCell>
        <mxCell id="qxeG9Fw4XrytaZjSxtoZ-315" value="sram_write_enable_a0" style="endArrow=classic;html=1;rounded=0;entryX=-0.001;entryY=0.414;entryDx=0;entryDy=0;entryPerimeter=0;" parent="1" edge="1">
          <mxGeometry x="0.0063" relative="1" as="geometry">
            <mxPoint x="1900" y="1500" as="sourcePoint" />
            <mxPoint x="2059" y="1500" as="targetPoint" />
            <mxPoint as="offset" />
          </mxGeometry>
        </mxCell>
        <mxCell id="qxeG9Fw4XrytaZjSxtoZ-316" value="sram_write_enable_b0" style="endArrow=classic;html=1;rounded=0;entryX=-0.001;entryY=0.414;entryDx=0;entryDy=0;entryPerimeter=0;" parent="1" edge="1">
          <mxGeometry x="0.0063" relative="1" as="geometry">
            <mxPoint x="1900" y="1531.38" as="sourcePoint" />
            <mxPoint x="2059" y="1531.38" as="targetPoint" />
            <mxPoint as="offset" />
          </mxGeometry>
        </mxCell>
        <mxCell id="qxeG9Fw4XrytaZjSxtoZ-317" value="sram_write_enable_c0" style="endArrow=classic;html=1;rounded=0;entryX=-0.001;entryY=0.414;entryDx=0;entryDy=0;entryPerimeter=0;" parent="1" edge="1">
          <mxGeometry x="0.0063" relative="1" as="geometry">
            <mxPoint x="1900" y="1561.91" as="sourcePoint" />
            <mxPoint x="2059" y="1561.91" as="targetPoint" />
            <mxPoint as="offset" />
          </mxGeometry>
        </mxCell>
        <mxCell id="qxeG9Fw4XrytaZjSxtoZ-319" value="" style="shape=offPageConnector;whiteSpace=wrap;html=1;rotation=-90;" parent="1" vertex="1">
          <mxGeometry x="610" y="1090" width="20" height="60" as="geometry" />
        </mxCell>
        <mxCell id="qxeG9Fw4XrytaZjSxtoZ-320" value="" style="shape=offPageConnector;whiteSpace=wrap;html=1;rotation=-90;" parent="1" vertex="1">
          <mxGeometry x="610" y="1179" width="20" height="60" as="geometry" />
        </mxCell>
        <mxCell id="qxeG9Fw4XrytaZjSxtoZ-321" value="" style="shape=offPageConnector;whiteSpace=wrap;html=1;rotation=-90;" parent="1" vertex="1">
          <mxGeometry x="610" y="1280" width="20" height="60" as="geometry" />
        </mxCell>
        <mxCell id="qxeG9Fw4XrytaZjSxtoZ-322" value="" style="shape=offPageConnector;whiteSpace=wrap;html=1;rotation=-90;" parent="1" vertex="1">
          <mxGeometry x="610" y="1379" width="20" height="60" as="geometry" />
        </mxCell>
        <mxCell id="qxeG9Fw4XrytaZjSxtoZ-342" value="" style="rounded=0;whiteSpace=wrap;html=1;" parent="1" vertex="1">
          <mxGeometry x="15" y="2100" width="210" height="110" as="geometry" />
        </mxCell>
        <mxCell id="qt35nZpmaQqmA4UggaQT-2" value="" style="shape=image;verticalLabelPosition=bottom;labelBackgroundColor=default;verticalAlign=top;aspect=fixed;imageAspect=0;image=data:image/png,iVBORw0KGgoAAAANSUhEUgAAA24AAATvCAYAAAB+GqOUAAAAAXNSR0IArs4c6QAAAARnQU1BAACxjwv8YQUAAAAJcEhZcwAADsMAAA7DAcdvqGQAAP+lSURBVHhe7N0JvI1V////RQo3IREqU5kypFFKmW5FmaJISTTc97fpH82pO8Ot1P2r0JwmSZkbZahIMidERaREZUiFFDK0/+f9ca1t2/Y+Z5/jHGfv4/V8PK7Htfa6rn2dax/O2eez11qfT75QGgcAAAAASFr5gz0AAAAAIEkRuAEAAABAkiNwAwAAAIAkR+AGAAAAAEmOwA0AAAAAkhyBGwAAAAAkOQI3AAAAAEhyBG4AAAAAkOQI3AAAAAAgyRG4AQAAAECSI3ADAAAAgCRH4AYAAAAASY7ADQAAAACSHIEbAAAAACQ5AjcAAAAASHIEbgAAAACQ5AjcAAAAACDJEbgBAAAAQJIjcAMAAACAJEfgBgAAAABJjsANAAAAAJIcgRsAAAAAJDkCNwAAAABIcgRuAAAAAJDkCNwAAAAAIMkRuAEAAABAkiNwAwAAAIAkR+AGAAAAAEmOwA0AAAAAkhyBGwAAAAAkOQI3AAAAAEhyBG4AAAAAkOQI3AAAAAAgyRG4AQAAAECSI3ADAAAAgCRH4AYAAAAASY7ADQAAAACSHIEbAAAAACQ5AjcAAAAASHIEbgAAAACQ5AjcAAAAACDJEbgBAAAAQJIjcAMAAACAJEfgBgAAAABJjsANAAAAAJIcgRsAAAAAJDkCNwAAAABIcgRuAAAAAJDkCNwAAAAAIMkRuAEAAABAkssXShO0ASBHvPLKK7YByBtOOeUUN2jQoOARAOBgIHADkOP69Onj+vbtGzwCkOoaNWrkPv744+ARAOBgYKokAAAAACQ5AjcAAAAASHIEbgAAAACQ5FjjBiDHxVrjVrFiRdetW7fgEYBkpbVs06ZNCx7twRo3ADj4CNwA5LhYgRt/+AGpgZ9fAEgOTJUEAAAAgCRH4AYAAAAASY7ADQAAAACSHIEbAAAAACQ5AjcAAAAASHIEbgAAAACQ5AjcAAAAACDJEbgBAAAAQJIjcAMAAACAJEfgBgAAAABJjsANAAAAAJIcgRsAAAAAJDkCNwAAAABIcgRuAAAAAJDkCNwAAAAAIMkRuAEAAABAkiNwAwAAAIAkR+AGAAAAAEmOwA0AAAAAkhyBGwAAAAAkOQI3AAAAAEhyBG4AAAAAkOQI3AAAAAAgyRG4AQAAAECSI3ADAAAAgCRH4AYAAAAASY7ADQAAAACSHIEbAAAAACQ5AjcAAAAASHIEbgAAAACQ5AjcAAAAACDJEbgBAAAAQJIjcAMAAACAJEfgBgAAAABJjsANAAAAAJIcgRsAAAAAJDkCNwAAAABIcgRuQIJatWrlGjduHN46deoUHEk+kfep7brrrguOAAAAIBXlC6UJ2kDSGzx4sLv77ruDR8599NFH7rTTTgseJS4r1ylRooTbvHmzK1SokCtYsKCrUKGCW7x4sR175ZVX3Pfff2/tjCjgq1GjRvAocfpaQ4cOdQsXLnQbN250xxxzjDv33HNd165d7V4i6V5l69atbufOna5u3bru888/t77c0KdPH9e3b9/g0R6NGjVyH3/8cfAIQLLi5xcAkoQCNyBV1K9fXx80hIoXL277Hj16BEcyJyvX8ecOHDgw6Nkr7Y8YO5bINm3atOBZiUv7oymUL1++8DWKFSsWbhcuXDg0YsSI4Mx9pQV1dk5a4Bb05I7evXuH79dv+p4BSH78/AJAcmCqJFLGihUr3Jw5c1xaAOP69+9vfSNHjnS7d++2dqKy6zqRbr75ZpcW0MXdWrdubeeVLl3aNWjQwNqJ0mhe2h9O+pDFtWvXzq1Zs8ZG/r766it36qmnum3btrkuXbq4Tz/9NHgGAAAA8hoCN6SM119/3fZnnXWWu+qqq2y64rp169zkyZOtP1HZdZ1Il156qevRo0fcbfv27XaeArjDDjvM2on4888/Xc+ePa1dr149N3r0aFeuXDl7XLNmTffBBx+4MmXKuF27drnbbrvN+gEAAJD3ELghZbz22mu2V/BTtGhR16xZM3vs+xOVXddJ1Pr1692UKVOsrQAvM8aNG2dBpTz44IOuQIEC1vZKlSrl7rjjDmvPnDnTff3119YGAABA3kLghpQwd+5cm+Iobdu23Wf/1ltv2chUIrLrOpmhUbK///7bFStWzDVt2jTo3ZemPm7atMkSiUSaOHGi7RWgxXvuFVdcEbSce/fdd4MWAAAA8hICN6QEPxpWuXJlV6tWLWu3adPG1qkp2Hr77betLyPZdZ3MGD58uO01wqdpmbFUrFjRHXXUUW78+PFBzx6LFi2y/Xnnnefy54/943rssce6E0880dpffvml7QEAAJC3ELgh6WkUatSoUdZWcg5Pa7t8oo9Epjlm13UyQyUClAhFIr9mopYvX277qlWr2j6e6tWr256pkgAAAHkTgRuSnhJwbNiwwdrRa8R8MKRztJYsPdl1ncxQtkpR7beLLrrI2rHUqVPHaq0VL1486HE2vVIZI6Vs2bK2j0fZKuWPP/6wPQAAAPIWAjckPT8KpmyKygQZqX379rZXkDNixAhrx5Nd18kMn8FSQVvhwoWtHcv06dOtQHaTJk2CHud+//33oOXSfa5o/Zyo4DYAAADynnwq5ha0gaSzZcsWm8qokaebbrrJPfXUU8GRvU4//XS3YMECd8YZZ7h58+YFvfvKjuuUKFHCkoioLptS/GdEddZq165t7WHDhrkrr7zS2olSEFakSBFrP/744+6WW26xdizXX3+9Gzx4sK2V0/RMr1u3bm7o0KE2mqfAMB7Viot8Xnb7+OOP3bRp04JHezRq1Mj6ASS3Pn36uL59+waP9uDnFwAOPgI3JDUFHQo+pGvXru6UU06xdiRlg/zkk0+svXTpUlejRg1rR8qO62Q2cLvvvvuswPcRRxzhfv75532mQSZKSVPkkUceCaf9j0X16BQcRgdoiQZujRs33i+wymn84QekBgI3AEgOTJVEUvNTDUUByK233rrf5oMtUfASS3ZdJzP8+jZNf8xK0Ca+2PaPP/5o+3h++ukn26tsQFboDzB9hpNTW+/evYOvBAAAgKwgcEPSWrNmTbhwdefOnW1ELN6mESVR6n0FCpGy6zqZoUyS3333nbU7dOhg+6zwo37Lli2zfTw++2TNmjVtDwAAgLyFwA1JS0lClCxEunfv7i6++OK4W5cuXew8rdOaOXOmtb3suk5m+AQnqr2m+m1ZVb9+fdvrXqKLc3vffvtteESuXr16tgcAAEDeQuCGpOWzQJYvX94ShqQnclQreppjdl0nUbt373ZjxoyxdsOGDd0xxxxj7azwZQuUXMVfM9rLL79s+8MPP9y1atXK2gAAAMhbCNyQlJYsWRJOpqFgyifpiKdChQrhFP8KcP766y9rZ9d1MkPrxdauXWttX2YgIyeffLKrVKmS1ZGLdNppp7lzzz3X2nfddVf4ut78+fPdgAEDrH3DDTdYAhUAAADkPQRuSEqRo13RxbLj8aNlGzdudBMmTLB2dl0nMyLrwPnC3hlZvXq1W7VqVcw6bEOGDLGkI0pAomyYvXr1slE2JVTRiN727dtd1apV98v6BgAAgLyDwA1JR+vRlBxEYhXLjidymqOmR2bXdTJDI3RvvPGGtfX1jj/+eGsfiCpVqtgaN2WnVFmBfv36uWuvvdYNGjTI7dixw+53xowZjLYBAADkYQRuSDpK6KHRJ2V1VEZIPU6Epjn69PMKnrLrOplRsGBBG6nTc5VZMlGbNm2y5yhBSizVqlVzH330kY3Mvffee+7VV191EydOdOvXr3ejR48+oHV0AAAASH4EbkAKUYKVli1bWvbLFi1auJIlSwZHAAAAkJcRuAGZNGnSJNenTx+bqpisdH/afGIWAAAApDYCNyCT3n//fUsEksyBm+5P26JFi4IeAAAApDICNyBB06dPdwsXLgxvWck4ebBE3qe2UaNGBUcAAACQigjcgATVqVPH0vH7rWbNmsGR5BN5n9qqV68eHAEAAEAqInADAAAAgCRH4AYAAAAASY7ADQAAAACSHIEbAAAAACQ5AjcAAAAASHIEbgAAAACQ5AjccEgZO3asa9y48T7bpEmTgqN5R/RrvO6664IjAAAASEUEbsgxmzdvdiVKlIi5lSlTxtWoUcM1adLE3Xvvve7jjz92oVAoeGZiBg8evM81FyxYEByJ78cff3TTpk2z7fPPP7ftt99+C47uNXXqVAt2zj77bKuDduGFF7q+ffu6NWvWBGdk7IcffnA9e/Z03bp1c6tXrw56s27x4sXu9ttvd02bNnWnnnqqa968uevXr1/Ma/vXNmvWLHutn332WXAEAAAAqYjADTlGgZiCN22FChVylSpVCm9HHXWUW79+vQVsDz30kAVwp59+ups/f37w7Iy98sordm3RftiwYdZORPHixd2mTZtsu+KKK4LePff8f//3fxYcvfTSS3Y/Cow0KtenTx8LNqdMmRKcHduKFSvcv//9b3fiiSe6hx9+2A0dOjRmcJgZ//3vfy2AHDBggAWV3333nfvggw9cr1697J5GjhwZnLlHrNcGAACA1EXghoPi+uuvD48Cafv666/dxo0b3VdffWUjbgrsFi5c6M4777wMAyNRcDRnzhyXL18+179/f+tT8LJ7925rZ9Vzzz3nnn/+eWvrur///rsFXStXrnRnnXWW27Jli+vYsaP1R1uyZIkFSgqkXnjhBbdz587gyIFRgNq7d28LKtu1a2ejfgpU9b3TyNu2bdtcly5d3Keffho8AwAAAHkNgRtyVc2aNd2DDz7oZs+e7UqWLGlBiAIjjcal5/XXX7e9gqmrrrrKFSxY0K1bt85NnjzZ+rPqqaeesn2LFi1smqMCStEo4ZAhQ6ytQC56XZyCyFq1arkRI0bY406dOrmXX37Z2gfizz//tPuQevXqudGjR7ty5crZY33vNOqmaae7du1yt912m/UDAAAg7yFwQ1LQNECNUokCo8cee8za8bz22mu2b926tStatKhr1qyZPfb9WfW///3Pvfrqq7Z2LNpJJ50UDuS0fi2SAkgFVjfffLONBiqA02jYgRo3bpwFpKIAt0CBAtb2SpUq5e644w5rz5w500YyAQAAkPcQuCFpaBpglSpVrD18+HDbxzJ37lwLjqRt27b77N966y0bpcqqVq1a2bTDM844I+jZa/v27TayJcWKFbO9pymbGnV78sknbXQuszT1UWvSoqdXTpw40fYK0LTuLpbIdWzvvvtu0AIAAEBeQuCGpKHg55JLLrH2Tz/9FDcTox9Vq1y5sk1PlDZt2tjzFbS9/fbb1pfdtIbOB26NGjWyfSR9/ayqWLGiJWwZP3580LPHokWLbK+1f/nzx/5xPfbYYy0Rinz55Ze2BwAAQN5C4IakEjm9UOnvo2lEatSoUdbWCJ2ndV4NGjSw9oFOl4ymhCdar3bjjTfa4xtuuMFVq1bN2jlt+fLltq9atart46levbrtmSoJAACQNxG4IakoAPM0dTCaknFs2LDB2pdeeqntPR/I6ZyMkpskYuvWrZak5JhjjnHXXnutraVT6QJNh8xuderUcXXr1rUyBd7ff/9tyVqkbNmyto+ndOnStv/jjz9sDwAAgLyFwA1JRYW0vVhBiB9NU2ZFJQSJ1L59e9sr4PHZHQ/Ejh073Pvvv2/JUjRNUcHV0UcfbdfPbtOnT7cyCapn50WWHChcuHDQis2vuVOwCQAAgLwnX0jFoYAcoBEzrdsS1SFTAeuMTJs2zTVu3NjaKlytVP+eaqhpRE6jUDfddFM4dX8kFfFesGCBJReZN29e0LvXoEGD3K233houwJ0eBWi6huqzvfnmm+69996z/nPOOcdG9YoUKWKP41Eg5qd+qkadMmdmhoIw/zUef/xxd8stt1g7FtXJGzx4sK2V+/7774Ne57p162bfR43m6X7iUa24yOdlNxVa179tJK0TVD+A5Kbf3X379g0e7cHPLwDkAgVuQE7YuHGjPhSwLS1wC3rTN3r06PBzxo0bF/TukRZchI917do1NHDgwP22hg0bhs9ZunRp8My9dI6OpQVuQU/ixo4dG8qfP789v0ePHkFvfGnBWvhe1M4K//xHHnkk6ImtS5cudl5agBb07KHvU6z+aGl/hIW/1sHa9DUBJD/9/ubnFwByH1MlkVQiR4VUYDqSL7otGkXSyFn09sknnwRnODds2LCglT2U8fKyyy6ztmq95cSUyWi+2PaPP/5o+3iUhVNUNiAr9Ml52u+DHNs04goAAICsI3BDUvF1yDQl8oQTTrC2rFmzxk2ZMsXanTt3tnpt8TZNCxTVglPQkJ38GjSte/NJUnJSjRo1bL9s2TLbx+OzT0YHuwAAAMgbCNyQNJQIxNch69ixo+09JRvxI1zdu3d3F198cdxNBbRFa7Zmzpxp7USoRpuyUWpN219//RX07isyScjBGHGrX7++7fU6ootze99++214RK5evXq2BwAAQN5C4IaksGLFCnf11VdbW2n377rrLmt7Pptk+fLlLfFIejp06BC0MjddctKkSZZ2X0W94xXxVuITUdKQrE5LzAxf8kCJWcaMGWPtaKoxJ4cffrhr1aqVtQEAAJC3ELghV2nKoTI9aqRo7dq1lnZ/yJAh7vjjjw/OcDYC5te+KSjLly+fteOpUKFCuFSAgp14o2fRzj//fKvZJg888MA+6fhFxa1ffPFFa7dp08YCpexy8sknu0qVKlm2ykinnXaaO/fcc62tYFbfo0jz5893AwYMsLYKg0eWUwAAAEDeQeCGg2LkyJH7TGds2rSprd/SqJWSimzcuNECrokTJ+5XWDty1Cz6WDx+1E3XnTBhgrUzUrBgQffss89a8Kgpm0rfrzTYSrOv6ZkKLjXypVpuDz74YPCs7LF69Wq3atWqmHXYFMjq+6QEJLqnXr162Sibvm8NGzZ027dvd1WrVt0vXTcAAADyDgI3HBRKrvHOO++Et6lTp9rokQIOrWfTVEidc8EFFwTP2EPryJRkRGIV3Y4ncrqkn2aZCBXxVqCn6ZIrV660YEg10p544gkL2nR/s2fPdpUrVw6ekfOqVKlia9yUGOXnn392/fr1c9dee62NVKpIuF7rjBkzGG0DAADIwwjckGMUSESnhY/cNm/ebMHaqFGjLFNkoUKFgmfupdEvjUTpfGWW1ONEaPTOf5033ngj6E1M8+bNbcRNmRrHjRtniVG0/m3dunWWQEXBZiI0OubvIaPi2yoGrvM0GhlLtWrV3EcffWQjcyoErnIEGp1UMpXRo0eHp3gCAAAgbyJwA+JQgKZkH506dbJgTiUKcpuSs7Rs2dIyZ7Zo0cKVLFkyOAIAAIC8jMANhyStC9P6NW2RRb/zirz82gAAAA5FBG44JCnTpNavacuLwY1/bYsWLQp6AAAAkMoI3HBI0Vq6hQsX7rMptX9eE/0atY4QAAAAqYvADYeU0qVLW6KQyC0vrhOLfo3Vq1cPjgAAACAVEbgBAAAAQJIjcAMAAACAJEfgBgAAAABJjsANAAAAAJIcgRsAAAAAJDkCNwAAAABIcgRuOGR8++23bvr06e69995zM2fOdJs3bw6OAAAAAMmNwA152vr1692dd97pKlSo4KpUqeIaNmzoWrdu7c4991x31FFHuSZNmrj3338/ODs2Fe0uUaJEprYvvvgiePYekddQ3bivv/46OBLbww8/bOdWrFgx6Enf4MGDw9fXtmDBguAIAAAA8gICN+RZb731lhWefvTRR92GDRtc27Zt3QMPPOAGDhzounfv7o477jj38ccfuxYtWrgbbrjB7d69O3jmvv78808bnfvrr79cpUqVEtqOOOKI4Nl7+Gto27hxo7v33nuDI7Ft3749fH4iXnnllfC52g8bNszaAAAAyBsI3JAnjR071l166aUWxFx00UVu2bJl7u2333b33Xef69Gjhxs0aJBbsWKFu/766+385557zvXs2dPa8SgI/PzzzxPadG4sRx99tO0VVM6ePdvaB0qvY86cOS5fvnyuf//+1jdy5Mi4gSgAAABSD4Eb8pzVq1e7q6++2v3999+uefPm7t1337WpktEKFizonnnmGdeyZUt7rJG5RYsWWTunKIisW7eute+55x7bH6jXX3/d9meddZa76qqr7HWtW7fOTZ482foBAACQ+gjckOf07dvX/fHHH+7www93L730kjvssMOCI/vTKNVjjz3mjjzySAuoPvvss+BIzsifP7/r06ePtT/55BM3fvx4a0crXrx40MrYa6+9Znut3StatKhr1qyZPfb9AAAASH0EbshTFLANHz7c2h06dLB1bBnRtMbff//dLVy40F177bVBb87YtGmTrbU75ZRT7LGmZ2pkMJoCykTMnTvXpkqKrhu513RMra0DAABA6iNwQ54ybdo0S+whrVq1sn2yUVD20EMPWVvZJw9kZMw/t3Llyq5WrVrWbtOmjX0NBW1a1wcAAIDUR+CGPEWjZt4ZZ5wRtJKPMllqTZrcf//9lrEys3bu3OlGjRpl7Xbt2tleypQp4xo0aGBtpksCAADkDQRuyFPWrFkTtJwrW7Zs0MoeK1eudBdffHHc7dZbbw3OTEy/fv1sr2QqSpKSWR988IGVORBl0IzkAzmdo1p2AAAASG0EbshTtm7dGrScJRzJTloH984778Tdpk6dGpyZmPPPP981bdrU2g8++GDCNds8P5pWrly58Oid1759e9tr/dyIESOsDQAAgNSVL5QmaAMpT4W0VZNNlKikSJEi1j4QGk1TYFa7dm03ffr0oHd/yl4ZL1j011DikMh1Z/PmzXP16tWzdq9evSwjpqjOnEbwlF1SCU2ibdmyxaZEbtu2zd10003uqaeeCo7sdfrpp7sFCxbYlFF9nfSogPf3338fPMp+KnSu9YeRGjVqZP0Akpsy4frfTR4/vwBw8BG4IU/RHxc+3b6mNlaqVMnaB8IHXSoXoOLaWeGvceGFF7oJEyYEvXso+6UKhivIVPBUqlSpDAO3oUOHum7dulm7a9eu4SyVkZRVUiUHZOnSpa5GjRrWjqVx48b7BVY5jT/8gNRA4AYAyYGpkshTatasGbScjTYlm8ipnF7//v1ttE5ZIFUEXNKrPSe+6LYoiFOQF735oE2GDRsWtGLTH2D6DCentt69ewdfCQAAAFlB4IY8RSNHKnItkydPtn0ilI3y22+/jVlTLadVrVrVXXfdddbWlEclHElvfZ4SsEyZMsXanTt3tpG1eJtGCUW17RRAAQAAIDURuCFPKV26tLvooousrVGmWNMMoynpiBKFVKlSxdaF5QaNSBUuXNhG3ZSoJD1KNuIDzO7du9s0zHhbly5d7DxNwZw5c6a1AQAAkHoI3JDnaC2GRt2UnKRHjx5Bb3y33Xab+/XXX62dW1P6lBlS0xtl8ODBbu3atdaOxWeTLF++fIa16rR+zstouiQAAACSF4Eb8pzTTjvNPfDAA9bW+i9lmlQQF23Hjh3ulltucS+99JI9VpCnUarccuedd7qSJUu67du3hzNjRluyZEk4QYqCsnz58lk7ngoVKoRLBYwZMyZLhb4BAACQ+wjckCf17NnTClxr5E1B0AknnGBBmtLejxo1ykblTjrpJPfkk0/a+ffcc48bMGCAtePJqAB35DZu3LjgWYkrUaKEu/fee62totyxRI6aRRfdjsePum3cuHG/jJYAAABIDQRuyLP+85//uPnz51sxaq1jU5B29dVXu06dOll66++++841a9bMzZgxwz300EMZjl5lVIA7clOik6y48cYbbQpkLFrXpiQjEqvodjyR0yX9NEsAAACkFuq44ZCgQtUqQq2MjJqKeMwxx7gzzzzTkpkg51EHCkhd/PwCQHJgxA2HBGVsbNiwoY22qXC1Mk8StAEAACBVELgBAAAAQJIjcAMAAACAJEfgBgAAAABJjsANAAAAAJIcgRsAAAAAJDkCNwAAAABIcgRuAAAAAJDkCNwAAAAAIMkRuAEAAABAkiNwAwAAAIAkR+AGAAAAAEmOwA0p5/nnn3clSpSw7fPPPw969/f777+7kiVLhs+dNGlScGR/f//9tytfvryd17Vr16B3j86dO4evkej2xRdfBM/eI/Iauqevv/46OBLbww8/bOdWrFgx6Enf4MGDw9fXtmDBguAIAAAA8gICN6Scc889123evNm2jz/+OOjd3+zZs93GjRvD506bNi04sj8FWj/++KOdd9ZZZwW9e/z555/W/9dff7lKlSoltB1xxBHBs/fw19Cme7r33nuDI7Ft3749fH4iXnnllfC52g8bNszaAAAAyBsI3JByatas6Y4//nhrT58+3faxzJgxw/Ynnnii7f3jWCKv07x586C1r+rVq9sIXyKbzo3l6KOPtv1bb71lgWV2WLFihZszZ47Lly+f69+/v/WNHDnS7d6929oAAABIfQRuSEnnn3++7T/55BMXCoWsHc0HajfffLPt582bZ6NmsfjATaNlPtDLCRdddJGrW7eute+55x7bH6jXX3/d9hopvOqqq1zBggXdunXr3OTJk60fAAAAqY/ADSnJB26//PKLW7ZsmbUj7dq1y82dO9faLVu2dMcee6wFbZ999pn1RfPTKP11c0r+/Pldnz59rK2gc/z48daOVrx48aCVsddee832rVu3dkWLFnXNmjWzx74fAAAAqY/ADSlJwYmmBkqsdW7z589327Ztc8WKFXNVqlRx9erVs/5YUys11XD9+vXWjjdNMrts2rTJtW3b1p1yyin2uGfPnpYYJZp/bRlRcKr7F103cq/pmFpbBwAAgNRH4IaUVLp06XDwEysYmzlzpu3PPPNMC4LOOOMMexxrnZtGvkSjYU2aNLF2TtL9PPTQQ9ZWUpQDGRnzz61cubKrVauWtdu0aWNfQ0Hb22+/bX0AAABIbQRuSFkXXHCB7WNli/QBmh9pO/vss20/a9as/dbE+cDt9NNPt1T9B0OLFi3C2Svvv//+uGvv0rNz5043atQoa7dr1872UqZMGdegQQNrM10SAAAgbyBwQ8rygdtPP/3kvv/+e2t7fsTtnHPOsb0CuMMOO8xS8S9ZssT6PB/k+evFs3LlSnfxxRfH3W699dbgzMT069fP9qtXr3bPPPOMtTPjgw8+cBs2bLD2pZdeanvPB3I6x08DBQAAQOoicEPK0qhS4cKFrR056rZ8+XL3888/W7t+/fq2V9KOk08+2dqRUyuVffHbb7+1dkaJSVTQ+5133om7TZ06NTgzMfp6TZs2tfaDDz6YcM02z4+mlStXbr/ac+3bt7e91s+NGDHC2gAAAEhd+ULxcqkDKUBTDt9//3137bXXuhdffNH6Xn75ZXtcrVq1fTJO3nTTTTay1blz53DQ88Ybb9hoVZEiRdxvv/22X+Fs0WiaArPatWvHXE/naUTvyCOPDB7ty19DiUMi152pRIGfztmrVy/Xt29faw8aNMhG8JRdUglNom3ZssWmRCoBi17XU089FRzZS1M/FyxYYOv79HXSowLe0aOW2UkJZKKntDZq1CjdAuoAkoMy4frfTR4/vwCQCxS4Aanqscce0wcPoapVqwY9odA111xjfd26dQt69hg+fLj1V6xYMegJhdKCI+tr2bJl0LO/tGDLzqlbt27Qk3n+GhdeeGHQs1da4GjH0oLH0IYNG6xv4MCB1pcWuNnjaGmBlh3X1rVrVzs/emvYsGH4nKVLlwbPjC3tj7DwuQdr09cEkPx69+7Nzy8AJAGmSiKl+emN33zzjU17FL9m7dxzz7W95x+vWrXK1sWJXwuX0/XbvK1btwatvfr372+jdcoC+eijj1qfHqfHF92WoUOH2uhc9OaTrsiwYcOCVmz65Dzt90GObWl/+AVfCQAAAFlB4IaUVqdOHVvjJcoYqemOWuMm0YFb+fLlbRMFbAqiNJVQDlbgFkvVqlXdddddZ21NeVTCkXhTLmXNmjVuypQp1ta0T9Vri7fVrVvXzhs+fLgFUAAAAEhNBG5IeT7oUuD26aefWrtUqVKuevXq1o7kgzmdp3Vfu3btcscdd5yrWbOm9ecWjUgp0YpG3ZSoJD1KNuKLdnfv3n2fzJbRW5cuXew8rV/zo4sAAABIPQRuSHnNmjWzvQI3n4QjerTN8/2zZ88+6NMk06NRQ01vlMGDB7u1a9daOxafWEWjh76weDwdOnQIWhlPlwQAAEDyInBDyvP11+bPnx/OXJhR4KYpkj59fzIEbnLnnXdaAfDt27e75557Lujdl2rQff7559ZWUJYvXz5rx1OhQoVwqYAxY8ZkqdA3AAAAch+BG1Ke0uKrRtuOHTvcRx99ZH2q8RaLUvoXK1bMgqPJkydbnx+xy0hGBbgjt3HjxgXPSlyJEiXcvffea20V5Y4lctQsuuh2PH7UTcXHJ0yYYG0AAACkFgI35Al+1E0JOLRWTDXMYsmfP78755xzgkfOnXLKKe6YY44JHqUvowLckZsv6p1ZN954YziBSjSta1OSEYlVdDueyOmSfpolAAAAUgsFuAHkOAr4AqmLn18ASA6MuAEAAABAkiNwAwAAAIAkR+AGAAAAAEmOwA0AAAAAkhyBGwAAAAAkOQI3AAAAAEhyBG4AAAAAkOQI3AAAAAAgyRG4AQAAAECSI3ADAAAAgCRH4AYAAAAASY7ADUhQq1atXOPGjcNbp06dgiPJJ/I+tV133XXBEQAAAKQiArdDXOfOnV2JEiUytX3xxRfBs/eIvsbbb78dHEnfzz//7EqWLBl+XsWKFYMj8Q0ePHifr7VgwYLgSOZk5TozZsxw06ZNc3PnznWff/65W7JkSXBkr23bttm127dv784880x31llnuUsuucQ9//zzduxALF682N1+++2uadOm7tRTT3XNmzd3/fr1c6tXrw7O2Ev3p23WrFl2z5999llwBAAAAKmIwO0Q9+eff7rNmze7v/76y1WqVCmh7YgjjgievYe/ht9GjhwZHEnfqFGj3MaNG/d5bkZeeeWV8HnaDxs2zNqZdSDXeeihh9ymTZsskIq0YsUKd/LJJ7vrr7/evfXWW+6bb76xIPfNN990//d//+dq1arlvv766+DszPnvf//rTjnlFDdgwAA3depU991337kPPvjA9erVy9WoUWO/77nuT9sVV1wR9AAAACCVEbjBVK9ePTxKk9Gmc2OpXbu27d955x33xx9/WDs9o0ePtr1GjxKhwGjOnDkuX758rn///tangGX37t3WTlR2XSeSRtMuvPBCu3aVKlXcvHnzLHDS9+Gjjz5yxx13nFu5cqVr3bq127FjR/CsxCjI7N27twuFQq5du3ZuzZo1Fmx+9dVX9r3T1+7SpYv79NNPg2cAAAAgryFwQ7bRWqpjjjnGbd++3b333ntBb2ya3jdz5kxrX3rppbbPyOuvv257TT+86qqrXMGCBd26devc5MmTrT9R2XWdSC+99JIFbfLGG2+4M844w9r58+d3TZo0CX9NnaPANlEazezZs6e169WrZ8FuuXLl7HHNmjVt1K1MmTJu165d7rbbbrN+AAAA5D0Ebsg2GhHq2LGjtTUNMj1jxoyx8zVKd+yxxwa96Xvttddsr1GrokWLumbNmtlj35+o7LpOpCOPPNJ1797d3XXXXTZdMlqjRo0sQJT58+fbPhHjxo2zoFIefPBBV6BAAWt7pUqVcnfccYe1FQhndSomAAAAkhuBG7KNpgX6wG3ChAnhNWSx+MDOn58RJQTxI1pt27bdZ6/1ZBqZSkR2XSda165d3aBBg9z//ve/oGd/hQsXtv3ff/9t+0j6Xmlq5c6dO4OePSZOnGh7BWhKShJL5Dq2d999N2gBAAAgLyFwQ7Zq0KCBO/74420dV7wg4ttvv7U1YNKhQwfbZ8SPhlWuXNmSfEibNm1snZqCrUQzWWbXdTJr4cKFFphJtWrVbB9JGTWPOuooN378+KBnj0WLFtn+vPPOs2mXsWjE8sQTT7T2l19+aXsAAADkLQRuyFYKLvwoWrzskj4piaZJKiNiRjQK5UfolJzD09ouBYqSyDTH7LpOZinpiV9/VqhQIQsUE7V8+XLbV61a1fbx+IQxTJUEAADImwjcYJTx8OKLL4673XrrrcGZGfOjaEqc8dtvv1k70vDhw21/2WWX2T4jus6GDRusHZ3IxAdgOmf9+vXWjie7rpMZCtr+9a9/uY8//tge33fffZbAJVqdOnVc3bp1XfHixYOePVMqfe23smXL2j6e0qVL2z6RbJ4AAABIPQRuML///rtlO4y3qXZYourXr+9OOOEEy3SodWORNCLkp/Ndfvnlts+IHwVTNkVlgoykQteiIGfEiBHWjie7rpOorVu3WnA6ZMgQe6y1aArcYpk+fbqVWlAGSk//Jp5fHxdPsWLFbK+vCQAAgLwnX0ip/XDI0miaAjNNW1TwEM9hhx1mmRNj8ddQgg7VHJN77rnHEnU0b97cTZo0yfqkX79+VjRaqe2VKET0nKuvvtpGm/w6MG/Lli02lVEjTzfddJN76qmngiN7nX766W7BggWWgt+vnYuWHdcpUaKEJREZOHCg69GjR9Abm0b2WrVqFa6tduedd1rhbn0fE6UgrEiRItZ+/PHH3S233GLtWFT0e/DgwbZW7vvvvw96nevWrZsbOnSojeYpMIxH/waRz8tuGnGcNm1a8GgPZdr0I5EAklefPn1c3759g0d78PMLAAcfgdshzgddGf1hn55YgZuupeLQSl//888/W+INUar8L774wg0YMCA8/TK9wE1Bh4IP0fVPOeUUa0fSqN4nn3xi7aVLl8ZcN5cd10k0cPvxxx+txMCyZctsTdvzzz9vBbKzQklT5JFHHgmn/Y9F9eiGDRu2379jooGbavBFB1Y5jT/8gNRA4AYAyYGpksgRCoyUMEPTJX0xbmWTVNCmYCTR9W2+cLUoAFGwF735YEsUvMSSXdfJiNbHKQhS0Hbccce5WbNmZTloE19sW8Fgen766Sfbq2xAVugPMH2Gk1Nb7969g68EAACArCBwQ47xSUrGjh1r+zfeeMP2+qQ2kaLba9ascVOmTLF2586dbUQs3qYRJVHiEwUKkbLrOhlRkKrXrAC1UqVKbs6cOTbqeCD8qJ8CwfT47JM1a9a0PQAAAPIWAjdkGwUukRQkiTI1Ktvhm2++aY87depk+4woSYgvVt29e3ebkhlv86NaWqc1c+ZMa3vZdZ2MaB2a1gkWLFjQjRs3zurZHSglehHdS3Rxbk+Boh+R09pBAAAA5D0Ebsg20anoNVqkpCfbt293L7zwgiUj0Zq36KLb8VLY+yyQ5cuXt4Qh6Ym8ZvQ0x+y6TnqUAVKJV+Tuu++2150dfNkCJVcZM2aMtaO9/PLLtj/88MMtIQoAAADyHgI35Ci/lu3++++3vbJMlixZ0tpe9EidLFmyJJxMQ8GUT9IRT4UKFcIp/hXg/PXXX9bOrutkRGvolLhE17/hhhuC3sQpaYumV2p0MtJpp53mzj33XGvfddddbu3atdb25s+fb4leRF9XCVQAAACQ9xC4wWRUgDty0zTARPlabX/++aftE63dFjnaFV0sOx4/WrZx40Y3YcIEa2fXdTLi1+8pcNP0RgVh8bZY2SFXr17tVq1aFbMOm+rAKemIEpAo6YvKKWiUTQlVGjZsaCOaVatW3S/rGwAAAPIOAjeYjApwR25aU5WoE0880UaNRKnx27Zta+30aD2akoNIrGLZ8UROc9T0yOy6TiJU/030NRWApbf98ssvdm6iqlSpYmvcVJxbpRU0JfPaa691gwYNcjt27LD7nTFjBqNtAAAAeRh13IAEZaYAd0754Ycf3OLFi91vv/3mSpcubclIoqeeRkq0jltOow4UkLr4+QWA5MCIG5BClGClZcuWlv2yRYsW6QZtAAAAyDsI3IBMmjRpkn0CramKyUr3py03R9kAAACQfQjcgEx6//33bdpQMgduuj9tixYtCnoAAACQygjcgASpuPbChQvDW6IZJ3ND5H1qGzVqVHAEAAAAqYjADUhQnTp1LB2/32rWrBkcST6R96mtevXqwREAAACkIgI3AAAAAEhyBG4AAAAAkOQI3AAAAAAgyRG4AQAAAECSI3ADAAAAgCRH4AYAAAAASY7ADUhQq1atXOPGjcNbp06dgiPJJ/I+tV133XXBEQAAAKQiArck1rlzZ1eiRIlMbV988UXw7D2ir/H2228HR9L3888/u5IlS4afV7FixeBIfIMHD97nay1YsCA4sr9QKOROPPFEOy+jAOg///lP+JoKQtLz5JNPhs9dunRp0Lu/zNyrN2PGDDdt2jQ3d+5c9/nnn7slS5YER2L74YcfXM+ePV23bt3c6tWrg96sW7x4sbv99ttd06ZN3amnnuqaN2/u+vXrF/Pauj9ts2bNsnv+7LPPgiMAAABIRQRuSezPP/90mzdvdn/99ZerVKlSQtsRRxwRPHsPfw2/jRw5MjiSvlGjRrmNGzfu89yMvPLKK+HztB82bJi1Y8mXL587/fTT7bwPPvjA/f3338GR/U2ZMiV8Dwqe9Jri+eijj+y8ggULuho1agS9+8vMvUZ76KGH3KZNmyyQimXFihXu3//+twWmDz/8sBs6dKj77bffgqNZ89///tcKaQ8YMMBNnTrVfffdd/Z969Wrl73O6H9X3Z+2K664IugBAABAKiNwSwHVq1cPj6BktOncWGrXrm37d955x/3xxx/WTs/o0aNtr5GdRChYmTNnjgVk/fv3tz4FE7t377Z2LBoxEgWIX331lbWjbdu2zc2fP9/aJ5xwgl1PXycWjeIpsJMLLrjA7iWWrNxrIjQCp0BJgdQLL7zgdu7cGRw5MAoye/fuba+vXbt2bs2aNRZs6numfx99j7p06eI+/fTT4BkAAADIawjcDhGaYnjMMce47du3u/feey/ojU1T72bOnGntSy+91PYZef31121/1llnuauuuspGvNatW+cmT55s/bGcf/75QcvZdL5YFIwoAFJA6s/3wVm0r7/+2v3yyy/Wbtasme1jycq9ZkSBYK1atdyIESPssaZ/vvzyy9Y+EBpd1HRLqVevngXU5cqVs8c1a9a0UbcyZcq4Xbt2udtuu836AQAAkPcQuB0iNFrTsWNHa2saZHrGjBlj52uU7thjjw160/faa6/ZvnXr1q5o0aLhwMn3x1KhQgVXrVo1a8cLxnwAqWmV2iTeuZHBX2RQGC0r95oRBYEKrG6++WYb0VMAl+hoZXrGjRtnQaU8+OCDrkCBAtb2SpUq5e644w5r63ul4BUAAAB5D4HbIULTI33gNmHChPD6rlh8YOfPz4iSdShYkbZt2+6zf+utt9Jdk6YpjfLxxx/bPtr06dNtr6BNgZHMnj3bRpii+YAuvYDzQO41PZp2qVE3JUfRWsPM0r+H1qRFT6+cOHGi7RWgKSlJLJHr2N59992gBQAAgLyEwO0Q0qBBA3f88ce7HTt2xP0D/9tvv3Xz5s2zdocOHWyfET9SVblyZZsuKG3atLFgRoFQepks/cjY+vXr3TfffGNtTwlLFKSJgjZdu1ChQnZNreeL9sknn9g+vWmSB3KvGYm3pi4Rytp51FFHufHjxwc9eyxatMj25513nsufP/aPq4JUJUKRL7/80vYAAADIWwjcDiH6w9+PosXLLumTkmjUKr2sjJ5GiPwInRJneFp3pUBR0puC2KRJk/D0v+h1bgpCNBJ12GGHudNOO83OO/PMM+2Yn0Lpff/995Z+X+JNkzzQe80Ny5cvt33VqlVtH49PSsNUSQAAgLyJwC0FrFy50l188cVxt1tvvTU4M2N+FE1JLWKlqB8+fLjtL7vsMttnRNfZsGGDtaMTmfjgSOdoRC2WI4880p199tnWjl675oMzpcH/xz/+Ye1zzjnH9tHn+seHH3543FpvB3qvOalOnTqubt26rnjx4kHPnhFHZYyUsmXL2j6e0qVL2z6RjKEAAABIPQRuKeD333+3NP7xNtX1SlT9+vUtrb7WiGlNVySN1vipdpdffrntM+JHqJTpUAk6IrVv3972CkB8tsVY/AhZ9IibX9/mAzvxgZs/5vnATSNnPsiLlh33mlP0ejT9UyOQnv7dvcKFCwet2IoVK2b7rVu32h4AAAB5C4FbCtC0RdU6i7dFBzEZ8aNuyh4ZyT/WejK/Zio9W7ZsscBRFPhEr8FSkg5NcRSfgj8WH7hpuuOPP/5obfHBmA/WxAdxGhXzSUbEj87FmyaZXfd6MEUWU9e6xPRkdDwjqhXXp0+fHNviJZ8BAABAgkJIWm3btg3pn6hu3bpBT+b5a3Tt2jXoCYUWLlxofQUKFAj99ttvQW8oVKdOHesfMGBA0BMKDRkyxPqKFy8e9OyV9se+HfPXHzhw4H5bw4YNw+csXbo0eOa+du3aFSpRooSdkxY0Wd/q1avDz0sL6KzPq1atmvXr3iQteA3ly5fP+ubNm2d90bLjXvU90DGdmwj/fdamdlb45z/yyCNBT2xdunSx86L/r+i1xuqP1qhRo/DXOlibviaA5Ne7d29+fgEgCTDidgjSmjEls9B0SV+MW9kkv/jiC8uMmOj6tsiRqaFDh9pau+jNZ3qUYcOGBa19KfmIT3Xvz/ejbcqCqYyLkc4991zb+1E2ZZ5M+7/sSpYsGR41i5Zd93qw+WLbkSORsfz000+2V9mArNCImL6HObWl/eEXfCUAAABkBYHbIcpPlxw7dqzt33jjDds3atQooaLba9ascVOmTLF2586dbb1cvE1JN0SJT/RHfCzNmze3/axZs2yvmmjig7RIPgOkD9x8kPfPf/4zZsr87L7Xg8ln9ly2bJnt4/HZJ2vWrGl7AAAA5C0EboeI6ILVCmBEWRSVifDNN9+0x506dbJ9RpTAQ4k8pHv37jGzXfqtS5cudp7WsEWn8ff82jQlR1FSDhXKlliBm+9TMhWd64M9X8w7Wnbf68GkZDKie4kuzu1ptNSPyPki5QAAAMhbCNwOEdFp4jWSo6Qn27dvdy+88IIFSqqTFl10O156eZ+hsXz58u6MM86wdjyR14w3BVEFsZXtUqNcPsOixArcqlWrZunvda4CGh/kxUtMkt33ejD5sgVKrhKdTMZ7+eWXba9SCK1atbI2AAAA8hYCt0OYX8t2//33217TFbVOLFL0SJ0sWbIkHFgp0NG6uPRUqFAhnH5fwcdff/1l7Wh+uuQzzzxj5yjFveqbxeIDumeffdZqnalAdfRaOMmpe81uJ598smW21AhoJK3Z86/1rrvucmvXrrW2N3/+fDdgwABr33DDDa5EiRLWBgAAQN5C4JYCMirAHbmNGzcueFbGfK22P//80/aJ1m6LHImKLmQdjx/JUvmCCRMmWDuaHzGbOHGi7ZX6P9aaNfHr3PzrjTfallP3mt1Wr17tVq1aFbMO25AhQyzpiBKQKLFMr169bJRNCVUaNmxoo6YKXPv27Rs8AwAAAHkNgVsKyKgAd+Sm9U6JUq02n4WxUKFCrm3bttZOj9aKKXGHxCpkHU/kFEQ/dTGaMksqw6RPCnLeeefZPpboKZSx1rfl5L0eTFWqVLEpoSrO/fPPP7t+/fq5a6+91g0aNMjqt+l+laCF0TYAAIC8K1/aH8m5nzoPSAEKjDZv3uwGDhzoevToEfQeXD/88INbvHix++2332ydn5KRRE9vjdStWzcrf6BsmX7KaG5QEe7oEUFlMKUwN5D8+PkFgOTAiBuQQpRgpWXLlpb9skWLFukGbQAAAMg7CNyATJo0aZJ9Aq2pislK96ctN0fZAAAAkH0I3IBMev/9923aUDIHbro/bYsWLQp6AAAAkMoI3IAEqb7cwoULw9vByjiZFZH3qW3UqFHBEQAAAKQiAjcgQaopp3T8fqtZs2ZwJPlE3qe26tWrB0cAAACQigjcAAAAACDJEbgBAAAAQJIjcAMAAACAJEfgBgAAAABJjsANAAAAAJIcgRsAAAAAJDkCNyCX7N692y1btsx9/PHH7u2333ZTp0513333nQuFQsEZAAAAwB4EbkgKX3zxhStRokSmts6dOwfP3kOPI48rGErEzz//7EqWLBl+XsWKFYMj8SnoqlKlSvg5HTt2DI5kbOnSpa5Lly72vBo1argmTZq4du3auaZNm7oTTzzRHXfcca5nz55uy5YtwTMyNnjw4PC9aFuwYEFwBAAAAHkBgRuSggKhzZs323bUUUe5SpUqZbgdc8wxwbP3+PPPP8PX0DZy5MjgSPpGjRrlNm7cuM9zMzJ58mT37bffWlvnv/XWW+6XX36xx+l55ZVX3Mknn+xee+01ly9fPtepUyf3v//9zz355JOud+/erkGDBm7t2rXu4Ycfdqeffrr76aefgmemT9f19639sGHDrA0AAIC8gcANSWfgwIHu888/z3DTebHUrl3b9u+88477448/rJ2e0aNH2/7UU0+1fSIUeIlG+fT1du3aFb5OPEuWLHH/+te/7NzmzZu777//3o0YMcLddddd7uabb3Z9+vRxM2bMcOPGjXOFChVy33zzjevatWvw7PhWrFjh5syZY4Fg//79rU9Bq4JhAAAA5A0EbshzGjdubKNx27dvd++9917QG9vq1avdzJkzrX3ppZfaPiMa2dMIm7Rp08a1bdvW2hmNcr3++usWtIlGyDQ9M5ZWrVq5oUOHurvvvttdeOGF9jrSo+vKWWed5a666ipXsGBBt27dOhsVBAAAQN5A4IY8R8k9/JozTYNMz5gxY+x8jZode+yxQW/6tHZOwVvRokUtSLz44outX6NeGv2KR8GUaDStbNmy1o5H96/pkrfffrudnx4/+te6dWu7p2bNmtlj3w8AAIDUR+CGPEfTI33gNmHChHTXrPnALjPJRXxA1KJFCxvd0lo0JRQRP/oVi9bliUbQNB0yO8ydOzccLPqRP7/XqKACTAAAAKQ+AjfkSUrycfzxx7sdO3a4d999N+jdl5KLzJs3z9odOnSwfUbWr1/vPvzwQ2trhEu0tswHS+mNcl155ZUW6InWxr344ot2fwfCf73KlSu7WrVqWVvTN3VPCtoSzawJAACA5Ebghjwpf/784VG0eNklfTIRTZNUWv5E+KQfBQoUsLVoXvv27W2v0S+NgsWi4Epr1w4//HBL9a9EJSopcP/991s5hMzauXNneMRQ5QS8MmXKWOAqTJcEAADIGwjckHQeeughWzcWb4sXGEXzo2gffPCB++2336wdafjw4ba/7LLLbJ8IHwip5lpkcpFGjRpZGQNJL0mJvpZG+TTNUn744Qf3wAMPWIkABZD/7//9v4RLAOh1bdiwwdrRiVV8IKdzNEoIAACA1EbghqTz6aefWir/eJvqnCWifv367oQTTrBMjj4LpPf111+7L7/80tqXX3657TOybNky99lnn1k7coRLNAKnKYqiUTCNhsVTt25dN3HiRLdy5Ur33//+10bd5KuvvrJMkhUqVLDRPP+14vFBZLly5SyjZCQ/Avj3339byQEAAACktnwhpdQDcpnqsvk6agpIWrZsae1YihQpYtMNo2k0ToGdap8p3b7cc889VuBaddMmTZpkfdKvXz/Xq1cvV69evfAInp5z9dVXu+LFi7tNmzZZXyRNadTomNaPKUNkdAFwJRzxwZvKEKT3GqLNnj3bRuoUZPmvremeGn1UnbdommqpKZHbtm1zN910k3vqqaeCI3spacqCBQvcGWecEV7LF49eu+rK5ZSPP/7YTZs2LXi0h0Yp1Q8guanGZN++fYNHe/DzCwAHH4EbkkJk4KbRMQVhmRUrcPPX1YjYzz//HJ7OqKmJWlc2YMAAd+utt1pfeoGbfkxOPPFEGyVTwKSAMJqCqHvvvdfamhIZb21derZu3eqef/55CyoVnImSofgU/57WynXr1s3aer2nnHKKtSPp+/jJJ59Ye+nSpemu41NZg+jAKqfxhx+QGgjcACBJKHADctvChQv1AYJtaQFH0Js5bdu2teenBTJBzx7Vq1e3/ldffdUer1ixwh7ny5cv9NNPP1mfDBkyxPrTAregZ6+ZM2fasUS3QoUKhTZv3hw8O/Miv17Lli2D3r3OP//8fb5eRltaQBk8M3f07t17v3tK+8MvOAogmfHzCwDJgTVuyPN8kpKxY8fa/o033rC9PjFOtOi2TzhyxBFH2HU0mhVr09RGUa22N99809pZcc4557jTTjvN2lqPF2nNmjVuypQp1lZZgVj34TetpxMlYkn7ebc2AAAAUg+BG/IcJSOJpOBGlGFRxbl9QNWpUyfbZ0S11nzpAE1ZvOSSS8IZLqO322+/PTwd80BT8RcqVMj2hQsXtr2ndXBKOiLdu3ePeR9+69Kli52n9WszZ860NgAAAFIPgRvyHAVnkbS2S6n2NQr2wgsvWDISrXmLLrod/TxPGSB9OQGfrTEeJU3xGSc/+uijcGp/fW1lkLzmmmss5X9GvvnmG8uuKRdccIHtPR8Qli9f3hKPpCfyNaZXpgAAAADJjcANhwRfq02ZIUVZJiPrsEn0SJ33+uuv217BXnQZgFh8sKSpib5WnEbPlixZ4oYMGWIp/5XVMt7XU5mCCy+80I6XLl16n0QouoYSroi+jjJcpkelBXypgDFjxri//vrL2gAAAEgtBG5IOhkV4PabnwKZCF+r7c8//7R9orXbNm/e7N59911rRxfdjuef//xnzOmSgwcPtrVroqyR1apVs6BMgaHWzT355JNWTkDr0r799ltXqVIlW8um4M2LHDWLLrodjw8kN27c6CZMmGBtAAAApBYCNySdjApw+238+PHBMzKmVP4+2YdGv9q2bWvtjCig8qNUiYy2SeR0ycWLF1vZAVGZAaXcf+KJJ1zVqlWttIBqzF155ZUWXN1yyy1WC+64446zenF6Xp06dey5onVtfgQvVtHteCKnSx7oujsAAADkDuq4Ablk1apV7quvvrL6cnL00UdbQJdevbVURR0oIHXx8wsAyYERNyCXVKxY0V100UVWSFtb69at82TQBgAAgANH4AYAAAAASY7ADQAAAACSHIEbAAAAACQ5AjcAAAAASHIEbgAAAACQ5AjcAAAAACDJEbgBAAAAQJIjcAMAAACAJEfgBgAAAABJjsANAAAAAJIcgRsAAAAAJDkCN+RJM2bMcCVKlMjS1rNnz+Aqe3Tu3DnmeeltX3zxRfDsPSKvUbJkSff1118HR2J7+OGH7dyKFSsGPekbPHhw+PraFixYEBwBAABAXkDghjypUKFCrlKlSvttxx57rNu8ebNtRYoUiXmOAqtIf/75p53/119/xTw/1nbEEUcEz97DX0Pbxo0b3b333hsciW379u3h8xPxyiuvhM/VftiwYdYGAABA3kDghjzpjDPOcJ9//vl+24QJE4IznLvzzjtjnqP+WKpXrx7z/Fibzo3l6KOPtv1bb73lZs+ebe0DtWLFCjdnzhyXL18+179/f+sbOXKk2717t7UBAACQ+gjcgIPooosucnXr1rX2PffcY/sD9frrr9v+rLPOcldddZUrWLCgW7dunZs8ebL1AwAAIPURuAEHUf78+V2fPn2s/cknn7jx48dbO1rx4sWDVsZee+0127du3doVLVrUNWvWzB77fgAAAKQ+AjfgINq0aZNr27atO+WUU+yxEqH8/fff1o6kaY+JmDt3rk2VFF03cq/pmFpbBwAAgNRH4AYcZArKHnroIWsr++SBjIz551auXNnVqlXL2m3atLGvoaDt7bfftj4AAACkNgI3IBe0aNHC1qTJ/fffbxkrM2vnzp1u1KhR1m7Xrp3tpUyZMq5BgwbWZrokAABA3kDgBiRo5cqV7uKLL4673XrrrcGZienXr5/tV69e7Z555hlrZ8YHH3zgNmzYYO1LL73U9p4P5HTO+vXrrQ0AAIDUReAGJOj3339377zzTtxt6tSpwZmJOf/8813Tpk2t/eCDDyZcs83zo2nlypULj9557du3t73Wz40YMcLaAAAASF35QmmCNpDnff/997YeTAYOHOh69Ohh7fRoNE2BWe3atd306dOD3v0ddthh7sgjjwwe7ctfQ4lDItedzZs3z9WrV8/avXr1cn379rX2oEGDbARP2SWV0CTali1bbErktm3b3E033eSeeuqp4Mhep59+uluwYIHVtNPXSY8KeOt7k1M+/vhjN23atODRHo0aNbJ+AMlNmXD97yaPn18AOPgI3HBIOZDATfXXVFw7K/w1Lrzwwn2KgEuHDh3c2LFjXZEiRez+SpUqlWHgNnToUNetWzdrd+3aNZylMpKySqrkgCxdutTVqFHD2rE0btx4v8Aqp/GHH5AaCNwAIDkwVRI4iLZu3Rq09urfv7+N1ikL5KOPPmp9epweX3RbFMQpyIvefNAmw4YNC1qx6Q8wfYaTU1vv3r2DrwQAAICsIHADclnVqlXdddddZ21NeVTCkXhTLmXNmjVuypQp1u7cubONrMXbNEoow4cPtwAKAAAAqYnADUgCGpEqXLiwjbopUUl6lGzEF+3u3r27TcOMt3Xp0sXO0xTMmTNnWhsAAACph8ANSALKDKnpjTJ48GC3du1aa8fis0mWL1/eEo+kR+vnvIymSwIAACB5EbgBSeLOO+90JUuWdNu3b3fPPfdc0LuvJUuWhBOkKCjLly+fteOpUKFCuFTAmDFjslToGwAAALmPwA1IUEYFuCO3cePGBc9KXIkSJdy9995rbRXljiVy1Cy66HY8ftRt48aN+2W0BAAAQGogcAMSlFEB7sjt22+/DZ6VOTfeeKNNgYxF69qUZERiFd2OJ3K6pJ9mCQAAgNRC4IZDSqVKlcIp6hOp4SYqmO2fk+gWfW1/jYzqHilBiUbb/HUia7jlz5/frVq1yvqVWVKPE6Hpkv56b7zxRtALAACAVELgBgAAAABJjsANAAAAAJIcgRsAAAAAJDkCNwAAAABIcgRuAAAAAJDkCNwAAAAAIMkRuAEAAABAkiNwAwAAAIAkR+AGAAAAAEmOwA0AAAAAkhyBGwAAAAAkOQI3IEGtWrVyjRs3Dm+dOnUKjiSfyPvUdt111wVHAAAAkIryhdIEbSDbKMiZMWNG8ChzVq1a5YoXLx482tfgwYPd3XffHTxy7qOPPnKnnXZa8ChxWblOiRIl3ObNm12hQoVcwYIFXYUKFdzixYvt2CuvvOK+//57a2dEAV+NGjWCR4nT1xo6dKhbuHCh27hxozvmmGPcueee67p27Wr3Ekn3Klu3bnU7d+50devWdZ9//rn15YY+ffq4vn37Bo/2aNSokfv444+DRwCSFT+/AJAcCNyQIzTC89lnnwWP9lq9erUFHfnz53d16tQJevc1ffp0d+SRRwaP9nX22We7OXPmWGCnIKpHjx5u4MCBwdHEZeU6PnDTeTo/kka1pk2bFjxKn85r2LBh8Cgx//3vf+2PJ//jWqxYMff7779bu3Dhwu7ll1+OOQLYrVs3C/YI3ABkFT+/AJAcmCqJHPHiiy9aoBC9tWnTxo4rMIt1XFu8oG3FihUWbOXLl8/179/f+kaOHOl2795t7URl13Ui3XzzzRbQxdtat25t55UuXdo1aNDA2onSaF7v3r0taGvXrp1bs2aNBZBfffWVO/XUU922bdtcly5d3Keffho8AwAAAHkNgRtSxuuvv277s846y1111VU2XXHdunVu8uTJ1p+o7LpOpEsvvdRG4eJt27dvt/MUwB122GHWTsSff/7pevbsae169eq50aNHu3LlytnjmjVrug8++MCVKVPG7dq1y912223WDwAAgLyHwA0p47XXXrO9gp+iRYu6Zs2a2WPfn6jsuk6i1q9f76ZMmWJtBXiZMW7cOAsq5cEHH3QFChSwtleqVCl3xx13WHvmzJnu66+/tjYAAADyFgI3pIS5c+faFEdp27btPvu33nrLRqYSkV3XyQyNkv3999+2Lq1p06ZB77409XHTpk2WSCTSxIkTba8ALd5zr7jiiqDl3Lvvvhu0AAAAkJcQuCEl+NGwypUru1q1allb6+W0Tk3B1ttvv219Gcmu62TG8OHDba8RPk3LjKVixYruqKOOcuPHjw969li0aJHtzzvvPEvoEsuxxx7rTjzxRGt/+eWXtgcAAEDeQuCGpKdRqFGjRllbyTk8re3yiT4SmeaYXdfJDJUIUCIUifyaiVq+fLntq1atavt4qlevbnumSgIAAORNBG5IekrAsWHDBmtHrxHzwZDO0Vqy9GTXdTJD2SpFtd8uuugia8ei0ghK2R9Zv07TK5UxUsqWLWv7eJStUv744w/bAwAAIG8hcEPS86NgyqaoTJCR2rdvb3sFOSNGjLB2PNl1nczwGSwVtKneWjyqXadSCE2aNAl6XLhOm6T3XNH6OVHBbQAAAOQ9FODGQeULQmtkSck4MrJlyxabyqiRp5tuusk99dRTwZG9Tj/9dLdgwQJ3xhlnuHnz5gW9+8qO66RXgDsW1VmrXbu2tYcNG+auvPJKaydKQViRIkWs/fjjj7tbbrnF2rFcf/31bvDgwbZWTtMzvUQLcKtWXOTzspsK9UYXKKeAL5AaKMANAMmBwA0HVWYDN52r50jXrl3dKaecYu1Iygb5ySefWHvp0qWuRo0a1o6UHdfJbOB23333WYHvI444wv3888/7TINMlJKmyCOPPBJO+x+L6tEpOIwO0BIN3Bo3brxfYJXT+MMPSA0EbgCQHJgqiaTmpxqKApBbb711v80HW6LgJZbsuk5m+PVtmv6YlaBNfLHtH3/80fbx/PTTT7ZX2YCs0B9g+gwnp7bevXsHXwkAAABZQeCGpLVmzZpw4erOnTvbiFi8TSNKotT7ChQiZdd1MkOZJL/77jtrd+jQwfZZ4Uf9li1bZvt4fPbJmjVr2h4AAAB5C4EbkpaShChZiHTv3t1dfPHFcbcuXbrYeVqnNXPmTGt72XWdzPAJTlR7TfXbsqp+/fq2171EF+f2vv322/CIXL169WwPAACAvIXADUnLZ4EsX768JQxJT+SoVvQ0x+y6TqJ2797txowZY+2GDRu6Y445xtpZ4csWKLmKv2a0l19+2faHH364a9WqlbUBAACQtxC4ISktWbIknExDwZRP0hFPhQoVwin+FeD89ddf1s6u62SG1outXbvW2r7MQEZOPvlkV6lSJasjF+m0005z5557rrXvuuuu8HW9+fPnuwEDBlj7hhtusAQqAAAAyHsI3JCUIke7ootlx+NHyzZu3OgmTJhg7ey6TmZE1oHzhb0zsnr1ardq1aqYddiGDBliSUeUgETZMHv16mWjbEqoohG97du3u6pVq+6X9Q0AAAB5B4Ebko7Woyk5iMQqlh1P5DRHTY/Mrutkhkbo3njjDWvr6x1//PHWPhBVqlSxNW7KTqmyAv369XPXXnutGzRokNuxY4fd74wZMxhtAwAAyMMI3HBQqdCzsjWmV8NNCT00+qTzlBFSjxOhaY56jjYFT9l1ncwoWLCgjdTpucosmSh9P/QcJUiJpVq1au6jjz6ykbn33nvPvfrqq27ixIlu/fr1bvTo0Qe0jg4AAADJj8ANSCFKsNKyZUvLftmiRQtXsmTJ4AgAAADyMgI3IJMmTZrk+vTpY1MVk5XuT5tPzAIAAIDURuAGZNL7779viUCSOXDT/WlbtGhR0AMAAIBURuAGJGj69Olu4cKF4S0rGScPlsj71DZq1KjgCAAAAFIRgRuQoDp16lg6fr/VrFkzOJJ8Iu9TW/Xq1YMjAAAASEUEbgAAAACQ5AjcAAAAACDJEbgBAAAAQJIjcAMAAACAJEfgBgAAAABJjsANAAAAAJIcgRsOKWPHjnWNGzfeZ5s0aVJwNO+Ifo3XXXddcAQAAACpiMAN+5kxY4YrUaJElraePXsGV3Fu8+bNMc/RVqZMGVejRg3XpEkTd++997qPP/7YhUKh4JmJGTx48D7XXLBgQXAkvh9//NFNmzbNts8//9y23377LTi619SpUy3YOfvss60O2oUXXuj69u3r1qxZE5yRsR9++MG+H926dXOrV68OerNu8eLF7vbbb3dNmzZ1p556qmvevLnr169fzGv71zZr1ix7rZ999llwBAAAAKmIwA37KVSokKtUqdJ+27HHHmvBmLYiRYrEPKdkyZLBVZwFYv786GseddRRbv369RawPfTQQxbAnX766W7+/PnBszP2yiuv2LVF+2HDhlk7EcWLF3ebNm2y7Yorrgh699zz//3f/1lw9NJLL9n9KDDSqFyfPn0s2JwyZUpwdmwrVqxw//73v92JJ57oHn74YTd06NCYwWFm/Pe//7UAcsCAARZUfvfdd+6DDz5wvXr1snsaOXJkcOYesV4bAAAAUheBG/ZzxhlnhEdsIrcJEyYEZzh35513xjxH/bFcf/31+5z39ddfu40bN7qvvvrKRtwU2C1cuNCdd955GQZGouBozpw5Ll++fK5///7Wp+Bl9+7d1s6q5557zj3//PPW1nV///13C7pWrlzpzjrrLLdlyxbXsWNH64+2ZMkSC5QUSL3wwgtu586dwZEDowC1d+/eFlS2a9fORv0UqOp7p5G3bdu2uS5durhPP/00eAYAAADyGgI35KqaNWu6Bx980M2ePdtG6xSEKDDSaFx6Xn/9ddsrmLrqqqtcwYIF3bp169zkyZOtP6ueeuop27do0cKmOSqgFI0SDhkyxNoK5KLXxSmIrFWrlhsxYoQ97tSpk3v55ZetfSD+/PPP8PTTevXqudGjR7ty5crZY33vNOqmaae7du1yt912m/UDAAAg7yFwQ1LQNECNUokCo8cee8za8bz22mu2b926tStatKhr1qyZPfb9WfW///3Pvfrqq7Z2LNpJJ50UDuS0fi2SAkgFVjfffLONBiqA02jYgRo3bpwFpKIAt0CBAtb2SpUq5e644w5rz5w500YyAQAAkPcQuCFpaBpglSpVrD18+HDbxzJ37lwLjqRt27b77N966y0bpcqqVq1a2bRDTReNtn37dhvZkmLFitne05RNjbo9+eSTNjqXWZr6qDVp0dMrJ06caHsFaFp3F0vkOrZ33303aAEAACAvIXBD0lDwc8kll1j7p59+ipuJ0Y+qVa5c2aYnSps2bez5Ctrefvtt68tuWkPnA7dGjRrZPpK+flZVrFjREraMHz8+6Nlj0aJFttfav/z5Y/+4KmmMEqHIl19+aXsAAADkLQRuSCqR0wuV/j6aRqRGjRplbY3QeVrn1aBBA2sf6HTJaEp4ovVqN954oz2+4YYbXLVq1ayd05YvX277qlWr2j6e6tWr256pkgAAAHkTgRuSigIwT1MHoykZx4YNG6x96aWX2t7zgZzOySi5SSK2bt1qSUqOOeYYd+2119paOpUu0HTI7FanTh1Xt25dK1Pg/f3335asRcqWLWv7eEqXLm37P/74w/YAAADIWwjckFRUSNuLFYT40TRlVlRCkEjt27e3vQIen93xQOzYscO9//77lixF0xQVXB199NF2/ew2ffp0K5OgenZeZMmBwoULB63Y/Jo7BZsAAADIe/KFVBwKSMD3339v68pk4MCBrkePHtaORyNmWrclqkOmAtYZmTZtmmvcuLG1Vbhaqf491VDTiJxGoW666aZw6v5IKuK9YMECSy4yb968oHevQYMGuVtvvTVcgDs9CtB0DdVne/PNN917771n/eecc46N6qkIeXoUiPmpn6pRp8yZmaEgzH+Nxx9/3N1yyy3WjkV18gYPHmxr5fTv5HXr1s2+jxrN0/3Eo1pxkc/Lbiq0rn/bSFonqH4AyU2/u/v27Rs82oOfXwDIBQrcgESsXLlSQb5taYFb0Bvfxo0bw+enBW5Bb/pGjx4dfs64ceOC3j3Sgovwsa5du9o9RG8NGzYMn7N06dLgmXvpHB1LC9yCnsSNHTs2lD9/fnt+WtAa9MaXFqyF70XtrPDPf+SRR4Ke2Lp06WLnpQVoQc8e+j7F6o+W9kdY+GsdrE1fE0Dy0+9vfn4BIPcxVRJJJXJUSAWmI/mi26JRJI2cRW+ffPJJcIZzw4YNC1rZQxkvL7vsMmur1ltOTJmM5ott//jjj7aPR1k4RWUDskKfnKf9PsixTSOuAAAAyDoCNyQVX4dMUyJPOOEEa8uaNWvclClTrN25c2er1xZv07RAUS04BQ3Zya9B07o3nyQlJ9WoUcP2y5Yts308PvtkdLALAACAvIHADUlDiUB8HbKOHTva3lOyET/C1b17d3fxxRfH3VRAW7Rma+bMmdZOhGq0KRul1rT99ddfQe++IpOEHIwRt/r169teryO6OLf37bffhkfk6tWrZ3sAAADkLQRuSAorVqxwV199tbWVdv+uu+6ytuezSZYvX94Sj6SnQ4cOQStz0yUnTZpkafdV1DteEW8lPhElDcnqtMTM8CUPlJhlzJgx1o6mGnNy+OGHu1atWlkbAA5Fei9Rll4lk5o9e7Zbt25dcOTgGDt2rCXYitz03pLXKKFV9OucMWNGcBRATiFwQ67SlENletRI0dq1ay3t/pAhQ9zxxx8fnOFsBMyvfVNQli9fPmvHU6FChXCpAAU78UbPop1//vlWs00eeOCBfdLxi4pbv/jii9Zu06aNBUrZ5eSTT3aVKlWybJWRTjvtNHfuuedaW8GsvkeR5s+f7wYMGGBtFQaPLKcAAIcCzTpQZl198Fa1alXXsGFD17p1a8sArHXCJ510kuvXr5/bvHlz8IzE7N6921WpUsV+r2qLngkSi2Y/KIOuNr1vadP7XLSpU6e66667zp199tmWcfjCCy+0zJ1aFpAozfp444037EPPJ554IujNusWLF7vbb7/dNW3a1DIiN2/e3L5vq1evDs7YSwGxXps+zPSv95dffgmOAsgxISBBB5JVsnr16qG2bduGtyZNmlhfWhAWPict4Aq9//77wbP3uueee8LnzJo1K+hN36OPPhp+zptvvhn0ZpxVMu1NMJw5snLlypZN7bnnngvdcsstoSOPPNL6jz766NB3330XPCO+zGSV1P3ovLfeeivo2eubb74JlSpVyo6nBZah+++/P/TSSy9ZZst//OMf1p/2x4p9v6MlmlUyp5GVDkhdyfzz+8wzz4QKFixo91SgQIFQWgAUSguA7Hf9XXfdFTr99NPD93zssceGpk+fHjwzY5MmTbLn+d/Puv6GDRuCo7Fl9B6TFmyF/v3vf4fv6fDDDw8dddRR4cd6n5k8eXJwdmw7d+4MDR06NJQWkIafp/fVA6HvWeT7cbFixcLtwoULh0aMGBGcua/IvwtivX8ByF4EbkjYgQRusTa9MVSrVi3UsWPH0GuvvRbatm1b8My9du/ebQGdzi9Xrpw9TsSqVavCX6d9+/ZBb2LlAPRmXatWrfDzI7cLLrggtHz58uDM9GVX4CbLli2zYNdfz2/6Q6JDhw6h9evXB2fui8ANwIFK1p/fJ554Yp/70YdcsXz44Yeh8uXL23kKQubMmRMcSd+VV15pz7nxxhtDtWvXtvbTTz8dHI0to/cYBZo6rq1///7h9z29v5511lnWX7JkydDmzZutP9Jff/0VevbZZ+1DRX8Nvx1I4DZkyJDwddq1axdas2aN9X/11VehU0891fr1XjN37lzrj0TgBhxcBG44pCQSuHkK0FRLTp80Kphbt25dcCT3rF69OvTee++FXn311dDEiRNDv/76a3AkNgI3AAcqGX9+Fy9ebMGE7uW8886zoCY9+jCvdOnSdn6lSpVCW7duDY7E9scff4SKFCli5+v3/3333Wft+vXrB2fEltF7TM2aNe14ixYtgp69lixZYse0jRo1KujdS8/xx/UannzySfswUY+zGrjpdZYtW9auUa9ePRvNi6QRxjJlytjxBg0aBL17EbgBBxdr3IA4tFZCyT46depkc/1VoiC3KTlLy5YtLXNm2pu4K1myZHAEAA4dacGkZQI+7LDDrK7mEUccERyJTWuf/XpgZRx+4YUXrB2PElT9+eeflixLiTeUsVjmzJljCVCy6n//+5/dr9aORdNavEKFCln7hx9+sH2ka665xtY9jxw50n3zzTfu5ptv3ifTcVaMGzcunMDlwQcfdGnBsLU9JeG64447rK3sxlrrDSD3ELjhkLR9+3bXp08f2yKLfucVefm1ATi0KdnHO++8Y+1LLrnEEjslQh/CHXfccdb22Xjj8ZmM9QFZwYIF3emnnx5+7uuvv277rNCHgfrgLVZ2ZL0vKRiVYsWK2T6SsgwrIdVll122X4CVESXp2rRpk2UojjRx4kTbK0BTUpJYrrjiiqC1t9YqgNxB4IZDkt7ElMFLW14MbvxrW7RoUdADAHmDMjL6OprK8JsoBTvK3ij63fjrr79aO5rqeX744YfWVnZKUTbjtm3bWtsHddlNI2k+cGvUqJHtI2WUUTk9zz77rDvqqKPceeedF/Ts4d8j1K+szrEce+yx7sQTT7S2r7UKIHcQuOGQ0rlzZ7dw4cJ9tsy88aeK6Nc4atSo4AgApLbI4OHMM88MWonxpWIkXhCiAEqlABToRdbGbN++ve01VXLu3LnWzg76WhoBvPHGG+2xSrtUq1bN2jlt+fLlttfSgPRUr17d9kyVBHIXgRsOKaVLl7aaOZFbXlwnFv0a/ZsuAKS6yFpnGg3KDNV68+LVTPMjapo6GPn+oFEwjVrJsGHDbH8gtm7dalMxVT/02muvtfV0Dz30kHvyySeDM7KP3vvq1q27z3uBRi23bdtm7cjvSyx6vvzxxx+2B5A7CNwAAEDK0FR3T8FOZkSeH3kdb9myZe6zzz6zdrt27WzvaQTOz9DQLIadO3daO6t27Njh3n//fVuzp2mKderUcUcffXR4Gmh20mwTLQuInH3x+++/By2XYZITv+ZOwSaA3JNPqSWDNgDkCCVK0Zq7SPr0+uOPPw4eAUhWsX5+K1as6Lp16xY8yhn6urH861//ci+++KK1lfnxH//4h7UTMWHCBMvMK8OHD3eXX365tb3777/fPfDAA7aeTNkWNRoWSVkYffD23nvvha/lDRo0yN16662uePHilgwkPQrQ5s2b55YsWeLefPNNu56cc8457oMPPnBFihSxx+lRtkslatH6O2XCzAwFYf5rPP744+6WW26xdizXX3+9Gzx4sP27Kyunp3blypWt/dZbb4WzbwLIIVYUAAByEHXcgNQV6+f3YGzxpAVX4XNURywzIotNT5kyJejdIy2QChe3Vu0y1WSL3lQ02z//sssuC565l87RsURqhUYbO3ZsKH/+/Pb8Hj16BL3pU/02nZ/VOm7+tTzyyCNBT2xdunSx86JrglLHDTi4mCoJAAAyRSPmaX9D5OgWT82aNYOWc59++mnQSoxGuLwaNWoErT1mz57t0gIRayuzpEbOord7773XjotGuiKnGx4olTZQqn9RrbecmDIZrVy5crb/8ccfbR/PTz/9ZHuVDQCQewjcAABAylDQ6FPj+zpkiVAgNGnSJGsra2N0YhOfcETFvMeOHWtT/2JtSiAiqrumKY7ZqUmTJrbXurcNGzZYOyf54FVr+9Ljs09GBs0ADj4CNwAAkDI0StSsWTNrjxgxwkbHEqH1ad999521VQQ7khKFjB492tq6tka/tF4r1nb77beHs0tmpqabarTpXrWmLVZiFIlMEnIwRtzq169v+5kzZ8ZNtvLtt9+GR+Tq1atnewC5g8ANhwy9+UyfPt0WgOtNavPmzcERAEAqUeISjbopALruuuusFlp6NHrlk28oxf/NN99sbU8jdxrlEl+vLZ7DDz88nHHyo48+Ck8jzIhG+5R2v1atWnETiSxYsMD2ShpyMKYlXnrppbbfsmWLGzNmjLWjqcac6HVH1rUDcPARuCFp6A2hRIkSWdriBWH6dPPOO+90FSpUcFWqVHENGzZ0rVu3dueee659YqppKUrHnB6lUY71NdPbvvjii+DZe0ReQ380ZFTE9OGHH7ZzlcErEcr25a+vzb/5A0BepMyL//nPf6ytD+M6dOgQd2qhfh9reuXq1ast7b4CEf2ejPT666/bXin/o8sAxKKvJ1qLp+yUiTj//PPDWSqVuTJ6fZzeF3y2TGWuVKCUXfSaK1Wq5C666KKgZ4/TTjvN3g/lrrvucmvXrrW2N3/+fDdgwABrqzB49PcNwMFF4IakoU8i9cYSvemNVoGZPhGMdVybzommtQgqNvroo4/aG7rSJevNcuDAga579+7uuOOOs3T0KoCqN6R4n9gq3bS+vj7ZjfW1Y21aIxHJX0Pbxo0b91ngHovWTvjzE/HKK6+Ez9U+O4rDAkAyU4mCXr162cibft8rLf0111zjnn/+eZv2qBT3CoBUeHrp0qX2nKeeesreCyLpd+a7775r7eii2/H885//zPR0yYIFC7pnn33W3q++/PJLd8opp9jIoT5403uSpiHqfU613B588MHgWdlDQeKqVatiFh0fMmSIje5p5FD3pO+pAj0lY9GHnXo/qlq16n4lIQDkghCQ5Lp27WqphjOTXnnMmDHhtMoXXXRRKO0NKziyV9qbUej6668PpzK+8847gyP78umWo9MgZ4a/RtobcvjrzZo1Kzi6P59+O5HX/M0339i5aX+8hJ5++mlrpwXBoV27dgVn5D7KAQCpK9l/fufOnRtKC9BCaYHRfvep7aSTTgpVq1bN2rVq1QqtXr06eOYeL774YvjctMAq6M1YWpAYft7ixYutL5FyAJMmTbL78M+N3C644ILQ8uXLgzMz5t9btE+Pv69472PLli0LNWnSZJ970VagQIFQhw4dQuvXrw/O3BflAICDixE35DmaDnP11Vfbwu7mzZvbJ6maKhlNn34+88wz4QKqGplbtGiRtXOKpqno01+55557bH+g/BSfs846y1111VX2ulQ4dvLkydYPAHmZRqqUml8Fr7WOeeTIkTaKNGrUKJt+qGQgM2bMcGeeeab76quvLCFH5O/6a6+9NlyCQIWmE/XSSy+Fn1enTp2gN2N6X9KImzI1KmGKEqxo/Zt+b2vqvka3EqW1cvr6GRXf7tGjh533+eefBz37UpZNrdfT+6emnqocgdb9abmBRi+jC5EDyB0EbshzNJ3jjz/+sPUBemM97LDDgiP70xSbxx57zB155JEWUH322WfBkZyhKTKaGiOffPKJGz9+vLWjFS9ePGhlzE/T0dq9okWLhrOtZSbbGQCkukKFCtl6LdVC69atm+vYsaNNl5fSpUu7KVOm2FRITRfUFEAFeblJAZrWdnfq1MmCuTJlygRHck/58uXtw0xl3dQygkSmjQI4eAjckKcoYPMLxbV4XOvYMqI3ds3/X7hwoX3ympP0ibDWV2gdgfTs2TNmymdfoygjc+fOdStWrLC2rhu515oPra0DADj7gE6jSMoaqUAuMyNbmaV1YfqQTlu8Ua5UpvXhem2DBg0KegAcDARuyFOmTZtmb5iSrGmLFZT5Aq7KdnYgI2P+uVqUrxTTosX4+hoK2jKaPgMAhxIljtLUv1mzZllCrJyiZFaa/aEtrwZuem1KAAPg4CFwQ56iUTPvjDPOCFrJR1NQtCZN7r///rjFWNOjYqlawyGR6as13aZBgwbWZrokAOxL0+dzas2WSr/ofShy04dpeY3WAka/TpXXAZCzCNyQp0SmOs7uT1NXrlzpLr744ribUidnRr9+/WyvxeBKkpJZH3zwQbhukS+i6vlATudocTkAIOdpCqamwkdueXGdmN5fo19nZtZmA8gaAjfkKVu3bg1ae9YzZCetg1Pmsnjb1KlTgzMTo2KsWigvqtmTaM02z4+mlStXLjx652kNh2j9nDKWAQAAILXlCyk/LJDElB1s6NCh9mmeknukR4W0n3vuOWsrUUmRIkWsfSA0mqbArHbt2ulmIdP0m3jBor+GEodErjubN2+epbIWFT31BU614FsjePFes4q0akrktm3b3E033WRFZaOdfvrpbsGCBTZlVF8nPSrg/f333wePsp/WQ2j9YaRGjRpZP4DkpiQU/neTx88vABx8BG5IepkJ3PTHhU+3r6mNlSpVsvaB8EGXygVkdZG5v8aFF17oJkyYEPTuoeyXY8eOtSBTwVOpUqUyDNz0/dD3Rbp27WrTVKIpq6RKDsjSpUtdjRo1rB1L48aN9wuschp/+AGpgcANAJIDUyWRp9SsWTNoORttSjaRUzm9/v3722idskCqCLikV3tOfNFtURCnIC9680GbDBs2LGjFpj/A9BlOTm29e/cOvhIAAACygsANeYpGjlTkWiZPnmz7RCgj1rfffhuzplpOUy2h6667ztqa8qiEI+mtz1MCFhWSFWUw08havE2jhKLadgqgAAAAkJoI3JCnKKPXRRddZG2NMmU0tVKUdESJQqpUqWLrwnKDRqQKFy5so25KVJIeJRvxAWb37t1tGma8rUuXLnaepmDOnDnT2gAAAEg9BG7Ic7QWQ6NuSk7So0ePoDe+2267zf3666/Wzq0pfcoMqemNMnjwYLd27Vprx+KzSZYvXz7DWnVaP+dlNF0SAJB7tNZZs0Yit0mTJgVHk4sSWkXf64wZM4KjAHIKgRvynNNOO8098MAD1tb6L2WaVBAXbceOHe6WW25xL730kj1WkKdRqtxy5513Wr2f7du3hzNjRluyZEk4QYqCsnz58lk7ngoVKoRLBYwZMyZLhb4BINnt3r3bZk2UKFHCto4dOwZHYvv6668tEZTOVbbfROg9o06dOvack046yWZIxJPZ+5Eff/zRkkRp0+95bb/99psd06wJJYlJZIv3/pGRxYsXu9tvv93K1Jx66qmuefPmVm9UtUajrVu3zu5Pa8n9Pf/yyy/BUQA5JgQkua5du2pxVqh48eJBT2LS3nBC+fPnt+eWLl069P/9f/9faMiQIaGRI0eG0t7cQieccIId03bPPfeE/v777+CZ+0p7U7dzihUrZu1EtnfffTd49h7q0zUaNWoU9MT26KOPhu9JW/Rr1n36Y7NmzQp60xd5zTfffDPoPbh69+4dvge/ZfS9AJAcUuHnd9KkSXZf+p2pfYECBUIbNmwIjsbWo0eP8OuZOHFi0BvfI488Ej7/9ddfD3pjy8r9DBw4MPycaFOnTg1/7Yy2Jk2aBM9KXN++fUP58uULX0Pvd75duHDh0IgRI4Iz97Vy5crweW+99VbQCyCnELgh6WU1cJOFCxeG2rdvHypYsGD4zSVya9asWWjGjBnB2bH5oCszm96AIyUauG3dujVUvnz58HUiX/Pu3btDFSpUsP5y5crZ40SsWrUqfD19L3IDgRuQulLh5/fKK6+0+7rxxhtDtWvXtvbTTz8dHI3t999/Dx133HF2rp6zc+fO4Mj+fv7553AQ1rRp06A3vqzcT3qB2w8//GDH420DBgwIHXHEEfb8J554InhWYvSBpp6nrV27dqE1a9ZY/1dffRU69dRTrV+B59y5c60/EoEbcHARuOGQoIBo2rRp9qmh3qTGjx9vb8Q4OAjcgNSV7D+/f/zxR6hIkSJ2Xxrpuu+++6xdv3794Iz4xowZE35NgwcPDnr3pwBM5yg4Wrp0adAbW1bvRwGYzsvKh5QzZ86052rTh3WJ0r2WLVvWnlevXr39gleNEpYpU8aON2jQIOjdi8ANOLhY44ZDgjI2NmzY0HXq1MkKVyvzpDJQAgBS29tvv23rzYoWLWpJMvxa5Tlz5rgVK1ZYO55LL73UtWjRwtr333+/27Jli7UjffXVV5Y0Su644w5Xo0YNa8dzIPeTVSr5ImnBl61tTtS4ceNsvZooo3GBAgWs7WkdoF6zKDOx1gYCyD0EbgAAIGX5TLsKwAoWLGhlXY477jjre/31122fHtXPLFSokPv555/d//73v6B3r7vvvtuSjVSuXNn95z//CXrjO9D7ySzd2+jRo63drl0720dTYiqVx4kOTCdOnGh7BWhKShLLFVdcEbSce/fdd4MWgNxA4AYAAFLS+vXr3Ycffmjt1q1b217ZdtsGmSJ9EJWeE0880d13333WHjBggPvpp5+sLVOnTnXjx4+39pNPPmmzN9KTHfeTWZMnT3YbNmywtkYQY3n22WfdUUcd5c4777ygZ49FixbZXv0qoxPLsccea98j+fLLL20PIHcQuAEAgJQ0cuRIG3HSFL9WrVoFvc61b9/e9pqaOHfuXGunR+VYqlev7rZt2+Z69eplfaFQyPpFI1ktW7a0dnqy634yQ19TateubSUIMmP58uW2r1q1qu3j0fdGmCoJ5C4CNwAAkJL8CJam+akOpteoUSMbYZJhw4bZPj2a0vj0009be8iQIVbTbMSIEW7+/PnuH//4h3v88cftWEay634SpSmQb775prUvueQS28eiNd1169YNB2Dy999/W6AqZcuWtX08fk14rJqoAA4eAjcAAJByli1b5j777DNrR6/t0ohXmzZtrD1q1Ci3c+dOa6fnn//8p63n0kibClH76ZMqal2+fHlrpye77ycR7733nvv999+tnV7g1rlzZyuYra/t+edJRlNAixUrZvutW7faHkDuyKfUkkEbAHKE/vDp27dv8GgPfQL98ccfB48AJKtYP78VK1a0DL05SV83PcoC+cADD9gaMmVGPOaYY4Ijeyhjog+WFOAkMtVRa9Q0KrV582Z7XKtWLbdw4UJ3+OGH2+P0HOj9DBo0yN16662uePHilkgkER06dHBjx461NWiZzVipIKxIkSLW1ojiLbfcYu1Yrr/+esusqX/377//Puh11lbSFnnrrbfCGTQB5AwCNwA5jsANSF2xfn4PhvT+PNExBSsrV650ZcqUcffcc09wZC9NA7z33nutfdlll4XXgmXkoYceCj9vwoQJ7sILL7R2erLjfjIbuGnETF9r+/btlvny4YcfDo4kTkGmPPLII+G0/7FcddVVNsVT0y01cucRuAEHF1MlAQBApuiDFwUrObmlZ/bs2RYkiUbJFPBEbz5IknfeeWefqYHpKVeuXNDat52enLyfeHQNBW2S1YDJv74ff/zR9vH4TJsqGwAg9xC4AQCAlOITfBxxxBE2VVCjPbE2jZ6JAhyfxCMn5Mb9+JpwWn931llnWTuzagTFxLU+Lz0++2TNmjVtDyB3ELgBAICUsWPHjnDB6WbNmllSDo04xdqUZMRnc8yJGmqSG/ejYuFTpkyxtmrE+SmPmVW/fn3bz5w5M27ClG+//TY8IlevXj3bA8gdBG4AACBlTJw40f3222/W9vXR4lFSEZ/h8aOPPtqnuHZ2yY37eeONN9yuXbusHa/odiL8c7ds2eLGjBlj7Wgvv/yy7XXvkbXpABx8BG446GbMmOFKlCiRpa1nz57u+eefDz+OXCQdTesHVEfHnztp0qTgyP5Uz0bTTXRe165dg949lEbZXyPR7YsvvgievUfkNXRPGRUx1SJznasMXolQti9/fW0LFiwIjgBA3uKnCCrFfnTa/ViUeVG0bm748OHWzk65cT/+eaqvdu6551o7PQq+KlWq5C666KKgZ4/TTjst/Py77rrLrV271tqe6tgNGDDA2jfccIO9vwDIPQRuOOgKFSpkbyDR27HHHmspmLUpRXGscxT06E3Gn5deVkItFt+4cWP43GnTpgVH9qdAS1NBdF70WoE///zT+lXoNNY9xdq0ziGSv4Y23VPkIvVYtP7Bn5+IV155JXyu9tlZ4BUAkoV+v7377rvWji5yHY/qs+XUdMncuJ/Vq1fb1EbRNMnDDjvM2unRB5mrVq1ya9asCXr2UsFxJR3R6N8pp5zievXqZYGeEqo0bNjQ3o+qVq2aK5lFAeyLwA0H3RlnnGEjZdGb0i57d955Z8xz1K/F0ccff7ydN336dNvHopE9UYpm8Y9jibxO8+bNg9a+VNsn1j3F2nRuLEcffbTttUhdgWV2UO2eOXPm2BqH/v37W5/STO/evdvaAJBXKPGHPkSTREa3JHJ64uLFi/ebEXEgcuN+9PvdZ91Mr+h2oqpUqWKBYJMmTWztXL9+/dy1115r5Qm0fk8jhH6mDIDcReCGlHT++efb/pNPPombNtoHajfffLPt582bF36DjeYDN42W+UAvJ2iaiurgSKw6P1nhp+lopFC1dgoWLGjFXydPnmz9AJBXKKDQ73xtKgqdqJdeein8vDp16gS9samwuD9XI1DpORj3E01TGv1zW7RoEfSmr0ePHna+PliMpVq1arbmTqN5Kg7+6quv2to9lTZQ4pXoYuIAcgeBG1KSD9x++eWXmGmMtWh77ty51m7ZsqVNw1TQ9tlnn1lfND+N0l83p+TPn9+K2YqCzvHjx1s7mgqwJspPtWndurUrWrSoZTWTnMqgBgDIm7TWW++ZXbp0saAwkamfAA4eAjekJAUnPv1xrHVuWlC9bds2V6xYMZsG4lMYx5paqamG+lRR4k2TzC6bNm2yNQn+U1wlW1FilGiJpnZWcKr7F103cq/pmFpbBwBIHVpTpg/4tMUbIcttet/V/Wk6JYCDh8ANKUmZtHzwEysY8wu3zzzzTAuCtK5OYq1z08iXaDRMc/xzmu7HF2HV2oYDGRnzz61cubKrVauWtdu0aWNfQ0Hb22+/bX0AgNSg2SFKBKItmQM33d/jjz8e9AA4GAjckLIuuOAC28fKFukDND/SdvbZZ9t+1qxZNs8/kg/cTj/99IM2LURTUHz2yvvvvz/u2rv0qFjqqFGjrB25KL5MmTKuQYMG1ma6JACkBpWNWbhw4T6bPohLRlrPF32vB+ODT+BQR+CGlOUDN6Uw/v77763t+RG3c845x/YK4JQyWan4lyxZYn2eD/L89eJZuXKlu/jii+NuSp2cGcrcJVoM/swzz1g7Mz744AO3YcMGa0cXYPWBnM7x00ABAMnLzySJ3JJ1jVnZsmX3u9fMrM0GkDUEbkhZGlUqXLiwtSNH3ZYvX24pjaV+/fq2V9KOk08+2dqRUyuVffHbb7+1dkaJSVQH55133om7TZ06NTgzMfp6qvsjDz74YMI12zw/mlauXLn9as+1b9/e9lo/N2LECGsDAAAgdeULRc8bA3KJRs20VksGDhxo6YszoimH77//vqVkfvHFF61PhUP1WOmNIzNO3nTTTTaypekoPuh54403bLRKBb9/++23/Qpni0bTFJjVrl075no6TyN6Rx55ZPBoX/4aShwSue5MJQr8dE4VPfUFTrXgWyN4+gRTCU2ibdmyxaZEKgGLXtdTTz0VHNlLUz8XLFhg6/v0ddKjAt7Ro5bZSeshoqe0NmrUKN0C6gCSg5JQRBdf5ucXAHKBAjcgGaxcuVIfItiWFrgFvel77LHH7PyqVasGPaHQNddcY33dunULevYYPny49VesWDHoCYXSgiPra9myZdCzv7Rgy86pW7du0JN5/hoXXnhh0LNXWuBox9KCx9CGDRusT69ffWmBmz2OlhZo2XFtXbt2tfOjt4YNG4bPWbp0afDM2NL+CAufe7A2fU0Aya937978/AJAEmCqJFKan974zTff2LRH8WvWzj33XNt7/vGqVatsXZz4tXA5Xb/N27p1a9Daq3///jZapyyQjz76qPXpcXp80W0ZOnSojc5Fbz7pigwbNixoxaZPztN+H+TYlvaHX/CVAAAAkBUEbkhpderUsTVeooyRmu6oNW4SHbipsKg2UcCmIEpTCeVgBW6xVK1a1V133XXW1pRHJRyJN+VS1qxZ46ZMmWJtTftUvbZ4W926de284cOHWwAFAACA1ETghpTngy4Fbp9++qm1S5Uq5apXr27tSD6Y03la97Vr1y533HHHuZo1a1p/btGIlBKtaNRNiUrSo2Qjvmh39+7d98lsGb116dLFztP6NT+6CAAAgNRD4IaU16xZM9srcPNJOKJH2zzfP3v27IM+TTI9GjXU9EYZPHiwW7t2rbVj8YlVNHroC4vH06FDh6CV8XRJAEDua9WqlWvcuHF469SpU3Akb4l8jdr8zBMA8RG4IeX5+mvz588PZy7MKHDTFEmfvj8ZAje58847rWbP9u3b3XPPPRf07ks16D7//HNrKyjLly+fteOpUKFCuFTAmDFjslToGwCSTc+ePV2JEiVibhUrVnSnnXaazTjQB2G+PEwsChb88/SBXiKGDBkSfk56NTh3797tqlSpEj63Y8eOwZH0aZ223svmzp1rv++ja4+KlgU88sgj7qKLLnKnnnqqlb7p2rWre/fddzM1Lf6HH36w72W3bt2spuiB0HuXsjpfcsklli357LPPdldddZVlUvazRCLptWnTh656vZ999llwBEBcaT/gQFLISlZJ7+STT7bnpQUytk97Aw6O7CvtjTRUrFix8NfRtn79+uBobD4jpJ6ndiJb2ptn8Ow91KdrZJSJ7dFHH93n3qKzSt5zzz3hY2lvdkFv+iKv+eabbwa9BxdZ6YDUlYw/v927dw/fizL+Rm7HH3986LDDDgsfL1SoUOi+++4L/fXXX8Gz90oLXEJFixa189KCn1BagBEciW3Lli2hMmXK2Pk1a9YM7dixIziyv0mTJtl5+j2ufYECBcKZg9Pjz4/3PpgW4ITKli1r5/jrFyxYMPz44osvjvlaI33zzTehf/3rX6HDDz88/LyFCxcGRzNP16tevXr4WoULF97n2o0bNw5t2rQpOHtfyoysc/RvByB9jLghT/Cjbmn/p22tmGqYxZI/f353zjnnBI+cO+WUU9wxxxwTPEpfRgW4Izdf1DuzbrzxxnAClWj6xFJJRiRW0e14IqdL+mmWAJBX+JEbv2kUSfUvVadTvyc1EqS1w+3bt3c7d+4MnrVHWpDn/vvf/1p7zpw5bvTo0daO56GHHnLr16+39rPPPuvSghNrx+J/3yqJlOqAak11RtfPiF6LXoeyKNeqVcstXrzYXusff/xho4uahaERLo3GxaLRuyuuuMLVqFHDvfDCC/t9P7JCMzlatmxpdVOLFStmr1HrtXVP/+///T9731XmYo2+AThAe+I3AMg5jLgBqSvZR9zSkxYs2ciSP1cjb9HSghcb7dHxSpUqhdKCo+DIvlatWmWjdzovLQgJemNLC1qsNqfO1cibvq7aGtXLSHojbmlBkR3TlhZoBr17dezY0Y6ddNJJQc9emonin6sRyU6dOoVefvnlcF9WR9x8PVVt0bNNpF+/fuHjH374YdC7FyNuQOIYcQMAAHmSamJqHZrWgUlakOF+/fVXa3sFChSw0TONVikD7+OPPx4c2dfdd99tI15arxZvRMvTqJdGnYoWLWqJN5TlVzSqt2LFCmtnhV6HRrRefPFFW0cWTWv7RKOO0TT6qOfcfPPNdg/KUOy/Lwfi+eeft32DBg1c69atrR3p9ttvt0zPovsGkHUEbgAAIM9SYHbbbbdZW4GXalxGUyINn9Wwf//+7pdffrG2p4zFI0eOtPbDDz+c4RR7P02yRYsWrmDBgjZ9X6Vn5PXXX7d9VijZiaa/X3vttTGTU2l6omjKYjSdr8DxySefdJUqVQp6E6PpkJqSuWXLlqBnj5UrV9oUSbnssstsH03LF9q1a2ft9957L2aiEgCJIXADAAB5mgIHrbUSZTGMRQFZ6dKl3ebNm12/fv2C3j3uuOMO22vE6l//+pe149EauA8//NDafgRKQVPbtm2tnVNrjRVc+TV0GuWLJVawlwiNSB511FHuvPPOC3r2WLRoUdByrlGjRkFrfw0bNrS9RiE1qgkgawjcAABAnlakSBFXrVo1ayuhRywqx+KnQCpQ8Ummxo0b5z755BML/FSqxQeA8WhkTqUANNKnmmyekoqIpikq1X920siXgsTly5fbaFufPn2CIzlLX8+rWrVq0Npf9erVg5ZzX3/9ddACkFkEbgAAIM8rU6aM7TXlLx5lPtSokrItak2bMkFqLzfddFNCa8L8iFrTpk0tGPQ0IqVRKxk2bJjtD5Rqyik78oknnugmT57s/vnPf9qIYnpBVFZoJLJu3br7BGASOTVTUyLj0fM9/xwAmUfgBgAA8jwlFZH0AgdNJdSomkbLVE7ghhtucEuXLnVly5Z1DzzwQHBWfFrv5QtJ+3Vdnq7Zpk0ba48aNSpbUvFrqqK2UChka+i0Bi6jEcGsUEkDlVrQfUdSmRxJL2iTyDV3W7duDVoAMiufUksGbQDIEZq207dv3+DRHvr0WbV9ACS3WD+/FStWdN26dQse5Yz0pvv16NEjnP0x0T9jmjRpYr9zKleu7L777rugN7aePXvamjdPNTQvv/zy4FF8999/vwV4CgBVay06iYmmXfrgTYk6VP8smgJMrbMbOHCgvc70rFmzxqZ+zpgxw7388stu7dq1VltOo34dO3YMzopPwZgfRVy4cKGN3mXGXXfdZdNLNZL422+/Bb370/dC9UdFo4SR/3fUHjp0qI3o6X4AxMeIGwAAyBQFFgqCcnLLbj///LPtI6cvxqMAzI/QKSFJIkGbAkifMVIBm4K9QYMG7bN9+eWXdlyyY7rksccea5krFSxq7Zif5qlgSEFcTtPaQdmxY4ft44kcZfPfVwBZoBE3AMhJFOAGUlcqF+D20gIHKzqt87t06RL0pq9ixYp2ftu2bYOe9M2cOTN8T4lsKuadFgAHz94rvQLcGVm2bFn4+mmBYtAbn4pu+/OzUoB78ODB4edv3Lgx6N3fJ598Ej5v+vTpQe8eFOAGEseIGwAAyNMmTJhgmR7lnHPOsX128yNoRxxxhBs7dqzVi4u1PfTQQ3aeasq9+eab1s4uypypUTg5GNkba9SoEbT2rO+LJzL7ZM2aNYMWgMwicAMAAHlWKBRyjz32mLW1/uviiy+2dnbSVEFfQ61Zs2bukksusa8Ta7v99tvD2SUzW9NNiVWU+n/VqlVBz/58opCDUeha6+MUqEp601v9MWW/TGSqKoDYCNxwUKl+zfTp021R9uzZs23B8sGkT0FVmDRymzRpUnA074h+jdddd11wBAAOLUrnr/cbUUp/ZYjMbhMnTgwn5/D12uJR8OgzTn700Ufup59+snYi9Pv8hBNOsHVtsegefIHrSpUq2T4nHXnkka558+bWVtKRWMHixo0bbaRRMvreAEgfgRv2oWKhWjiclU2L1WNREdPrr7/e3ixVW6Zhw4ZWKFTTVZRl6qSTTnL9+vWL+/x4Bg8evM/XX7BgQXAkvh9//NFNmzbNNmWv0hYrE9bUqVMt2Dn77LMty9aFF15oWdWUwStRP/zwg2Um0yLx1atXB71Zp8xh+qRWtYH0KafeLPV9i3Vt/9pUz0ev1aenBoBDgQKIOXPmuIsuuihcVPuss85y/fv3t3Z280lJlPI/ugxALB06dLC9RgOVxCRRV155pe01DVKBUiRdS+85mhKqrJaJ3EeilLFSgaC+n9G6d+9ue02VfPDBB63t6V5uvPFG9+eff7pChQplmCUTQAa00A3wrr32WlsgHL0dddRRtng4f/78MY9r+/3334Or7PXMM8+EChYsaM9Ne0MLpQVAobQAyBZd33XXXaHTTz89vGD52GOP3W/Rcnrq169vz/MLudPeEIIj8enr+ufEkvZmH/r3v/8dvqfDDz88/Nq1HXnkkaHJkycHZ8f2zTffhP71r3/Zc/3zsrLoO5K+Z2lvxOHrFStWLNwuXLhwaMSIEcGZ+0qWRd8kJwFSV7InJ1HyEL/pPSYtQNvn97Z+d15zzTWhLVu2BM9OTKLJSTZt2hR+n7vggguC3vTt2LEjfI8nn3xy0LtHeslJtm/fbq/Pv65OnTqFnn766dD/+3//L9SgQQPr13bbbbcFz0hfoslJ/HtnvPcSvf/667Rq1Sr07LPPhh5//PHwvWrTfcZCchIgcQRuSIj/xRov4InliSeeCP/C1pu8AppYPvzww1D58uXtPAUhc+bMCY7Ep2vpfL1x6c1A7bJly4Z27doVnBFbRoGbAk0d19a/f//Qtm3brH/lypXhN6CSJUvGzAT21VdfhS6//PJw5rLI7UACtyFDhoSv065du9CaNWusX1/v1FNPtX4FxXPnzrX+SARuAA5Usgdu0dsRRxwRKlOmTOicc84J9ezZ035XZkWigduLL74Y/toKWBKlYNI/b/HixUFvxlkl9SHpDTfcEA4WI7fSpUuHHnvsMfsQMhHZFbjp6yl41Pujv57f9P4+fPjw4Mz9EbgBiSNwQ0IyG7jpTUjBhJ5z3nnnhf7666/gSGyrVq2yNxydX6lSJUvdnJ4+ffrYuRp106eo/g1s0qRJwRmxZRS41axZ0463aNEi6NlryZIldkzbqFGjgt49Zs+eHT6mwE2fgr788svhvqwGbn/88YcFpLpGvXr1Qjt37gyO7LFhwwb7A0XH9WlrNAI3AAeKn9+DK6PAzdP7w7Rp0+z96I033gjNnz9/v/eIg00jiTNmzLBZIKNHjw4tWLAgwyCSwA1IHGvckCPS3ujdrl27XFoQ41599dVw1ql4KlSo4AYMGGBtLax+4YUXrB2Pz8SltXJFixa1LF6S2Qxd0f73v//Z/WrtWDStxdMcfdH6tUhaO6EirTfffLMlYEl707J1aAdq3Lhx4QQuWjug9RORSpUq5e644w5rz5w586CkfwYA5D4Vv9aa8Y4dO1rSj9NOO22/94iDTYlXGjRo4Dp16mTr+PQ+qPV2ALIHgRuynZJ9vPPOO9ZWSuREM1vpF/1xxx1nbS2Ejmfu3LkWHEnbtm332StzlRZBZ5WSs3Tp0sWdccYZQc9eqrmjYFSKFStme09vTFoI/+STT2Ypk5cSs2zatMnt3Lkz6NlDmcpEAZqSksRyxRVXBC3n3n333aAFAEhlynjcp08fN2jQoKAnb9Fr06ZEWgASQ+CGbKeMjMroJW3atLF9IvRJobI3yqJFi9yvv/5q7Wh+VK1y5cquVq1a1tbXUfCkoO3tt9+2vuw2cuTIcODWqFEj20c6kE8VK1asaHV9xo8fH/Tsoe+DnHfeeS5//tg/riq2qto48uWXX9oeAJDa3n//fctmnFcDN702bf59DkDGCNyQ7SKDhzPPPDNoJUZTDr1YQYhGpEaNGmXtyFTHZcqUsekZcqDTJaMpnbFGAJXSWG644QZXrVo1a+e05cuX215lFNJTvXp12zNVEgBSm2qdLly4MLxNmDAhOJK3RL5Gbf69HUB8BG7IdpG1zjQalBmRhVFj1Uz74IMP3IYNG6x96aWX2t7zgZzOWb9+vbUPxNatW63I6THHHOOuvfZaW0v30EMP2XTI7FanTh1Xt25dV7x48aBnTx2ibdu2WTujgrGlS5e2/R9//GF7AEBq0vuB6of6rWbNmsGRvCXyNWrzH0ACiI/ADdnur7/+ClrOgp3MiDw/8jqeH01T4e7I0TnR4mxRwKPkIAdqx44dNlVFa/Y0TVFvpkcffXR4Gmh20iesmuffpEmToMe533//PWg5V7hw4aAVm19zp2ATAAAAeU8+pZYM2kBc3bp1c0OHDrURISXRSM+//vUv9+KLL1pba87+8Y9/WDsRmhLSsmVLaw8fPtxdfvnl1pYtW7bYlEiNQt10003uqaeeCo7sdfrpp7sFCxZYcpF58+YFvXtprcCtt96a0OtQgKZrLFmyxL355pvuvffes/5zzjnHRvWU0Ss9CsR8ZklNA9EnipmhIMx/jccff9zdcsst1o7l+uuvd4MHD7a1csrK6fl/N43mpbcA/JVXXtnnednt448/dtOmTQse7aF1guoHkNyUQEJrkSLx8wsABx8jbsh2Gg3zfv7556CVmMjzFaRFUvDkpw5qSqCCsOjNj9h99tlnB7zeS6NsGtW7+uqrLS3/2LFjrW/WrFnuP//5T3BWzokMeDX6lx4/0laiRAnbZ5aCOv0RllNbTgaFAAAAhwSr5gZkIDMFuFV4U+dqiy5UnZEbb7wx/Nyffvop6N3j/PPPDx9LZLv33nuDZ+6VUQHujFx++eX2/JIlS4Z2794d9Ma2cOHC8L2onRVpQbA9v3v37kFPbE2bNrXz/vnPfwY9e1CAG8CB4ucXAJIDI27IdppC41Pj+zpkidDURNWtEWVtjExsokQlU6ZMsXbnzp2tXlu8TdMCRVMt0/6PWzu7+DVoWvfmk6TkpBo1ath+2bJlto/HZ5/Mq4vYAQAADnUEbsh2mirZrFkzaytJSKIZHjUd8bvvvrO2imBH0nV8UpDu3bu7iy++OO7mn6vpeTNnzrR2IlSjTfeqNW2xEqNIZJKQnEhSEq1+/fq21+uILs7tffvtt+7HH3+0dr169WwPAACAvIXADTlCi9k16qYA6LrrrrNaaOnR6JVPvlGyZEl38803W9vz2STLly9viUfS06FDh6Dl3LBhw4JWxjTap7T7Kuodr4i3Ep+IkoaUKlXK2jnJlzxQYpYxY8ZYO5pqzMnhhx/uWrVqZW0AOBTpgyxl6VUyKX3gtXnz5uAIAKQ+AjfkCGVe9Ak89AaqYCre1MIvvvjCpleuXr3akn8oEIlMsqERMJ8RUdfx0zDjqVChQrhUgIKdeKNn0c4//3yr2SYPPPDAPun4RclOfLbMNm3aWKCUXU4++WRXqVIly1YZ6bTTTnPnnnuute+66y63du1aa3vz5893AwYMsLYKg2c1OQkApCrNlLjzzjvtd3+VKlVcw4YNXevWre1351FHHWVT3FXaJT2agq/fn5nZ9N4VKfIa+gAyowRZDz/8sJ2rbMCR9GGnv87s2bOD3vQNGTIk/Jxnnnkm6I1NGYj9udr8B5IAkh+BG3KM0kf36tXLAi2tPatcubK75ppr3PPPP+9Gjx5tKe4VAGlN2tKlS+05SvHftm1ba3uRo2bRRbfj8aNuGzdutBIDiShYsKB79tlnLXj88ssvLX2/Rg71JqfpmZqGqJEv1XJ78MEHg2dlDwWtq1atilmHTW/IGt376aef7J70PVVwq7IG+gNl+/btrmrVqvul6waAvE7vLSrc/Oijj9qHg3r/0AdvAwcOtN/bxx13nGW2bdGihX24FW/2h0rXaHROH/TpQ7REtiOOOCJ49h7+Gtr03nPvvfcGR2LT725/fiS97+g+1X/bbbdluFZbWZZ79uxp5+v1qiRPelT+xX9N7TMzMwVALrMUJUAGMpNVMtrcuXNDaQFaKC0wCmcki9xOOumkULVq1axdq1atUFoQEzwzZJkbK1SoYMeUYTGjTI5eWhAUvn779u2D3sSySk6aNMnuwz8/crvgggtCy5cvD85MX2aySup+dF7aHyFBz76WLVsWatKkSfh6fitQoEAoLUgNrV+/PjhzX2SVBHCgkvXnd8yYMaH8+fPb/Vx00UX2ez9aWnAUuv7668P3feeddwZH9pUW8NnxA/ld6a9x9NFHh7/erFmzgqP789/XWO9HAwYMCF9j5MiRQW9syqDsz502bVrQG9s333xj5+XLly/09NNPW7ts2bKhXbt2BWcASGYEbjhotm3bFpo+fbq9CQ0ZMsRKBXz99dd27Oeffw6deeaZ9iZy7LHHhj7//HPrz26ZKQegAG3cuHFW3kDB3Lp164IjuUdB7XvvvRd69dVXQxMnTgz9+uuvwZHYCNwAHKhk/PlVkFa0aFG7l+bNm6cbePz999+hli1b2rkKWGK9v2Rn4NalSxe7jtoNGzYMju4vvcBt586d4WtUqlTJAtBY9H0oVKiQnXfVVVcFvfH16dPHzq1fv35oy5Yt4Q9U9R4HIPkxVRIHTdqbi605uOyyy1y3bt1cx44dbYqLlC5d2tL9N23a1FL/awqgFpjnJk0/VLKPTp06ubQ/DPYrCJ4blJwl7Q8Qy5ypqT9aRwEAhxpNDdcUQa01fumll9xhhx0WHNmfpus/9thj7sgjj7Sp+Z999llwJGdour2mO8onn3zixo8fb+1oaQFb0NpfgQIFbOq+7l0ZkrW0IJa7777bplxqrdojjzwS9MbnE31pDWBa4BvOAO37ASQ3AjckDb2pqu5b+/btLZBT4JRT9EanN1ZtPvFJXpKXXxuAQ5sCNtXpFK1n1rqujOhDQiWcWrhwobv22muD3pyxadMmW2unNcmi9WexyscoKEvP2WefbYlKpH///u6XX36xtjdv3jw3cuRIayvRiU+uFc/cuXPdihUrrK37i9xrraDW6AFIbgRuSCpa7K3EJbNmzbLU/DlFC9D1ia22vBjc+Ne2aNGioAcA8oZp06bZh2+SrCVQFJQ99NBD1lb2yayOaCkg0weZSiLSr1+/oHePO+64w/ZKnJVRQhLx96BEYSp7I0oQpntV0BavDA6A5EHghqSjKS8ZfXKYVUrXrE9cIze9ceU10a9x1KhRwREASG36neZlVNczN2k6uy9Nc//99ydcmiaSpsP7KZCaOqk6dTJu3Dibhqlpmc8995zt07Nz587w+0C7du1sL1oC0KBBA2szXRJIfgRuOKTok0tNX4nc8uI6sejX6NcSAkCq0zpoL7tnZqxcudJdfPHFcTeVYckMP0qmki8Z1VeL56qrrnLnnXeeBV9a07Zr1y7by0033eROPfVUa6dHNUJ9LdXosjo+kNM5qokHIHkRuAEAgJQRWe9Sa6Ozk9bBvfPOO3G3qVOnBmcm5vzzz7ekW6L6n75+WmZoKqNG1ZSw5I033rB6dKp9qqBVNesS4UfTypUrFx4F9LSuXLQOb8SIEdYGkJzyKbVk0AaAHKFEKVpzF6lRo0ZWGBdAcov181uxYkXLDpyT9HVjUeCiQEaUqKRIkSLWPhAaTVNgVrt27XQzGmsqf7xg0V9DCT8i14spiYjWoUmvXr3C38tBgwbZCJ6ySyqhSUaU5ERr3jwlaLn88suDR/Ft2bLFpkRu27bNRuieeuqp4Mhep59+uluwYIFNPdX9AkhOBG4AchyBG5C6Yv38Kv28UuvnpHi/H3QvPqjT1MZKlSpZ+0D4oEuvKasJq/w1LrzwQjdhwoSgdw9lvxw7dqwFmUrvX6pUqUwHbhppVAZNnatAUFkiEzF06NBwkN21a1ebPh9NWSW1Zk40mlejRg1rA0gyCtwAICdRgBtIXcn28zt69OjwfbzxxhtB74HxxbNV9Dqr/DVifW+WL18eOuyww+z43XffbX1PPPGEPY5VgDueihUr2nP0tRJ1/vnn23MS3e69997gmQCSDWvcAABAymjcuHE4i+LkyZNtnwhlo1RWxlg11XKa6pL6mmyaqqhEIdm9Pi8WJXKZMmWKtZVVWSNr8TY/gqopmGl/H1obQHIhcAMAAClD2YEvuugiaw8bNiyhaYZKOqJEIVWqVLH1XLmhd+/ernDhwlYzTYlKDgYlG/GBavfu3W06Z7ytS5cudp6mcs6cOdPaAJILgRsAAEgpWuemUTclJ+nRo0fQG99tt93mfv31V2srgMoNyujoywkMHjzYrV271to5yWeTLF++fIY177QOz1NADCD5ELjlIk1b0ALv6E2LlrXYun79+raQ+NVXX7VsUPF88cUXMa+T3qavHSn6Gtdcc01wJD5/roqCZmT37t32Sad/TseOHYMjOSO978nxxx9vC6+1gFwZvhYtWhQ8K7Z4/07pbfr6kSKvobpxX3/9dXAkNmUO07nK3BYtO18bAKSi0047LZwKX8k3lGlSQVy0HTt2uFtuucW99NJL9lhBnkaXcsudd95p7wHbt28PZ8bMKUuWLAknWlFQprIC6alQoUK4VMCYMWOyVDAcQM4icMtFmi6hmi7KFKVAzW/KGqVfmMoYpaBNwZv+gI9XP0ZBka6j7aijjtrnWvG2Y445Jnj2HpHX0PbKK69kmFnLn5vIL3etQ9DaAtFzNJ/+l19+scc5IfL1FCtWbJ/Xrqxeq1atcpMmTbLiqMqwpSkieiONxf876XVGXie97YgjjgievYe/hraNGze6e++9NzgSm+7Fnx8tO18bAKQqpcfX7zmNvCkIOuGEEyxI0/vXqFGjbFTupJNOck8++aSdf88997gBAwZYO56MCnBHbuPGjQuelTh9wOZ//6sod06KHDWLLrodjx910/tUdGZMAElgT44S5AafgUpZomJZt25dqH///qG0IMDOS/sj3fqiLVy4MJwNKi0gCnozJ/IaRx99tO2bN28eHI3Nnz9w4MCgJ74rr7zSzr3xxhtDtWvXtvbTTz8dHM1+ka9nyJAhQe9eu3btCqUFwqGzzz47fJ7P9BUtO7ON+e+ttlmzZgVH9+ezuMXKNpadr+1gIaskkLqS/edXvxPbt28fKliw4H73qa1Zs2ahGTNmBGfH5n9HZ2aLfu/z18joe7N169ZQ+fLlw9fJiaySu3fvDlWoUMHOLVeunD1OxKpVq8L3pe8pgOTCiFsSU8FMfaLoi2VqcbWmL+Q0/2ng+++/H3eULzM02qQRNmnTpo0VJ5XcnEOvIqrKTPbRRx/Zp7Ty4osv2j4naUG9z9ylT39zQm69NgDIDZpZ8MYbb9go0bRp0ywhx5AhQ9z48ePdzz//7D788EPXoEGD4OzYVDA77W+iTG3Ra+v8NTKqT6kEJRpt89dJJLmKp8Qhek5kge9YNAqp2Rc6V5klfRbOjGi6pL8vfU8BJBcCtxTQqVOnoOXsF3FOa9euXbhA5913322/wGPRNL1E6A1GwVvRokUtoNAUE5kzZ45bsWKFtXNLoUKFwvejheu6z5ykN09fOFbFTvWHRSwqyHqgDvZrA4DcpICoYcOG9p6pgtP6oEwZKAEgryBwSwGRgZOCn5ymtVM+69a8efPifuqW0UJnz2e1atGihStYsKClYtY6Pnn99ddtn5v891cjVQp2cpI+WdWIow+MNaIaq6ZQot/bjBzM1wYAAICcQ+CWAt58882gtafw6MGgkRqfXUpTJ3ft2mXtzFq/fr1NU5HWrVvbXkGJny7pg7rcooxj7733nrXPO+88C3Byml7/Qw89ZG1liMyp70FuvDYAAADkDAK3JKbUxsqUdeONN9pjpZRv1KiRtQ8GP6Xvm2++yfIaqZEjR1oWxAIFCrhWrVoFvc61b9/e9poqqeyZuWHx4sU2lUav78gjj3SPPfZYcCTnafTRB8b3339/tqddzs3XBgAAgOxH4JYE1q1bZyNpftMiatXiUmp/TaU7++yzLb1xIsk8NJKj0bJ4W2aCJAUX55xzjrWVVlllCzLLjyY1bdrUatd4CkD1+iSnk5SoJlrk91dTNbXuQXWAtEBcgbHqnelxejJKE+0LqyZKaaxF9/DMM89YO7Oy67UBAAAguRG4JQGNtigTlt9mzZrlli1bZtMTdUyJJb766iv3ww8/BM+I79NPP3XvvPNO3G3t2rXBmYlRYCAKLgcOHGjtROk1fPbZZ9ZWwpNIGoFThklRvZ2dO3daOyfoPiK/vwsWLLAachoJ1Kjmjz/+aGv5Yq01i6SsnrG+p37LbAbO888/3wJaefDBB2PWbMtIdr02AAAAJLd8oXgpA5HjNEqjP/hVXFspfiMprbEKVislv8oBKHD6xz/+4YYPHx5eH+apUPapp55qbY1wtWzZ0tqxqEDz4YcfHjzaK/IaCxcuDCfPEE1xVPZDZTrUqJMfKVMhUQUbCuii0yKLpgA+8MADtqZL9x9d9FvFS33wprVY6d13ZkW+HqWFVoYxT2u/FMDOnz/fDR061L377rvWr0BKGTD1fY7k/51q167tpk+fHvTuT2vINC0xFn8N/dtFpnFWUFWvXj1r9+rVy0Y2ZdCgQTaCp+95dKro7HxtnkZ0o/8PZielx1ZgGUmjrhmlzQaQ+zRt3v9u8vj5BYCDjxG3JKXg6IwzznD33Xef+/LLL632l6YqXnnllRYExaPATAFVvC1W0BZNf/xH0vRLBV8K0v73v/8FvenT5wE+Y6QCNgWcCkYiN70u72DWdDviiCMsWNY6OwVTfv2ekqj4bJqxKDCL9T31W7ygLVL09/bMM890l156qbW1Dk2jZQciq69NwaD+CMupLSeDQgAAgEOCRtyQO9q2bavRzlDaH9pBT3wfffSRnavtqaeeCnr3WLhwYfjYW2+9FfRmTuQ1pk6dGvTuddVVV9mxtMAwtGHDBusrWbKk9Q0cONAeR5o5c2b4eolshQoVCqUFhsGzD1zk6xkyZEjQG1/Dhg3t3FKlSgU9e/l/p7TgOejJPH+NRo0aBT17LV++PJQWFNrxu+++2/qeeOIJe1y8eHF7HCk7X9vBkhY0hu/Zb7G+FwCSDz+/AJAcGHFLEUo64WkK5cH23//+10ZzVMT5kUcesb70Rpj8CJqeM3bsWJcWUMbcfFr87du371P24GDz31+NeGkt28FUtWpVd91111lb02LTAuOERu8SlZuvDQAAANmDwC1FqB6ap8QeB5um3/myBE888US6SU40HXD06NHWbtasmbvkkkvCmRejt9tvvz28Zi43a7rl9vdX0xgLFy5sgbESlWSn3H5tAAAAOHAEbilCa8I8rYvKDVpvV6xYMRsdS2+t28SJE91vv/1mbV+vLR6tufMZJz/66CP3008/WftgUsIVrQeTmjVrxk3gkZPKlSsXLicwePDgTGf/jCcZXhsAAAAOHIFbkluyZInr2rVruM6XMhtqpCo3lCpVyt1xxx3WVnARr66bT0qi0Z3oMgCxdOjQwfahUMiSmEQ67rjjLDGKn1KZnXT/mtJ53nnn2UiXKBNmbrnzzjut1p0CYxVePxDJ9toAIDs8//zz4YRQSqoUj6aF6/epP3fSpEnBkf2pXEr58uXtPL3fRurcuXP4GoluX3zxRfDsPSKvoXv6+uuvgyOxqQyPztVMl0iaUu+vM3v27KA3fco87J+TXr1QlZCpUqVK+NyOHTsGRwAkEwK3JPDzzz/vM33wggsusKLbZcqUcbVq1XKvvvqqnXfuuefaaFZ6mSEzKsDtN72RZIVGhcqWLWvBhdZiRVPmSZ+CPrrodjz//Oc/Y06X1KjdmjVrrH355ZfbPis0tdO/bpUfUKFqfV+Vav+qq66yUT5NU9SbWqdOnYJn7S+jAtyRm0odZJbeLO+9915rq3h2IrLrtQFAKtD7oN5ntCljbTwKbFRWx58bXY4kkgIt1bzUeWeddVbQu4c++FK/aqpWqlQpoU1ruyP5a2jTPfnf8/Ho/dWfH0llGRRgqf+2226zDzvTo1qePXv2tPP1Iei//vWv4Mj+Jk+eHF4/r/O1Bv1AsxwDyAGWogS5wmcajLelBTOhU089NfR///d/oQ8//DD0999/B8/cV2SWwUS36GyFGWWVjKSslpHXiswq+eKLL4b7n3322aA3Y9dcc034eYsXL7a+tDdae3zOOefY48zI6HtSoECBUNobbOjCCy8MPfroo6H169cHz9xfRv9OsbboTJvpZZWMtHXr1lD58uXD18koq2SsLTOv7WAhKx2QupLt5/f444+3e2jfvn3Qs7///Oc/ds6JJ55o+7SALziyvyeffDL8ulasWBH07pGdWYWPPvro8NeZNWtWcHR//vsd6/f/gAEDwtcYOXJk0BtbWoAYPlfvp+m58sor7bwbb7wxVLt2bWs//fTTwVEAyYLADUlLgR9vHnkDgRuQupLt5/fqq6+2e1CJk3gfaDZu3NjO0Ydo2hcsWDC0ffv24Oi+OnbsaOfoA69o2Rm4denSxa6jtsq0xJNe4LZz587wNXS/8V7TqlWrrMyOzlM5n/T88ccfVupH506aNCl03333Wbt+/frBGQCSBVMlkbS0vk/r5HyBagAAzj//fNtrKt+yZcusHWnXrl1u7ty51m7ZsqU79thjbarjZ599Zn3R/DRKf92ckj9/fpvuKJ988okbP368taNpqns8ek989tlnbe33999/7x5//PHgyL7uvvtum3KpKfi+hE88b7/9tk3nLFq0qE2319R7mTNnjluxYoW1ASQHAjckrYIFC7obbrjBHXPMMUEPAOBQpzIzClwk1jq3+fPnu23btlkWZCXcqFevnvVPnz7d9pEUmPiSKc2bN7d9Ttm0aZNr27atO+WUU+yx1p8pMUo0/9ri0Rp4X/uzf//++61Fmzdvnhs5cqS1legko/dQv7a8RYsW9r6r2p9aEyc+2RiA5EDghqSlTwmVfAMAAK906dLh4CdWMDZz5kzbq3SOgqAzzjjDHs+YMcP2kTTyJRoNa9KkibVzUmSWZCVFyWr9UgVk+j4okUi/fv2C3j189mcFrOklJBEFrR9++KG1W7dubXvdowJMyc36qgD2R+AGAABSirIvS6xskT5A8yNtGqGSWbNm7ZeJ0QduGmVKJAtydtDIls9eqTItmsaZWbpXPwVSUyd9RkhlNNZrUiCqsjLap0cjc8pUqSmYrVq1Cnr31mDViKSfdgog9xG4AQCAlOIDN5U80VqvSH7E7ZxzzrG9ArjDDjvMUvFr7XQkH+T568WTUTkYlcrJDD9KptIv6dVXS49KvqhW586dO21Nm9b2aS833XSTO/XUU62dHj+iFl2+p1GjRuEyPaoJCiA5ELgBAICU0qBBA6tRKZGjbsuXL7faqFK/fn3bK+nGySefbO3IqZXr1q0Lj1RllJhEBb3feeeduNvUqVODMxOjr6dgSR588MH9arYlQlMaNaqm0bI33njD1oQvXbrUaq0+8MADwVnxKbGLT9jSrl0723u6pmqDyqhRoyw4BJD78im1ZNAGgByhTGp9+/YNHu2hT3TTK6ALIDnE+vmtWLGi69atW/AoZ/gMjPFoyuH777/vrr32Wvfiiy9a38svv2yPq1Wrtk/GSY1AaWSrc+fO4VEmBTvKWlykSBH322+/7Vc4WzSapsCsdu3aMdfTeRrRO/LII4NH+/LX0LoxZXD0lETET+fs1atX+Hs8aNAgG8FTdkklNMmIkpxozZs3fPhwd/nllweP4tM0TQV4CgAVxEYnMdG0Sx+8vffee5ahE0DuYsQNAABkikaI9MFLTm4Z8dMb/To1iZ4m6Z177rm2j0xQ4s9VCvxYQVskBWZKrR9vixe0RdqxY0fQ2kPJU3y5m8cee2y/7JCJUgCmexAFgokEbfrM3meMVMCmYE8BY+T25Zdf2nFhuiSQJDTiBgA5iQLcQOpK1p/fxYsXh+9n7dq11letWjV7/OKLL9pjb/Xq1eFzf/zxR+tLC3LscVqQYo9jyc4C3LG+Z8uXLw+lBYV2/O6777a+J554wh7HKsAdT8WKFe05+lqJSAta7fxENxXzTgvWg2cDyC2MuAEAgJRTp04dV65cOWsrY6SmO2qNm/gRNq98+fK2iUbatm7d6hYsWGCPc7rwdnqqVq0arsn21FNPuQ0bNiQ0eneg/AiaRhrHjh3r3nrrrZibL12gYt5vvvmmtQHkHgI3AACQknzQpcDt008/tXapUqVc9erVrR3JB3M6T+vLlIVRhaZr1qxp/bmld+/elmjlzz//tEQlOU1TNkePHm1tFTO/5JJL9smQGbndfvvt4eyS1HQDct8hHbipdokWL2suvRYMKyvUd999t1+dl4Pljz/+sDeTSZMmucmTJ1txTr2xHMqS7d9IVNdGi9S1WHv27Nm2qBsAcPAp8BAFbnr/lOjRNs/36/e2X9+Wm6NtnkYNfTmBwYMHu7Vr11o7p0ycONFGJ8XXa4vn8MMPD2ec/Oijj6z8AoDcc0gGbkqX26VLF1vMW6NGDdekSRP7xaTUvCeeeKJ9AqcsTVu2bAmesZcKVEYuSM7MFivdrwKToUOHWmpjnaOFxRdeeKG9mSh9sfr0qVesIqOejuu8448/PuFCnmvWrLFP0fS8m2++Oejdn+6vSpUqdp62jh07BkdyVjL9G4lSRl9//fWWZllTWxo2bOhat25tC+D1pnvSSSdZXZ54z8/OfyMF9JH3HLnp+vp+6f+QspQtWrQoeBYA5D0+Qcn8+fPD75MZBW6aIunT9ydD4CZ33nmn1VHTlESl+M9JPimJUv5HlwGIpUOHDrbXB6ZKYgIg9xxy5QBeeeUV969//ctGsjSPXOltVaTyH//4h2V00kiX/yROf6Drl7uCBE9z0X3dk0gqoqninvnz57d597FolCZy7rr+MNcUhTlz5thjpVdWMKC97k8ZnZSOV/VjRF/76aef3i/7ldIg6zXJu+++a9fIyJNPPuluueUWayudcrziozqmlMtKS6ygRL/o9WmgpqLklGT6N5Jnn33WPg1VwKXXrzd61QcqVqyYfS+mTJlifzTIscceazVvov9wyM5/o88//zxcWFVrNiKLpm7bts1ep978vSuvvNK98MILrlChQkHPwUc5ACB1JfvPb926dd3ixYstrb3+pNGImq/hFunvv/+2D8P8e6qsX79+vzT4kfShm1L56/e9PkBMhMoRRP6O99fI6HumzJJ33HFH8MglXA5AKlWq5FatWrVfyYFoeh8vU6aMvZ/pPUXvLRlRDTc9R++f+kCZDwSBXKTA7VDx1VdfhdL+8LYMSc2bNw/9+uuvwZF9pQVLlkFJ5/3zn/8MetPXtWtXOz/RLFBpAUjoxBNPtOfoaz3zzDOhtF+OwdG90n5Rhm644QY7T1taoBdKe/MJju6R9os9lBbM2XHdRyKaNm1q55ctWzaUFiAFvftL+6PfzrvxxhtDtWvXtnZa8BgczX7J9G8kyjam52hTRrBvvvkmOLKvDz/8MJQWRNl5hQsXDqUF48GRPbLz32jhwoXhexoyZEjQu5fOTQtmQ2effXb4PJ+tLLeQVRJIXcn+85sW7ITvS79/d+zYERzZX4sWLcLnnnLKKUFvfD4jZGa2gQMHBs/eI72skpG2bt0afh/RlhNZJZVt01//2WefDXozds0114Sfp2yeAHLHIRW43XvvveFfPD51cDyjRo2yP3YfffTR0LZt24Le+DIbFHTs2NHOz5cvX2j8+PFBb3y6F3/vsX7ZKqDTsaOOOirdNy1Zv359KH/+/HZ+jx49gt79/fHHH6EiRYrYeZMmTQrdd9991q5fv35wRvZLpn+jRYsWhYPI8847L/TXX38FR2JbtWpVqHTp0nZ+pUqV7E04Unb9G2UUuHn6npxwwgl23tFHHx305g4CNyB18fMLAMnhkFrj5pNIaMqY1iqlR2u5Hn74YcuolN1TzDTVzWd0uuaaa9xFF11k7fQ88MAD4SxZmrYSXcizc+fOttdUBk3dS49S+mrKiPjnxaLpFspyVbRoUStQqukeoqmdStCRE5Ll30iU6UvTNVV49dVXX82wQGuFChXcgAEDrP3999/b9MRIOfFvlB59T/y/2a+//mr/lgAAAEhNh1TgpjngovU/WjuWW7SGy1PQkQitrerRo4e1NSd/woQJ1vYU/Ck5hWRUa8UfVyB4xhlnWDsWn/pXa9wKFizoTj/99PBaMr+4Obsly7+RAh2tRfv/2bsTeBmr/w/g59qX7HvZs4XIvoQbkX0tpcVS9CvqHxWJ4pKtftnCTymRJUuK7ERUtmS5IbImZZfsS8jzn8/3njOeO3fWu7gz4/N+vZ7Xc+bZ5pm57h3fOed8v4B5iOa+fGnXrp3zPZo0aZKsjaT4Gfli6SmsCD6TIrglIiIiotvjjgrckKQBAQigFwMJI1x7rm4HJNcAZGtENkJ/2Sc7u/bY4HWZzE/oKUM2SHeQAthk08L74QmCwxUrVkjbPC8mfmPiMyRVPZdg+RnhPTI9Xi1atJC1PxBgI6MjYAI3AkAjsX9GvuB9Q8kCqF27tgRvRERERBSa7qjArUiRIpJ6H3VJkEYeWf4QPPXr109SrN8OGHq3e/duaVepUkXW/kJPjunNQcZJV2ZI3alTpzxmrpo3b57cAzz11FOydmfWrFkSWCAQQXp9w9R8wVDJjRs3SjsxBcPPCOzvb6A/p2rVqulW3J9TYv6MvEGGNfTw7du3T7JkIlsZEREREYWuO66O2xNPPCFFOjH8D/7880+ZP4YUt2XLllX//e9/k7TAJP7DbnpakDo+UGbeF0oJuEKvCtLDA/7z786XX34p6xo1aqiiRYtK2x3To4a6afZ085GRkZJOGaZNmybrxJbcPyOwF0AN9Odkn5vn+nNKzJ8RYI4f5h+aBcNZc+XKpSpWrChlAbp16yY9f3hMRERERKHrjgvcADVfli5dqg4ePKjeeecd6dGBnTt3qt69e0uSCfQyuasFllD24stI+hEoc467Is6oT2Z6aOzJLQzUb1m1apW0vQ3B27Nnj/O1uxbnRA+cGTqIemWo75IUkvNnBAn5OdmPd/05JdbPyMDPCkVnzYLCsqh1hy8HLl68qA4fPixBsOvzEBEREVFoueMKcHuCgp3oQZo5c6az4CX+kz1s2DD1xhtvyGNvOnXqJEP8svgomImeovz580u7V69e0nsUiKpVq8p/xBHIYBicKwzNM8Wlf/jhB+nhMfD6OnToIMGXtyLaGJaIHi7MaUOWR9fipEgaYoI3zKFCgezb4Xb9jABDNDG/DpCNEcW//YXEMeY9Qc+la1bIhP6M7AW4J0+eLK/LwLw2nIeC4HitJsEKioZjXp2n14GEOciEmVQwLBSBpR16b4OlgC8RecYC+kREweGO7HFzB8PSxo8fL4HVqFGjZF4QeinQu2OSiSQGBEEINuDkyZOyDoQ5x1OqfAwlxJBCMCUHDPO4YcOGHoM2xPEmYyTudcaMGWr06NGxFvu8raQaLunO7foZQb58+XQr8J+T/Xh3P6eE/oy8QcmCQoUKyVzE+fPnO4NPJJpBeQNPEAziP2FJtSRlUEhERER0R0CPG8W1bt06Z6HRpk2b6q2eBVLcuWTJknLsfffdp7f4xxEQOO/phRde0Fvjeu+99+QYR/Bh/fvvv7Lt7NmzluM/9bJ95syZss0d++v2Z0mXLp117tw5ffbtlZQ/I7xH5too9B2Ibt26Oc/1VEQ8IT8jfwtwG3Xq1JFjHYGg3nL7sYAvUeji7y8RUXBgj5sHNWvWdCZ0MFkgE0vdunVl/euvvwbUE2Gv3Wau4Q7mUGGYI4bMOYIb2YYhcxhGh/lXJqW/O6YHDT03SJKBBBruFgxPBNRb81WTLKkk5c8Iw4DwHgLm2vkLPYDLli2TdqlSpTz2jCbkZxQoJCwBzH07f/68tImIiIgotDBw88IULE6fPr2sE0v79u11S6kPPvhAt7xzBNnOY1HE2Z6i3xXm0CHwAARZgPlNgCF0nl4PggYzVK9+/fpSeLpVq1ZuFxQON9klk6qmmz+S6meEoZJ4DwBz6lDXzh+Y//fbb79J2/5zdhXfn1F82O8dc+eIiIiIKPTcMYEbeoaQnfC5557zKyEIEn/89NNP0n7kkUdknVjQU4Q5TDBu3Dhnj4s377//voqOjpY25nRlzJhR2p6YhBgIBvDaly9fLo9dE2XYoWcJxZ/B1GvzBHXWTMZJZEFMjPT8wfQzAkzIR68YMkN26dLFY8FsA6UeXnnlFWljfuBLL70kbU/i8zMKFLJyYq4blC5dOqAkK0REREQUPO6YwA09M7t27ZIsfAh8Bg0a5Cxy7ArJNxo3biz7URPrzTff1HsSD5JGoFcHz4FCyZ6GG6IXDMEM7hkwRLJnz57S9qZt27Yy3BH/cR85cqRkRsSwvYcfflgfEZdJSoJeGdcyAO7gOQC9gUhiYvfJJ59I0IMMjghK/BFsPyME2G+//ba0kT0TrxfBmTsoDo4eNNROS5kypQw5xWv3Jj4/I39dvnxZ7gEZK3FdQLZQIiIiIgpRMtPtDoHkD47/jDsnVxcpUsRyBAjW9OnTrTlz5lhjxoyxmjdvbqVIkUL2Fy5c2Nq+fbs+27tAEl8Yu3fvtkqUKOG8n0qVKlmOYMVyBEHWZ599Zr3++utWwYIFnfubNWtmnT9/Xp/t26OPPirnIYEI1t27d9d74sJ7kzZtWjnukUce0Vu9cwSVVrZs2eSccuXK6a0x/u///k+2d+rUSW/xT7D9jG7evGn179/fcgShcm7GjBmtZ5991powYYIkLRk9erTcj9mfOXNm6+uvv9Zn+xbIz8iwJyepUKGC1bJlS1lwH0gYULp0acsRfDuPSZ8+vTV+/Hh9dvJgcgOi0MXfXyKi4HDHZZW8fv26/Oe/ePHicT6IzFKgQAFr8ODB1oULF/RZvsUnKIBLly5Z7777rgQorveBBQFB1apVrVmzZkkQEYi5c+fGutZPP/2k98Q1ceJE53Effvih3urbc8895zzPHkDVrVtXtn3zzTd6i/+C7WcEGzdutFq0aOEMbl0XBLDIJvnnn3/qM/wTyM/IsAdu7hYEbQhoGzdubA0fPtw6ceKEPjP58D9+RKGLv79ERMHhji7AfejQIbVz505n3a0cOXIoR7Ag2QCTAzJMYgjg6dOnZbgihgBWrlxZZc+eXR8ROjDkD0MlDx8+LEMH4yvYfkYY9rl582aZ03flyhWpJYf7QW02U5+P4mIBX6LQxd9fIqLgcEcHbpQ0kOAEARYSdfibNZPCG//jRxS6+PtLRBQc2EVAiQ61yfCh3rFjR72FiIiIiIgSgoEbJboyZcrIN7GmODYRERERESUMAzciIiIiIqIgx8CNiIiIiIgoyDFwIyIiIiIiCnIM3IiIiIiIiIIcAzciIiIiIqIgx8CNiIiIiIgoyDFwIyIiIiIiCnIM3IiIiIiIiIIcAzciPzVr1kw99NBDzqVdu3Z6T/Cx3yeWLl266D1EREREFIoiLAfdJgp6EyZMUL1799aPlFq1apWqWLGifuTejh07VO3atfWj2O666y5ZihQpoqpUqaIeffRRVb58eb03tqxZs6pz586pdOnSqbRp06qCBQuq7du3y77PPvtM/f7779L2BQFfqVKl9CP/4bmmTJmioqOj1ZkzZ1Tu3LlVrVq1VMeOHeVe7HCvcPnyZXX9+nV5TT///LNsSw4DBgxQAwcO1I9iREZGqu+++04/IqJgxd9fIqIggcCNKFRUr14dXzRYWbJkkXWPHj30Hs8cgY4ci6VAgQKWI4hxLiVKlLAcgZhzP5ZnnnnGunLlij77FvOco0aN0ltucfwnJtY1vC3ff/+9Pst/jv80WREREc5rZM6c2dlOnz69NXPmTH1kbI6gTo7Ba01OUVFRzvs1C94zIgp+/P0lIgoOHCpJIWP//v3qxx9/VI4ARg0dOlS2zZo1S/3777/S9sc777wjPU9m2bNnj7p48aJavXq1qlGjhhwzffp0+YY5EC+//LJyBHQel+bNm8txuXLlUg8++KC0/YXePMd/nPAli2rdurU6evSo9Pzt3LlTVahQQTmCTNW+fXv1008/6TOIiIiIKNwwcKOQ8fnnn8u6WrVqqkOHDjJc8fjx42rlypWyPb5Spkwp88Aw7LJo0aKybeLEibL212OPPaZ69Ojhcbl69aochwAOz+evS5cuqT59+ki7atWq6osvvlD58uWTx6VLl1bffPONypMnj7px44Z67bXXZDsRERERhR8GbhQy0BMGCH4wL61+/fry2GxPKMxda9WqlbRPnz4tQVNiOHHihPr222+ljQAvEAsXLpTgFIYMGaJSpUolbSNnzpyqZ8+e0l63bp3avXu3tImIiIgovDBwo5CwceNGGSoJLVu2jLWeN29eogVZGI4I6BVDIJcY0Et28+ZNlTlzZlWvXj29NTYMfTx79qwkErFbunSprBGgeTr3qaee0i2lFixYoFtEREREFE4YuFFIML1qyP5YpkwZabdo0ULmuyFo+/rrr2VbQly7dk0tWrRI2shCGciQRm9mzJgha/QUYninO4UKFVLZsmVTixcv1ltibNu2Tda4nxQp3P+63n333eree++V9i+//CJrIiIiIgovDNwo6KEXavbs2dJGcg4Dc7tMoo+EDpdEqv0mTZqoffv2qUyZMqkRI0boPQmDEgFIqAL2e/fX3r17ZV28eHFZe1KyZElZc6gkERERUXhi4EZBDwk4Tp06JW3XOWImGMIxmEvmy7vvvhurMHWlSpUk0yNqwf3xxx+qW7du0svlqzacv5D1EjDsEoGhJ/fff7/UWsuSJYveomR4JTJGQt68eWXtCV4DIEMmEREREYUfBm4U9ExvGrIpIqOkXZs2bWSNIGfmzJnS9gbp/7///nvnsnXrVvXXX39JSQEEPYcPH1abNm2S6yUGkwkTQVv69Oml7c6aNWukPEHdunX1FqXOnz+vW8rruYD5c4CC20REREQUfiJQzE23iYLOhQsXZEgkep5eeuklNW7cOL3nFvSaIQCrXLmyBF2uEBCh3hlMnjxZderUSdqAeW3Hjh1TW7ZsUVOmTHEm92jQoIHMm8uQIYM8hqxZs0oSEdRlQ4p/X1BnrWzZstKeNm2aeuaZZ6TtLwRhGTNmlPYHH3ygXnnlFWm78+KLL6oJEybIXDkMzzTwWvG60JuH98ET1Iqzn5fYvvvuOwmU7SIjI2U7EQU31LUcOHCgfhSDv79ERLcfe9woqM2dO9c5XBA9YqNHj46zoDQAbN68OeA5XmnSpJFgBz138+fPd9ZvW7FihRS9TgiTlATPYQpwB8IeNCLA9Mb0tCG4jA8EdfhPWFItSRkUEhEREd0R0ONGFKwaNGiAHmG/l759++ozb4mOjnbunzx5st7qWZ06deTYnDlz6i0xsmTJIttHjRqlt3hXtGhROb5hw4Z6S+Dy5csn1+jevbve4l69evXkuIcfflhvidGxY0fZXr58eb0leTiCYLkP+xIZGan3ElEw4+8vEVFwYI8bBa2jR486C1c//fTTUq/N04KhgIBeLse/a2nHF4ZeAua+2eeZBQKZJH/77Tdpt23bVtbxUapUKVljbp43Jvtk6dKlZU1ERERE4YWBGwUtJBsxSUK6d++uWrVq5XFp3769HIcheevWrZN2fNmzU6ZKlUq3AmMSpaD2WnyGSRrVq1eXNV6Ta3Fu48CBA5JUBapWrSprIiIiIgovDNwoaJlskgUKFJDEI97Ye7WQCCS+Dh48KHPdAL1X9nlm/kKGyjlz5ki7Tp06Knfu3NKOD1P+AElazDVdTZo0SdapU6dWzZo1kzYR0Z1o//79kqV30aJFasOGDer48eN6z+3x5Zdfxio5g2XZsmV6b/hAQivX17l27Vq9l4iSCgM3Ckq7du1yZkFEUBYRESFtTwoWLOgsFYAA559//pG2v5DcAwFf7dq11aVLl2Rbv379ZB0oJONApkow5Qp8KVeunCpcuLDUo7NDPblatWpJ+4033nBe10A2zJEjR0q7a9eu8U5OQkQUqjDqAJl1Ue+yePHi8oUZRjrUrFlTysjcd999atCgQZIV2BsMycffUNclZ86c8vcZIyA6duyopk6d6kya5QqjH0y5GXyGYfn777/13ltWr16tunTpomrUqKEeeOAB1bhxY8nciSkC/sKIlK+++ko9++yzasyYMXpr/G3fvl29/vrrql69epKJuWHDhvK+ocapKwTEeG3I6GxeL6YXEFESi5nqRhRc3nzzTeck+PXr1+ut3g0fPtx5zty5c/XW2MlJHB9GVsuWLWVxfLDLBPvSpUtbqVKlch6TPn16a/z48frsW/xNTtK5c2fntf7880+91Ttz7Xnz5uktt+zbt08SpWB/7ty5LUdAaX366adWjx49rAwZMsh2x39WrDNnzugzbmFyEiJKqGD+/cXf6rRp08o94e+4IwCyHAGQ/J1+4403rEqVKjnv+e6777bWrFmjz4wLnws4LnXq1PI30yzlypWzHEGh8zpYcuXKZa1atUqfeQueF/vxN90dR7Bl/ec//3FeB8+VLVs25+NMmTJZK1eu1Ee7d/36dWvKlCmWIyB1nod7Twi8ZxEREc7rZc6c2dnGZ+LMmTP1kbEdPHjQeZy7zy8iSlwM3Cjo/Pvvv1bBggXlgwBZFfHYH4cOHXJ+gLRp00ZvjR24uVvwYV+4cGH5wEfwd+LECX1mbP4EblevXrWyZs0qx1WrVk1v9c1b4AZ79uyx6tat67xns+De27Zt6/GeGbgRUUIF6+/vmDFjYt0PvuRyZ8WKFVaBAgXkOAQhP/74o94TmwncChUqpLfEdvz4cWvo0KFWmjRp5DgEN9hm5ytwQ6CJ/VhwrStXrsh2BED4zMD27NmzW+fOnZPtdv/884/14YcfWkWKFHFewywJCdyQbdlcp3Xr1tbRo0dl+86dO+XLTmzHZ83GjRtlux0DN6Lbi0MlKeggoYcjCJPskBg2gsf+wHBJnIMFw0cMDEMx290tSPqBuW1LliyRYSIJmZOWNm1adebMGbkuMkv66+zZs3IOEq24U6JECbVq1SoZsoK5Gxiqs3TpUkmk8sUXXyTonomIQs2OHTvUa6+9Jm0Mcccw82LFisljV/Xr15f5V7ly5ZIhju3atfM41NGbPHnyqD59+qhx48bJY2Qd9jT32BNzbqNGjeRa6dKlk8cYiukIoKSNoZXu5sU5gjMZEo/PKxw/duxY9cgjj+i98YOpAbgPQHIrfJ5geClgnjfeV7zuGzduON9vIko+DNyIQggStTRt2lSyaOKDP3v27HoPEdGdIyoqSoKJlClTyhdZadKk0Xvcwxd7Zj4wsg9/8skn0o4PBH4GvmQMxHvvvSf3i7ljrjAXzwRyf/75p6ztnnvuOZn3PGvWLLVv3z718ssvq/Tp0+u98bNw4UJnApchQ4bEyaSM+X09e/aUNrIb7969W9pElDwYuBEFCN+EDhgwQI0ePVpvCT64PywmwQsRUbhAj5TJ/vvoo49K75M/EHDdc8890jbZeOMDoyOMu+66S7f8g8y/+OLNXabkq1evSjAKmTNnlrUdsgwjIdUTTzwRcKkaJOzCyA5kKLbDyA1AgIakJO489dRTuqXUggULdIuIkgMDN6IALV++XLJ/BXPghvvDsm3bNr2FiCg8ICOjqfHZokULWfsDwQ6yNwL+Np4+fVragZo7d65uKUmDn1jQk2YCt8jISFnb+cqu7M2HH36osmXLJsNK7cxnBLZ7mpZw9913q3vvvVfav/zyi6yJKHkwcCPyE2oDRUdHOxfMiQtW9vvEMnv2bL2HiCi02YOHKlWq6JZ/TNkYCDQIuXjxovroo49Ut27d5DHKB7gLsAKF2p/oATTXxTw2zGu+Hfbu3StrlFHwpmTJkrLmUEmi5MXAjchP999/vyQ6MQsmbgcr+31iMR+6REShzl7rDL1BgUCtN8NTzTTM+bIXln7wwQdVqVKlpMcKiTxQew0FqFH7MyFQPxRzlZFcqnPnzjLsctiwYZJ0JLEhMUv58uVjfRag19IkabG/L+7gfEDwSkTJh4EbERERhQzM1zICnWNmP95+HTtsN0Wlsaxfv17t2bNHhjFiH4ZY7ty5020CkUBcu3ZNht5jzh6GKeLLwRw5cjiHgSYm9A5izrN99AWyYhq+kpyYOXcINoko+URY9lm2RERJAIlSMOfODkOMvvvuO/2IiIKVu9/fQoUKqU6dOulHSQPP687zzz+vJk6cKG2ks8+QIYO0/YEh7sjMCzNmzFBPPvmktAHlWJD0BK8NmSftUOblwIEDEmghpT965fC8uAbS9BuY+/zqq6+qLFmySDIQbxCgbdq0Se3atUvmzaHUC9SsWVPS8GfMmFEee2PuGffw9ddf663+QRBmnuODDz5Qr7zyirTdefHFF9WECRPivDdoFylSRNrz5s3zWNKGiBIHe9yIiIgoIOfOnZMvXpJy8cTUGYOTJ0/qln/sx6M+mb8wTBKZIN966y2ZG4dhhwh8nnnmGWc6/UChlw1z7p599llJy//ll1/KNvTwvf322/qopGMPeNH7543pacuaNausiSh5MHAjIiKigCBwcRdsJebiiX1+8U8//aRb/kEPl4F5a/GB4YyjRo2SNuZ8ffXVV9JOKJQ2QKp/QK23pBgy6coEwYcPH5a1J0eOHJE1ygYQUfJh4EZEREQhA8OsTWp8U4fMHwiEUIcTkLUx0MQmdpUqVdItJUMoE0vdunVljXlvp06dknZSMsEr5vB5Y7JPBnNSLqI7AQM3IiIiChnoJapfv760Z86cqU6cOCFtXzAc8bfffpM2imAnhP05/S2GjeQmOA9z2jwlRrEnCbkdPW7Vq1eX9bp169T169el7QqBqemRq1q1qqyJKHkwcKM7CuYQ2NM8YzHfwIYT19fYpUsXvYeIKPQhcQl63RAA4e8baqF5g94rk3wje/bs6uWXX5Z2fCEJieFvLTl81iDtfpkyZTwmEtm6dauskTTkdgxLfOyxx2R94cIFNWfOHGm7Qo05SJ06tWrWrJm0iSh5MHCjJIPJ65jI7G7BpHAM0cCwkL59+8p8Bm8JTnfs2OH2Oljy588v12rcuLHq37+/2rZtmz4rLnxraFI8IzUyFgxJcbV69Wr5zwDq9aAOGq6NrGqe6v64g1TRqPmDzGt//PGH3hp/27dvV6+//rqqV6+eqlChgmrYsKEaNGiQ22ub14ZJ7nitmzdv1nuIiEIfMi+aBB7Ixti2bVuPQwvx+YHhlfhbieQfCETw2REf6C3r2LGjGj9+vDwuW7as35kUGzRoIDXbYPDgwbHS8QOKW5tsmS1atJBAKbHgNRcuXFg1adJEb4lRsWJFVatWLWm/8cYb6tixY9I2tmzZokaOHCltFAaP7/tGRIkE5QCIksKZM2cQicniCNSs8uXLO5eSJUtajg8A534sjmDEcgQY+uzYoqOjnccVKFAg1rVKlChhpUuXLta1nnnmGevKlSv67FtGjRol+7NkyaK3xHbz5k3rP//5j/M6jg9OK1u2bM7HmTJlslauXKmPdm/fvn3W888/L+ea83D/CeEIGq2IiAjn9TJnzuxsp0+f3po5c6Y+MjbHfzDkGLxPySkqKsp5v2Zx/EdK7yWiYBasv7/4e92/f3/n38aMGTNazz77rDVhwgRr9uzZ1ujRo63mzZvH+tvpCLj02XG1bNlSjsHfVLTN4gi4rOrVq1uOoMt5HSyOgMf6888/9dkxfH3GfPXVV5YjeJRjihQpIu/tRx99ZL3yyivy+YLtOXLksH777Td9hnfmnrH2xtyXu88CfGblzJlT9uM19uvXz/r000+tHj16WBkyZJDtxYsXl890VwcPHpT9WObNm6e3ElFSYeBGScYeuOHDyZ2dO3daffv2dQZe+MB0FxjZA7fJkyfrrbfcuHHDWr16tVWjRg3ncb1799Z7b/H1oYoPdXP+0KFDncEfPpyqVasm27Nnz26dO3dOttvhtTz55JNWypQpndcwS0ICN7xec53WrVtbR48ele14PgS72J4qVSpr48aNst2OgRsRJVSw//7ib1+LFi2stGnTxrlPLPfdd598wYd2mTJlrD/++EOfGZsJgjwt+BIPf3NfeOEFa8WKFRI4uvL1GQPLli2T+3C9PpZHHnnE2rt3rz7St8QI3GDPnj1W3bp1Y90LFny2tG3b1jpx4oQ+MjYGbkS3FwM3SjL+BG4GAhsERDgW6+PHj+s9MXwFbgYCraJFi8px+NbSla8P1dKlS8v+Ro0a6S237Nq1y3kP+DbXbsOGDc59CNzatWtnTZo0ybktvoHbxYsXrbx588o1qlatal2/fl3viXHq1CnpzcT+Bx98UG+9hYEbESVUqPz+4u//mjVrrFmzZsnnBP5O7969W/adPHnSqlKlitz73Xffbf3888+yPbH5E7gZCNAWLlwoIyYQzLl+7iUHBLWLFi2ypk6dai1dutQ6ffq03uMeAzei24tz3CgoYB7ZJ598Im3MORsxYoS0A5UuXTrnfAPHB466dOmStP313nvvSf0czB1zdd9998n1AfPX7FBEFdm2MOF9//79kukM89ASClnQTHHXIUOGxMlehsnrPXv2lDaygmGOBBHRnQh/nzFfC7XQMLf48ccfVyVLlpR9uXLlUt9++63MEcZc5Tp16ihHkCf7kkvx4sUl2Ue7du1kznIgBcGTSoECBVTTpk0l62ajRo0kkQsRBQ8GbhQ0WrdurYoVKybtGTNmyDo+LJ3kJGXKlM5Ay1/4EMUHVuXKlfWWW65evSrpnCFz5syyNpDd7Mcff1Rjx46VCeCBQiKXs2fPxknHbGoUIUDDfzjceeqpp3RLqQULFugWERHZZcqUSf6mtmnTRgI5BE5JBZ8XyHyJBYmiwg0SiuG12bNrElHSY+BGQQPBz6OPPirtI0eOxCsT47Vr1yTDGNSuXVuCt8Qya9YsZ+AWGRkpazvcf3wVKlRIZcuWTS1evFhviWEyZOK1IBuaOygie++990r7l19+kTUREcWVJk0a9cUXX0jGXaTmTyooU4BMxFjCNXDDa/vggw/0FiK6HRi4UVCxDy9E+vtA4HikOt63b598sxrf4ZauUB8IqZS7desmj5ESuUSJEtJOanv37pW1r2+GzXAgDpUkIvIOX+iZtPyJ7emnn1bR0dGxFqT2DzcvvvhinNeJ8j5ElLQYuFFQsY/xx9BBd959991YxaUrVaokw15Qjwa9dAiw0FOFxwlx+fJlGeOPD/jOnTuru+66Sw0bNkyGQya2+++/X5UvX15lyZJFb1Hq5s2b6sqVK9L29c0wXj9cvHhR1kREdPvhbzHmbNuXcJwnhs8k19dp//wioqTBwI2Cir24p6cgZM+ePc4i2li2bt2q/vrrL+kZwzkosr1p0yYJfBICwy6XL18uyVIwTBHBVY4cORJ8XXcwSR7DaezfWNqLs6ZPn1633DNz7hBsEhEREVH4iUBqSd0mSlToMcO8LYiKipKJzL4gEEMvGkyZMkV16NBB2ghqzDDKyZMnS8YwAwHWsWPH1JYtW+Qck6CjQYMG6uuvv1YZMmSQx4CJ1K+++qp8M+ipR89AgIYAcNeuXWru3LnOuXM1a9ZU33zzjcqYMaM89sR+zxhGgm8kA4EgzDwH5hG88sor0nYHw1YmTJggc+V+//13vVXJ+4T3BL153uZZfPbZZ7HOS2yYD4GfrR3mCWI7EQU3/O3GfCY7/v4SEd1+7HGjoHLy5EndUn4PL8FkcwQsyBQ2f/58NXHiRNm+YsUKCRjjC71sSPP/7LPPSlr+L7/8UrZhUvvbb7+tj0o69oATwak3pqfN3mMZCAR1+E9YUi1JGRQSERER3QkYuFFQsfcKlS5dWrcCg/loqNED6ElKLMh4ifpAgFpvSTFk0lW+fPlkjeGf3iALJ6BsQHygJ9JdwJVYi72HlIiIiIgCx8CNgooZ5ogkJUWLFpV2fCBhCWDum32uWEKZOWiY93bq1ClpJ6VSpUrJGvP6vDHZJ+Mb7BIRERFRcGPgRkEDiUBMHbLHH39c1vF14sQJ3VIqVapUuuUdarThPMxpQw0ed+xJQm5Hj1v16tVlvW7dujjFuY0DBw44e+SqVq0qayIiIiIKLwzcKCjs379f5pIB0u6/8cYb0o6PgwcPylw3QA+Ufa6YN8uWLZMUx2XKlJGkJu4ggyUgaUh8hyUG4rHHHpP1hQsX1Jw5c6TtCjXmIHXq1KpZs2bSJiKi0IJ51PZSN1jwuRSMMA3B9V7Xrl2r9xJRUmHgRskKQw4xvwo9RcgMieQfyBqZP39+fYT/kKBj2rRpqnbt2urSpUuyrV+/frL2B7JQmqKsgwcPjjPEEsWtTeITFFRFoJRYypUrpwoXLizZKu1Qi65WrVrSRjCL98gOmTRHjhwpbRQGj29yEiKiUIZyMMWKFZO/gVh8jdrA33N8+YZjW7Zsqbd6hyRRKAuDc+677z7n5wyg8LZ5bvuC58Dfdoye6Nixo8yPNvU5XWHkhClzg/neWPAZCUjwhOye/iwfffSRnBOo7du3q9dff13Vq1dPMiI3bNhQDRo0SOqjujp+/LjcH77MNPeMqQlElMRQDoAoKZw5cwalJmQpWbKk5fhwdC5169aVbREREc5jChYsaC1fvlyfHVt0dLTzOMcHivM6zZs3tyIjI63SpUtbqVKlch6TPn16a/z48frsW0aNGiX7s2TJorfE9tVXX1mO4FGOKVKkiBUVFWU5PgStV155xcqUKZNsz5Ejh/Xbb7/pMzyz3zPa3uB+cNy8efP0llv27dtnOT78Zb8jsLQcwaj16aefWj169LAyZMgg24sXLy7vtyvHfxRkf/ny5fWW5IH3EfdhX/BzI6LgFwq/v8uWLZP7Mn9L8Xlw6tQpvdc9/A01r2fp0qV6q2fvv/++8/jPP/9cb42BzyNsT506tfy9NUu5cuWsvHnzOs/DkitXLmvVqlX6zFu8fT6tXr061jW8Lfh8DdTAgQNjfR5nzpzZ2cbn6cyZM/WRsR08eNB5nLvPLyJKXAzcKMnYAzd3Cz4YSpQoYT3++OPW9OnTrStXrugz47IHQe4WfEgXLlzYaty4sTV8+HDrxIkT+szYfAVugP8AlClTJs5zYHnkkUesvXv36iO9S6zADfbs2SMfxuZ6ZsHrbtu2rcfXy8CNiBIqFH5/n3nmGbmvbt26WWXLlpX2//73P73XvfPnz1v33HOPHItzrl+/rvfEdfLkSeff6Xr16umtt5jArVChQnpLbMePH7eGDh1qpUmTRo7D5x+22Xn7fPrzzz9lv6dl5MiRzmuPGTNGn+WfyZMny3lYWrdubR09elS279y5U74oxXZ81mzcuFG22zFwI7q9GLjRHQUfcPiA8Ra4GQjQFi5cKN80Iphz/ZBNDn/88Ye1aNEia+rUqfIN8enTp/Ue9xi4EVFCBfvv78WLF62MGTPKfeFv9VtvvSXt6tWr6yM8mzNnjvM1TZgwQW+NCwEhjkFw9Ouvv+qtt/gK3IyPP/7Y+Xxjx47VW2ME8vnkat26dc7rHjp0SG/1De+d6RGsWrVqnOAVvZZ58uSR/Q8++KDeegsDN6Lbi3PciDwoXry4JPto166djPVHiYLkVqBAAdW0aVPVvn171ahRI7+LlBMRhSskk8J8MyS2QpKMVq1ayfYff/xREl95gwRQ+FsKmBONRFCudu7cqRxBnbR79uzpLNMSH/g8MRwBlm4l3IwZM2SN+eIFCxaUtj8WLlwo89VgyJAhcbIwY44eXjMguzHmBhJR8mHgRnekq1evOidy24t+h4twfm1ERHbTp0+XNQKwtGnTSh3Pe+65R7Z9/vnnsvZm3LhxKl26dOrkyZPqvffe01tv6d27tyQ/KVKkiHr77bf11vixLHROxUCgmRhwb1988YW0W7duLWtXKHFz9uzZOIHp0qVLZY0ADUlJ3Hnqqad061atVSJKHgzc6I6ED7GBAwfKEo7BjXlt27Zt01uIiMIPam+uWLFC2s2bN5d1RESEM1OkCeq8uffee9Vbb70lbWTpPXLkiLRh9erVavHixdIeO3ZsrFqe8TF37lzdUtI7mBhWrlypTp06JW1TQsbVhx9+qLJlyyZZl+3MZwS2I6uzO3fffbe8R2BqrRJR8mDgRncUpGyOjo6OtSC1f7hxfY2zZ8/We4iIwsesWbOkxwlD/Ox1LNu0aSNrDJXcuHGjtL3p1auXKlmypKTq79+/v2xD7xi2A3qyMEw9vi5evChp+rt16yaP8VkUGRkp7YTCewBly5aVkgiB2Lt3r6wxNcAbvDfAoZJEyYuBG91RcuXKpR544IFYSzjOE3N9jeZDl4gonJgeNQzzs/8tR1CEHiZAfU9fMMTyf//7n7RRSxQ1zWbOnCm1MjNkyKA++OAD2ecL5ovZi1I/+OCDMicO99KnTx9Vo0YNKV7tzz35A6NHTC/eo48+Kmt38NlXvnz5WJ8FN2/edNaUy5s3r6w9wfmAAJSIkg8DNyIiIgo5e/bsUZs3b5a269wu9MCZ0RQYcXD9+nVpe/Pwww/LfC70tKEQtRk+ifnCSAzlDwRSpiA1lvXr18t93rhxQ/adPn1akp38+eef+oyEWbRokTp//ry0vQVu6OHDtAD76AtzHvgaApo5c2ZZX758WdZElDwikFpSt4mIkgT+44M5d3b4Rvy7777Tj4goWLn7/S1UqJDq1KmTfpQ08LzeIAvk4MGDZU4berpy586t98RAxkQTvCHA8WeoI+bMoVfq3Llz8rhMmTIy3Dx16tTy2BNkspw/f768L7///rveGuPMmTPqwIEDavny5ZIIBfeKXjxkgjRz8WD06NHq1VdfVVmyZJFEIv5o27at+vLLL2UOmq8Mmq4QhGXMmFHa6FF85ZVXpO3Oiy++KJk1XV8f2kjaAvPmzXNm9CSipMEeNyIiIgoIAht88ZKUizf4ztlkjETAhiAIgY99sSfS8HdoIsq+IIuk8f777/sM2nzBMMnKlStLDx7uCUMWETQ988wzzlT88YEeMwSk4CkpiTcIHo1r167plnumpy1r1qyyJqJkgh43IqKkxALcRKErGH9/7QWn/VnSpUtnOYJNfbZ3kydPdp4XHR2tt3rnbwFuWLVqlfP648aN01sDL8A9depU53U2bNigtwYmX758cn737t31Fvfq1asnxz388MN6SwwW4Ca6vdjjRkRERCHF9KClSZNGhgpimJ67ZdiwYXIcanfaU/EnJ9SZMzCEMr5MjyPm31WrVk3agTLFxDEPzxuTfbJ06dKyJqLkwcCNiIiIQgaG9ZmC0/Xr15ekHJhb5W5BkhGTXdKfmm63A+bRGUiiEh8oFv7tt99KG/PkMM8vPqpXry7rdevWeUzgguDy8OHD0q5ataqsiSh5MHCjOwY+fNasWSNzAvAhZSafExFR6Fi6dKn6+++/pW3qtXmC+Wkm4+SqVatiFddOLph/Z1SpUkW3AvPVV19JpkqIz/w2w5x74cIFNWfOHGm7mjRpkqzxXtpr5RHR7cfAjcIavtlEAdWCBQtKYdI6deqo5s2bq1q1asm3sHXr1pVMX94gjTImZAey7NixQ58dw34N1BryVcT03XfflWORwcsVrm2u5brkz59fhr40btxYishu27ZNn0VEFB7MEEH0VrmWAXAHmRfBsixJYpJcdu3apTp27KjGjx8vj1EwG72C8WFeB+qr4fPMFwRfhQsXVk2aNNFbYlSsWNF5/htvvKGOHTsmbQN17EaOHCntrl27yucMESUfBm4UtjC/AWmdhw8frk6dOiXDSZA6etSoUap79+7qnnvukcxljRo1kg+kf//9V58Z26VLl6R3DjV48MHnz4J5F3bmGliQGrpv3756j3uYj2GOd4X7NPtQW8f+vEjtfOjQIbVs2TI1aNAgKb7dvn17uR4RUajD370FCxZI27Xotieoz3a7hktiCKN9qOYjjzwiRbeRrRKlBaZOnSrHIVhCz2F8Mlb+8ccfMmoE8LmWMmVKaXuDDJT4bDh69KjecgsKjufMmVN6I/GZgS/9EOihNAG+7MTnR/HixeOUhCCiZBCTo4QovMyZM8dKkSKFZLpq0qSJ5fjA0ntucXwYWS+++KIzI1avXr30nthMtrDy5cvrLYEz18iRI4fz+davX6/3xmWyuLnLLoYsZ+YayH7m6saNG9bq1astx38WnMf17t1b700ezCpJFLqC6fd34sSJznv48MMP9VbfnnvuOed527dv11vdS0hWSU+LI3C0KlSoYL3wwgvWihUrrJs3b+ozb/E3q+R7773nvK4j+NNbvTPX9vQ5tmfPHqtu3brO65olVapUVtu2ba0TJ07oI2NjVkmi24s9bhR28G3ks88+qxwfjKphw4by7SyGSrpKmzatDFkxRVnRM5fUQwsxTAU1fODNN9+UdWLDt68PPfSQzOcoWrSobHP8Z0fWREShrHPnzjLkEQuKQvvr008/dZ53//33663uobC4ORY9UP74+uuvnee4WzAnb+vWreqjjz6ShCrxTSYCGNJorosRI/7o0aOHHP/zzz/rLbGVKFFCPjPw+Yl54OgZRI8gphsgEYxrcXMiSh4M3CjsYDjHxYsXZQgKPqy9DSPBh+eIESNUpkyZJKDavHmz3pM0UqRIoQYMGCDtH374QS1evFjarrJkyaJb8ZcuXTrn/InTp0/LcE0iIiJPUFoAX2ZiiD2CQn+GohLR7cPAjcIKAjYzaRsT0jGPzRfMg8P4/+joaPk2NymdPXtW5iSYb3H79OkjPYOuEvJtrB2+YQUErwjkiIgouGFOGb7gw+Kphyy5YX447s+eIZOIkh4DNwor33//vTMRR7CmLUZQZorCIkNkUk2WR60jDHmB2rVr+zWBnYiIkhcSYWHkCJZgDtxwfx988IHeQkS3AwM3CivoNTMqV66sW8EHQ1CqVasm7X79+skHdWLavn27zKfbt2+fDAPFcFAiIgpeKBuDzzD70qJFC703uGB+oeu9orwOESUtBm4UVuypjvPmzatbiePgwYOx0jy7LkidHAik6wdMBjd1fQKFem9IRGKWSpUqSV0f1ObBdbt16yYJV/CYiIiCF/52Yxi9fQnWOWb4fHW918SYm01E3jFwo7By+fJl3VLS05SYMA9u/vz5HpfVq1frI/3ToEEDqUMEQ4YMcVuzzZc9e/bI8FCzIGvZX3/9JbXeMN/v8OHDatOmTW7n0RERERFR6IiwTPYCojCAQtpItwwIXFCQOqHQm4bArGzZsmrNmjV6a1yYQ+YpWDTXQGISpI02EFRVrVpV2ih6agqcYsI3evDwDSYSmthhzkOFChWkjcKpSF1tYF7bsWPH1JYtW9SUKVOchWoRJOJ5M2TIII9dffbZZ+r333/XjxIf5kMgsLSLjIyU7UQU3JCEwvxtMvj7S0R0+7HHjcKKfXjkqVOndCtxIDDLmjWrx8WfHj4EVnZVqlRRjz32mLQxDw29ZQmRJk0aVahQIdWmTRsJFE39thUrVqioqChpu4NgEP8JS6olKYNCIiIiojsBAzcKK6VLl9YtJcMGg419KKcxdOhQCQpRZw1FwCGxMkCivEGdOnWkjV41T9DD5y7gSqzF3itIRERERIFj4EZhBQk6UOQaVq5cKWt/ICPWgQMHkmUuWPHixVWXLl2kPW7cOOkpTMz5eUhYAujNwzw9IiIiIgo9DNworCArF9Lgw7Rp0+LMD3MHwQzmgBUrVswZ5NxuGMaYPn166XVDopLEdOLECd1SKlWqVLpFRERERKGEgRuFHUyiR68bkpP06NFDb/XstddeU6dPn5a2t3lgSSlfvnzOcgITJkyQBCOJASUMMNcNMIzUU3ISIiIKDs2aNYtV5qVdu3Z6T3ixv0YsZuQJEXnGwI3CDmqWDR48WNrIrIhMkwjiXCFRyCuvvKI+/fRTeYwgD9kfk0uvXr2kZs/Vq1edmTHjC3Pp0ONYu3Zt6cUDFPomIgoHffr0cZskCgsSNOFzoH379vJF2MmTJ/VZcSFYMOdt2LBBb/UO2XzNOfYanCigbbbbl5w5c6rChQur6tWrq44dO6qpU6eqK1eu6LPiWrt2rWTh3bhxoySO2rVrl95zy99//63ef/99GWGCLMPm2sgkHEiy8D///FPeS8xDRu3PhMBn16RJk9Sjjz4q2ZJr1KihOnToIBmN3U1DwGvDsn79enm9mzdv1nuIyCOUAyAKR4MGDbJSpEiBTzArV65c1v/93/9Zjg9ca9asWdaAAQOsokWLyj4sb775puX4YNFnxtayZUs5JnPmzNL2Z3F8eOqzY2AbrhEZGam3uDd8+HDnPWHJkiWL3nNLdHS0c7/jA9v5nM2bN5frly5d2kqVKpXzmPTp01uO/1zos5NHVFSU837M4uu9IKLgEIy/v927d3feS/ny5WMt+fPnt1KmTOncny5dOuutt96y/vnnH332LY7AxbrrrrvkOEfw4/FzwLhw4YKVJ08eOR5/a69du6b33Po7nzp16lj3U65cOStv3rzO+8GCz6RVq1bpM2PD330cM2rUKL0lNkeAE+t6OD5t2rTOx61atXL7Wu327dtnPf/883Kv5jx8tsQXrleyZEnntfC5Y7/2Qw89ZJ09e1YfHZsj4JRj8F4RkXcM3Cis4YOoTZs2sT7U7Ev9+vWttWvX6qPdMx/GgSyuH7j+Bm6XL1+2ChQo4LyOr8DN3YKgrXDhwlbjxo0lEDxx4oQ+M/kwcCMKXcEeuLmDAOurr76yqlWr5jyuadOmsQItY+TIkc5j8MWeN3379nUe+/333+utMczf+UKFCuktsR0/ftwaOnSolSZNGjkOXwZimytvgduVK1esggULyv4yZcpY27dvl+3Xr1+3JkyYYEVERMi+wYMHy3ZXO3futJ588slYga1Z4hu4Xb161SpRooRcA6/piy++kAAYweN///tf5xeoLVq00GfExsCNyH8M3OiOgIAIH7IzZ86UXrfFixdbJ0+e1HspqTFwIwpdoRi4GTdu3JCeJXMset5cIehB0ID9+NILgYg7hw4dkt47HNehQwe99RZfgZvx8ccfO+9n7Nixeust3gI3BEXm3B9//FFvveXxxx+Xfffdd5/ecsuGDRuc5yJwa9eunTVp0iTntvgGbiNGjHBew3W0CWD0i9m/YsUKvfUWBm5E/uMcN7ojIGMj6plhkjfG8mNeADJQEhFR+EJNTMxDwzwwcAQZzmRUBrLtfvjhhyoiIkL9/vvv6oMPPtB7Yuvdu7fM48K8Ncwviy97shFHMKhb/sHrcARvauLEiTKPzBXm9gHmrrmqVq2anPPyyy+r/fv3q5kzZzrfl4RwBKKyfvDBB1Xz5s2lbff666/LPD/AfRNR/DFwIyIiorCFwAzZgwGB17x586Rth0QaJqvh0KFDpe6l3aZNm9SsWbOk/e6776rcuXNLOz4sW/KQu+66S7f8g7I1bdu2VZ07d5ZA05VJxJU5c2ZZ2+H4H3/8UY0dO1aSpQTin3/+kfI6Fy5c0FtiIHPxnj17pP3EE0/I2hW+OG3durW0Fy1alCz1UonCBQM3IiIiCmsIHFAmBpDF0B0EZBiJce7cOTVo0CC9NUbPnj1ljR6r559/XtrxNXfuXN2KSYmfWBBcoTcOPF3XXbDnD/RIZsuWTTIV223btk23lIqMjNStuDDiBZDlGL2aRBQ/DNyIiIgorGXMmFGVKFFC2tu3b5e1K5RjMUMgEagcOHBA2gsXLlQ//PCDBH4o1WICwEChNwznd+vWTR6jfIC3YCcQ6PnCMMW9e/dKb9uAAQP0nqSF5zOKFy+uW3GVLFlSt5TavXu3bhFRoBi4ERERUdjLkyePrDHkzxPUHUOv0vXr12VO240bN2QNL730kl9zwo4fPx6rsDTmfpUqVUp6rFAzDcMyP/vsM6m1mVCoKffAAw+oe++9V61cuVI9/PDD0qPoLYiKD/REli9fPlYABvahmRgS6Yl9Trm7uqpE5B8GbkRERBT2kFQEvAUOGEqIXjHMi/vqq69U165d1a+//qry5s2rBg8erI/yDkMWUVDaLAikMA8MQSD2ITnKzp073SYQCRSGKmLBvLl77rlH5sDFt0fQG/QOolj27Nmz9ZYY58+fl7W3oA3sc+4uX76sW0QUqAikltRtIqIkgWE7AwcO1I9iYIjQd999px8RUbBy9/tbqFAhydCblLwN9+vRo4cz+6O//42pW7eu/M0pUqSI+u233/RW99AzhjlvxowZM9STTz6pH7nXqlUrNX/+fHlvXOdxnTlzRoZeLl++XI0bN0565TJkyCDXbdmypT4qBgJMzLMbNWqUvE5vjh49KkM/165dqyZNmqSOHTumUqdOraZPn64ef/xxfZRnCMZML2J0dLT03gXijTfekOGl6E38+++/9da48Hrz5csnbfQS2v/toD1lyhTp0cP9EJFn7HEjIiKigCCwQBCUlEtiO3nypKwxl82Xfv36OXvokJDEV9DmCwKbypUrq7feekv98ssvEqSg5+mZZ56RoCa+7r77btWoUSPpDcTcMTPME8EQgrikhrmDcO3aNVl7Yu9lM+8rEQWOgRsREREFBIGHu2ArMZfEdOXKFWfa+tKlS8vaG/SGZcmSRdqmpyix5MiRQ3rTAMM2MSQzMWA4oqmThtdrMkwmJfPeIFukt7mDR44c0S3lrOlGRIFj4EZERERhbcmSJerff/+Vds2aNWWdnCpVqqRbypm9MjEgcyZ64eB2ZG9E0hXDBMbu2LNP+hM4E5F7DNyIiIgobGEO3IgRI6SN+V+Yi5bcTpw4oVsxBcL9hR46pP4/dOiQ3hKXSRRyOwpdY35cmjRppO2tl9TsQ/ZLf4aqEpF7DNyIiIgobCGd/4YNG6SNlP7IEJncRo8erVtKValSRbd8Q3mBokWLyrw2d5AgxCRGKVy4sKyTUqZMmVTDhg2ljaQj7oJFJGaZN2+etNu0aSNrIoofBm4Ucj7++GOZ3IzFWwYqpCnGN3vm2GXLluk9ceHDpkCBAnJcx44d9dYYSINsruHvsmPHDn12DPs1cE++hrAgmxmORXYyV7i2uZbrkj9/fhm60rhxY9W/f39JE01EdKfB3/Qff/xRNWnSxFlUu1q1amro0KHSTi67du2Sz5jx48fL47JlywbUA4hkJoDPEARKduhZRDZMDAlFWYPWrVvrPQmHjJUIBPF+uurevbusMVRyyJAh0jZwLyg4jjlw6dKl85klk4i8Y+BGIadWrVqS0cxkNfME37Dimz5zLOrpeIJg6PDhw3IcPtzt8IGD7ai/gw8ufxYzdMQw18CCe+rbt6/e497Vq1edx7vCB6HZh8no9udFhi8MoUGQOmjQIEnt3L59e7keEVE4QuBjFgQW1atXlwQYKHS9dOlSCWKee+45KVDtq95YYkD2Svs9PfLII3IvKABepkwZNXXqVDkOn2W4Pwzf9BfqypnPqM6dO0u2SwSBCE6RURJfbMKrr74aa/5ZQuGLUHy2oPyAKxT9NgEZvjBs3ry51MIbM2aMFB+fNWuW7MNwVTP/jojiCXXciEJN/vz5UbjHatOmjd4S19tvvy3H3HvvvbJ2fEjqPXGNHTtWjsGyf/9+vTVGy5YtZXv58uX1lsCZa+TIkcP5POvXr9d744qKipJjsmTJorfcEh0d7bzG5MmT9dZbbty4Ya1evdpy/EfBeVzv3r313uRhXo99iYyM1HuJKJgF4+9v9+7d49yTWdKkSWM5giSrZs2aVp8+faydO3fqswJTqFAhuR7+fvvD/J33tGTLls2qUKGC9cILL1grVqywbt68qc+MDX/3cfyoUaP0ltgcQZTlCOCstGnTxnmOXLlyWY4AyeO1Xdk/T9D2BPeCYzx9DuL5/vvf/1rZs2d3Xs8sBQoUsGbMmKGPjKtjx45er01Et7DHjUJSgwYNZP3DDz94LL6KgqTw8ssvy3rTpk3Sa+bOmjVrZI1eK0yeTir4NhhptOHNN9+UdWJLmTKlzINYtWqVzIUAkyKaiCgcYI4Y/va7W/B3HrXR1q1bJ0Mj45vFEHPFcL2vv/5ab/EOx7nei33B/LOtW7dKb1T9+vWlJzA+MK8MvWynT5+WkSSzZ8+WkgJbtmyRHrHXXnvN72tjVIa5P2/Ft9GjhmM8TU/A8/Xq1Uved3z2zpw5U8oR4PWipy6hdfCIKAYDNwpJJnD766+/3KYgvnHjhtq4caO0mzZtKsMz8GG+efNm2ebKDKM0100qKVKkUAMGDJA2gs7FixdL25WpH5QQmE+AYTqAD3gM1yQiovCAofF16tRRjz/+uCT9qFixYkAZKpMChn1ieGS7du1U27ZtJetkfANUIoqLgRuFJPu3le7mueGbRxQgxRywYsWKqapVq8p207Nmt3//fmdqZpMdK6mgQGnLli2d32xiIjkm0btKrA86fEMK6IVDIEdERKEBc5XxRZ89A2U4wWvD4i3JGBHFxsCNQlKuXLmcwY+7YAxDZABplhEEVa5cWR6b4ZN26PkC9IbVrVtX2kkJ9zNs2DBpIynK9OnTpZ3Yrl27phYtWiRtTFpH8EZERKFh+fLlauDAgWEbuOG1YWH2YyL/MXCjkIVMXeAuW6QJ0ExPGzJ6wfr16529UIYJ3CpVqnTbCoOiBo/JDNavXz+Pc+/ia/v27TKfbt++fTIfwhSfJSKi4IYvI6Ojo53LkiVL9J7wYn+NWDBXj4i8Y+BGIcsEbkeOHHEWHDVMj1vNmjVljQAOPU5IxY86OnYmyDPX8+TgwYOxUjy7Lki/HAik64c//vjDWdMnUKj3hkQkZkHwid5IzHXAdVE/B99m4jEREQW/+++/X0aUmCW+yVWCnf01YilZsqTeQ0SeMHCjkIUJ0KYmj73Xbe/evVJHB1DPB+666y5Vrlw5aduHViID1oEDB6TtKzEJ6tjMnz/f47J69Wp9pH/wfPXq1ZM2ipa6q9nmCxKz4LWbBRm8kLAFtd4uXrwotemQTdPdPDoiIiIiCh0Rluu4MaIQgiGHmAeAQqQm5f2kSZPkcYkSJWJlnHzppZekZ+vpp592zitDCuXHHntMsnMhVbNr4WxAbxoCs7Jly7qdT2egRw/DEt0x10BiEntqaQRVZjgnCpdivD9gTgN68JBdEglN7DCRG5m6YPLkyapTp07SBsxrO3bsmCRnmTJlilqwYIFsR5CI582QIYM8dvXZZ5/F6bVMTEgg4zqkNTIy0msBdSIKDkggYf42Gfz9JSK6/djjRiHNDG8089TAdZikUatWLVnbE5SYYzHM0F3QZofALGvWrB4XT0GbHQIrOyRPQeAImIeG3rKEwGsoVKiQpIZGoGiC2RUrVqioqChpu4NgEP8JS6olKYNCIiIiojsBAzcKaWZ4I5JwYNgjmMDMBGqGeYxioJgXByZwS+r6bcbly5d16xYUiEVQiDprw4cPl22JlQESPY+o8wPoVfMEPXzuAq7EWuy9gkREREQUOAZuFNIwiTtfvnzSRsZIDHfEHDdwDdwKFCggCyBgQxCFOWFwuwI3d4oXL666dOki7XHjxqlTp0751XvnLyQsAfTmYZ4eEREREYUeBm4U8kzQhcDtp59+knbOnDndZqgywRyOw/yyGzduqHvuuSfZs3ZhGCMSraDXDYlKEpMpLg6pUqXSLSIiIiIKJQzcKOTVr19f1gjcEIyBa2+bYbZv2LDhtg+T9Aa9hqacwIQJEyTBSGJACQPMdQMEp56SkxARhQNkCUYSqUWLFsnf+Phk6yUiClYM3CjkmQQlyKRoMhf6CtwwRNKk7w+GwA169eolBcCvXr2qPvroI701fjAMdNq0aap27drSiwco9E1EFG4wqgB/PwsWLKiKFSsm83qbN28uf++zZcum6tatK9mHvUG2YXdJp7wtO3bs0GfHsF8Df8t3796t97iHOpw4Fgml7DB03lwHXzL6AxmGzTn2uqC4R7PddcmfP78qVaqUaty4sWQ1Rs1PIgpuDNwo5OXJk0dqtCFj46pVq2Qbary5g5T+mTNnluBo5cqVss302PniqwC3fVm4cKE+y3/4IO3bt6+0UTzbH2PGjHE+Z4sWLSQ7ZpkyZaSMQIcOHSQJC4Zg4oO8Xbt2+iwiovAwb948GRaPxE6YH4ySK4MHD1ajRo1S3bt3l6HwSJCE0jFdu3aVGpfu4Asu9M79888/qnDhwn4trpmIzTWwnDlzxvn33BN8Dpnj7VB+AfeJ7a+99pryVbUJNTv79Okjx+P1Pv/883qPcl4HCz777PePMjhI1rVs2TI1aNAgKYLdvn17uS8iClKo40YU6nr27IlPNlkcgYrlCOL0nrgcH+DOYx0fVHqrZ47/CDiP93dx/KdBnx3DXCMyMlJvce/y5ctWgQIFnNdxBGB6zy3R0dHO/e6WVKlSWY4PZatx48aW4z8z1okTJ/SZyScqKirOffp6L4goOATr7++cOXOsFClSyP00adLEcgQhes8tjiDEevHFF5333atXL70nNvM3unz58npL4Mw1cuTI4Xy+9evX671xmffV3d/5kSNHOq8xa9YsvdU9R4DoPPb777/XW2PYPy8mT56st95y48YNa/Xq1VaNGjWcx/Xu3VvvJaJgwx43Cgvvv/++fCuJBcMEU6dOrffEtXTpUuexjg81vdUzFK42x/u79OjRQ58dw1wD3/x6g94x9LaZ67gW3wZ8K2r2u1uuX78uvYNLlixRr7/+usqdO7c+k4goPODv5LPPPqtu3rypGjZsqBYsWCBDJV2lTZtWRhw0bdpUHqNnLqmHBDqCSOUIAKX95ptvyjpQ//d//xfrGugJdAfvgyPIkzZGWZjyL/5C6RmM1MBolaJFi8o2U/+TiIIPAzciIiIKKQMHDpQhgviS7tNPP/Va+zIiIkKNGDFCyqwgGNq8ebPekzRSpEghwx3hhx9+UIsXL5a2Kwxp9wQZgD/88EO5999//1198MEHek9svXv3lqGNGGqPLzDjK126dDLkHk6fPu2cG01EwYWBGxEREYUMBGwzZsyQdtu2bWVely+YB4c6lhhl0blzZ701aWCkBObaYXQEYP4ZegZdISjzpkaNGs4an0OHDpVanHbIojxr1ixpI9FJQkdXYMQGIAhGIEdEwYeBGxEREYUMZA82CTSaNWsm62CDoGzYsGHSRmbH6dOnSztQCMhy5colyUWQQMSuZ8+esq5atWqshCTxgeReKKEAyEbsrQeTiJIPAzciIiIKGfa5yZUrV9at4INMltWqVZM2yrF4mqfmDcoKmCGQGDqJOnWAzMUYholhmSgfg3V8bd++Xebl7du3T4aTYlgpEQUnBm5EREQUMo4ePapbSuXNm1e3Eoevsi+vvvqqPtI/ppcMSUTs9dUCgaQj6AVD4inMabtx44as4aWXXlIVKlSQti/ovUMiErNUqlRJevMqVqwo99etWzdJ3ILHRBScGLgRERFRyEDmYAM9RIkJ8+Dmz5/vcVm9erU+0j8NGjRQ9erVk/aQIUNkyGOgMOwSvWpIWPLVV19JPbpff/1VglbUrPPXnj17ZJipWbZu3Srz5lDrDfMGDx8+LPPm3M3HI6LgEGGZ2ahEREkEGdaQBc4uMjLSZ3kEIkp+7n5/CxUqpDp16qQfJQ2TmdEVAhcEMoCAA4WkEwq9aQjMypYtq9asWaO3xoW5X56CRXMNJCZBCRgDwRDmoUH//v2d7+Xo0aOlBw/ZJd2VfnGFJCfoNTOQoOXJJ5/Uj9z7+eefnT1ykydPjvUzw7y2Y8eOqS1btqgpU6ZISQVAsIn7z5AhgzwmouDBHjciIiIKCHqO8MVLUi6e2IdHnjp1SrcSBwIzpNb3tPjTw4eAyK5KlSrqsccekzbmj7lmh/QX5snhHgCBoK+gzZc0adJIAN6mTRsJOE39thUrVqioqChpE1FwYeBGREREAUE9NHfBVmIunpQuXVq3lAz3Czb2oZwG0vkjKER9NBQBh0AzN6IHzNR+y5cvn6wTE8okmALen332mayJKLgwcCMiIqKQgcQaJoviypUrZe0PZKNEVsbkmMNVvHhxZ022cePGSU9hYs/PSwxIWALoFcR8PyIKLgzciIiIKGQgEyLS18O0adP8mh+GIARzt4oVK+YMTm43DD9Mnz699LohUUkwOnHihG4pSYZCRMGFgRuRn1Do1Z5KuV27dnpP8LHfJxbzTS8RUThAgg/0uiE5SY8ePfRWz1577TV1+vRpaSfX/C0MbzTlBCZMmCCJQYIJSiFgrhtgOCqTkxAFHwZud7inn346zuRrX8uOHTv02TFcr2HPpuXNyZMnpbioOQ+TpH3Bh539ufyZ34D7tZ9jX/Lnz69KlSqlGjduLNm+UMPGk7Vr10oK5Y0bN0qmrl27duk9t1y5ckXuEZO9MSEdxVcfffRR9fHHH8u+hECR1Ndff11SSyNLWMOGDaVGEOrvuML9YVm/fr3c8+bNm/UeIqLQh1pjJhU+MiIi0ySCOFdIFPLKK6+oTz/9VB4jyEP2x+TSq1cv+dy7evWqMzNmcsOcPPRcolYcegMBiVCIKPgwcLvD4Y80soP9888/qnDhwn4tyERlZ65hllmzZuk93s2ePVudOXMm1rm+YMK0OQ5rfNj4gho15vqZM2eO9VqQRvrQoUNq2bJlEgQ98MADqn379vKh6smwYcNkaA4CKbv9+/ercuXKqRdffFHNmzdP7du3T4LGuXPnqhdeeEGVKVNG7d69Wx8dmHfeeUfubeTIkVJH6LffflPffPONBJsIPF3fc9wflqeeekpvISIKL0iPj7/b6HlDEFS0aFEJ0vA5gc8X9Mrdd999auzYsXL8m2++KX9DvfFVgNu+LFy4UJ/lP3xh2LdvX2m7+9ItKY0ZM8Z57y1atJDRGPhcQsITFPk+cuSIDOVEofBgHlFCdEdDHTe6c7Vs2RJ1/Kzy5cvrLYEz1yhbtqys06VLZ124cEHv9axWrVpyfIUKFWTt+PDQe9xzBEJyXEREhPW///1P2nnz5rVu3Lihj3AvOjpajsUyefJkvfUWnO8IhqwaNWo4j+vdu7feewvuD/tGjRqlt9xy+fJlq1ixYrIf602bNsl2R9BorVq1yrrnnnuc+xxBsuzzF+7Z3Ffr1q2to0ePyvadO3c637tUqVJZGzdulO12HTt2lP0J+fkmhqioKOdrMEtkZKTeS0TBLNh/f/E3vk2bNlbatGnj3CeW+vXrW2vXrtVHu2c+xwJZXD8LzDV8vTf4vChQoIDzOr4+++wKFSok5+C5/GH//HO34LOjcOHCVuPGja3hw4dbJ06c0GcSUTBijxslGnx7lzt3bumtWrRokd7qHr5pXLdunbRNfRtfPv/8c1lj+CG+HXR8SKvjx48HlFXMHaRkxr07Aiz5xhZMPRt/YRgOetzgq6++UpUrV5Y2vgmuW7eu895xjJlD4A/0ZuJbZUDdni+++MKZBhpzENDrlidPHuUIPmUOBxHRnQajEfB3FyM4MDR85syZUmx68eLFMiQfdckefPBBfbR7GOLv+D9RQIvr3DpzDW+lDAC9WvgMNNfxJ7mK8fvvv8s5/k5JwHtjnsfdcv36dellXLJkiQzFx2c4EQUvBm6UaPAh8Pjjj0sbw1S8mTNnjhxftmxZdffdd+ut3k2fPl3WzZs3V3fddZeqX7++PDbbEypdunQyhAQwid2M9fcH0jp3795dvfHGGzJc0lVkZKQEmrBlyxZZ+wNDcRCcArKQuWb5ypkzp+rZs6e0EQjHdygmEVGoQ0CEOmQY5tepUyfJPIkMlERE4YKBGyUaTAw3gRu+vfM2Z80EduZ4X5AQxPRotWzZMtYa88kCCbK8QTAJ6IVDIOevjh07qtGjR6v33ntPb4kL/6kAdzWE8F7hW1d8+2m3dOlSWSNAQ1ISd+zz2BYsWKBbRERERBROGLhRosJwFGRqRCYvT0EECqBu2rRJ2m3btpW1L6ZXrUiRIjKZGjC5OiIiQoI2f4eNeIN7NkM8kV0LwVtiQeFXMxymRIkSsrZDRs1s2bLJ0B47k+US92MKzrpCj+W9994r7V9++UXWRERERBReGLhRokJwYXrRPGWXxDwtwDBJZET0Bb1QpoeudevWsgbM7TLzFhI6XBIZIjGsBpkgMexxxIgRek/CIaulmX+GXjwEnP7au3evrIsXLy5rT0qWLClrDpUkIiIiCk8M3Ej4SoFsiob6w/SiIXHG33//LW27GTNmyPqJJ56QtS+4zqlTp6TtmsjEBHI45sSJE9L25t1333UWpcZSqVIlmQOBmkCYLN6tWzfp5cLjxICg7fnnn3dOVn/rrbfcTv6+//77Vfny5SUts4Ehlab2W968eWXtiZnH4a6OERERERGFPgZuJM6fPy/ZDj0tqB3mr+rVq0t2RmQ6xPwzO/QImeF8Tz75pKx9Mb1pyKaIjJJ2KHQNCHKQScyXPXv2SNYxs6CA919//SUBFoKew4cPyzBOd/PQAoWipghOkd0MMBcNgZs7a9askYLZyEBp4GdimPlxnqA+HeA5iYiIiCj8MHAjgWGLSKXsaUFgEQjT64bskXbmMVLbm3lZ3ly4cEECR0CQ5jrPC0W0Te+YSbnvDYIokwYZCwqPI70yUklXqVJF5uUh2GrUqFGCgiD0EFw+tQgAAHdOSURBVCIIw3WhV69eaurUqTInz1/2QueYf+eNr/2+oGDtgAEDkmzxlR6biIiIiLxj4EYCiTiyZs3qccG8r0AgHTN8++23EvgZJnAz+32ZO3euc7ggesSQudF1QWkA2Lx5c8BzvBAcITEIgkIEiKZ+G+r+REVFSTtQ6LVDMpGffvpJ5rQhYPvvf/8bcLKTDBky6JbvwMwEmfhZxQd6+xBcJdWC4JiIiIiIEsCiO1rLli2R/94qX7683hI4c42OHTvqLTFKliwp2x2Bizzev3+/PI6IiLCOHDki22Dy5MmyPUuWLHrLLQ0aNJB9/i59+/bVZ94SHR3t3I/n8qVOnTpybM6cOfWWGLg/bB81apTeEtfx48ete++9V4675557rK1bt+o98ZMvXz65Vvfu3fUW9+rVqyfHPfzww3pLDPxMsD0hP9/E4AiC5T7sS2RkpN5LRMGMv79ERMGBPW6UZMxwyS+//FLWZtggilH7U3T76NGj0mMHTz/9tMyX87QgsQcg8Ynj37W04wsJSwBz3+zzzHzBnD68ZpQ7wBDOH3/8UVWoUEHvjR+TdRNz87wx2SdLly4tayIiIiIKLwzcKNEgcLFDsAXI+Ihhjhj2CP4Ok0SyEZMkpHv37m6zXZqlffv2chyG5K1bt07a8WXPTpkqVSrd8u2DDz6QuYBp06ZVCxculHp2CYVEL4DX5Fqc20CgiOGZgLmDRERERBR+GLhRonFNRY/eIiQ9uXr1qvrkk0/Uxo0bJRByLbrtKYW9ySZZoEABVblyZWl7Yr/mtGnTdCtwKItgkqGg98o+z8wb9MwNGjRI2r1795bXnRhM+QMkaXFN9GJMmjRJ1qlTp1bNmjWTNhERERGFFwZulKRMrbZ+/frJumHDhip79uzSNlx76mDXrl2SMAMQlPnKxliwYEFnqQAEOMgWGQgk90DAh6Qily5dkm3mnv2BjJbnzp2T++zatave6r9y5crJ8Er0TtohY2atWrWk/cYbb6hjx45J29iyZYsaOXKktPG88U1OQkQUCj7++GNn0izzGeEOvkzDZ405dtmyZXpPXBjZgS8IcVzHjh311hgYOWKu4e+yY8cOfXYM+zVwT76SaKHeKI5F4iy7Ll26OK+zYcMGvdU7ZFI254wfP15v9fy6cubMKZ9FGO2B9wLJtUyCMCJKfgzcSPgqwG1fMAzQX6ZWmwmG/K3dZu81cy267YnpdUMWyyVLlkjb1ZgxY5yvo0WLFlKEu0yZMlL4ukOHDurIkSNSMw0fcP4O6QQzfw+BGz7w8MHnaenZs6cca4fi34cOHXJbggAfvPgwxb098MADqn///tLLhqLoderUkR7N4sWLq4EDB+oziIjCE77IwpdkWJCx1hMENvgsMMeibqcnCLQw3BzHudYKxWcXtuPLQHd/z90t9lIuYK6BBffUt29fvcc9/E03x9uhtApqjmL7a6+95nM+N0az9OnTR46/55571PPPP6/33LonfObY7x3H4bVihAyCNgRvCCADqeVKRElIUpTQHctkhAxkcc2qaK6BtTsVK1aU/enSpbMuXLigt96C62G/ySrp+GCyChYsKNuQVRGP/eEIfOQcLG3atNFbY2eVdLekSpXKcnxgWY0bN7aGDx9unThxQp8Zm7esktmyZYtzXU+La/ZNMNeeN2+e3hLbnj17rLp168a5Fu7dEbB6vGdmlSSihAq239/8+fPLPdj/zrt6++235RiT5dcR8Ok9cY0dO9b5upD92C4xMy/nyJHD+Tzr16/Xe+My77f5TLQbOXKk8xqzZs3SW91DlmVzrCNw1VtjmHtyBGV6S2zIkDx06FDLEYTKcZkzZ5ZtRJS82ON2h/v666/lW7tAlh49euizY5hrYO0OhvNhP4ZbmJprdrge9p89e1Yeo8g2ep+wDZklXYtue4LhkjgHi+kBA/RSme3uFiT9QI8jeulef/11lTt3bn2m//7++2+313a3oNi1K7x27ENPoDslSpRQq1atkp65RYsWyTehS5culUQqX3zxRbzumYgoFDVo0EDWP/zwg/zddGft2rWyfvnll2W9adMmj0PokVQK0OPkCPSknRSaNGnizID85ptvyjpQ//d//xfrGp5eEz4rzDB6jCbB6IxA5MmTR3rrxo0bJ48x9NTTPGsiun0YuBGFEMzDaNq0qWTRbNSoUZz5gkRE4c4EbijZ4q5UCuZNY6gf4O8lys8gwNm8ebNsc2WGUZrrJhV8CYnhjoCgc/HixdJ2haH7niDB14cffijD8pFFGdmM3UGSLAy5xLy1999/X28NnH3KAL5QJaLkxcCNKECY5I4P39GjR+stwQf3h8Xb5H0iolBUv359Z8Iqd/PcMMoDIzwyZ86sihUr5iyTYnrW7Pbv3+8sAYPkWUkJIytatmwpo0AAPVqm5I2dr2RcNWrUkEQlMHToUAlg7dC7OGvWLGkj0UlCRmTYezTdjZghotuLgRtRgJYvXy6JQII5cMP9Ydm2bZveQkQUHnLlyuUMftwFY6aWZ5UqVSQIMuVkzPBJO/R8AXrD6tatK+2khPsZNmyYtJEUxZS9CRQCMrwPSDBiStEYJgEWAlZ7QpL4MPVXAcm8iCh5MXAj8hP+gxAdHe1cPGWuDAb2+8Qye/ZsvYeIKPQ98sgjsnaXLdIEaKanDT1UsH79+jhz4kzgVqlSpds29BzD3E32SpSd8TRPzRvcqxkCiaGTBw4ckDayPuM1IRD96KOP/J4j7goZKXF+t27d5DHKB0RGRkqbiJIPAzciP91///3yLa9ZUKA7WNnvE0vJkiX1HiKi0GcCN5RJwVwvO9PjVrNmTVkjgEuZMqWk4keNUDsT5JnreeKrZA7KswTC9JIhiYi9vlogkHQEtUeRYAtz2jC3D2t46aWXVIUKFaTtzfHjx6UnzSwPPvigKlWqlMqWLZsM5UTQi4Ra9hI9RJR8GLgRERFRSEGAgZqbYO9127t3rzp58qS0UVMTMDerXLly0rYPrUTQYnqqfCUmQVbF+fPne1wCrXOG56tXr560hwwZEqdmmz8w7BK9YkhYgkzKXbt2Vb/++qvKmzevGjx4sD7KO/T24f0zC3olkfAFQSD2nT59Wu3cuVP9+eef+gwiSk4RlqdcukREiQSJUlwLhGPYjbcCukQUHNz9/qIoc6dOnfSjpIHn9QZDDjHnuHPnzmrixImybdKkSfIYJVTsGSfRA4WeLQz5M/PKEOw89thjKmPGjFLSxbVwNqA3DYFZ2bJl3c6nM9CjlylTJv0oNnMNJCaxl81BEhEznLN///7O9xjzp9GDh+ySpkyON+gZw5w3Y8aMGerJJ5/Uj9wz94Sfo2uPJXomEdDivUU5AAS4GTJkkOviNRBR8mGPGxEREQUEPUT44iUpF1/M8EYzTw1ch0katWrVkrU9QYk5FkME3QVtdgjMkFrf0+IpaLO7du2absVA8hQEjjBixIg42SH9hXlyuAdAIOgraPMFwySR0OWtt95Sv/zyi9SNu3z5snrmmWckiCOi5MPAjYiIiAKC/8y7C7YSc/HFDG/ct2+fM6AwgZkJ1AzzGLXIMC8OTOCW1PXbDAQ/rpDOH0HhpUuX1PDhw2UbHgcCvWGm9lu+fPlknVhy5MihRo0aJW0kLEEvJRElHwZuREREFHKQMMoEKpibheGOmOMGroFbgQIFZAEEbAiitm7dKo9vV+DmTvHixZ012TAs8dSpU3713t1OyLhpmDmBRJQ8GLgRERFRSDJBFwK3n376Sdo5c+Z0m0nXBHM4DvPLkIDjnnvuSfYMwVFRUZJoBb1uSFQSbEyBckAiFCJKPgzciPzUrFmzWGmT27Vrp/cEH/t9YjHf6BIRhZP69evLGoEbgjFw7W0zzPYNGzbc9mGS3qDX0JQTmDBhgjp27Ji0gwWSpRiYl0dEyYeBWxBD9ivXCdC+lh07duizY7hew57RyhukU0aBT3MeMk/5gg8c+3OZYSjuIJnpvffeK8f5CoDefvtt5zURhHgzduxY57FIiwx4T8w21yV//vxSs6Zx48aS1Wvbtm1yjjuYO4F0yRs3blQ///xznHpArpA+Gdm+kHkNtXoSavv27er111+XFNKoz9OwYUOpBeTu2rg/LPjPDO558+bNeg8RUfgwCUq2bNkif+vAV+CGzyaTvj8YAjfo1auXfOZevXpVUvwHA3zGdezY0VlnDpk1kY2SiJIPA7cghmETyNyFWiqFCxf2a3HNjGWuYZZZs2bpPd7Nnj1bUgLbz/UFRTrNcVh7K9iJ+jMYN4/jvvnmG3Xz5k29J65vv/3WeQ8InvCaPFm1apUclzZtWgnI4N9//3Wenzlz5ljvF9JAY7L6smXLJAhCser27dvLh6cnw4YNkxTNCKTc2b9/v/rPf/4jgSlSNE+ZMkXmXiTEO++8I/c2cuRI+Q/Hb7/9Ju8bgk28TtefK+4Py1NPPaW3EBGFnzx58kiNNmRsxN9/QI03dxB44DMAf99Xrlwp20yPnS++CnDbl4ULF+qz/IcvEvv27SvtxPiiz1/4ktZ+7wiEUXQb72uZMmXU1KlT5TgEvUuXLlWpU6eWx0SUTFDHjYJTy5YtUWPPKl++vN4SOHMNxweWrNOlS2dduHBB7/XM8Udajq9QoYKss2TJove4t2/fPjnOEZBZ//vf/6SdN29e68aNG/qIuCZOnCjHYXEEQXprbJcvX7YcHxRyTNGiRWXt+MDVe2NzBH9Wzpw55ZhnnnlGb7Ws6Oho5/NMnjxZb70F9+gIhizHh5XzuN69e+u9t+A9wL5Ro0bpLbHt3LnTevLJJ62UKVM6r2MW3EN84Z7NdVq3bm0dPXpUtuP5zM8nVapU1saNG2W7XceOHWV/Qv4NJYaoqCjnazBLZGSk3ktEwSzYf3979uzpvK/06dNbjiBO74mrUaNGzmMfeOABvdUz8xkayOL6GWGu4es9w+ddgQIFnNfx9blrV6hQITkHz+UPX68rW7Zs8vnywgsvWCtWrJDPVyJKfuxxu0NgiGHu3Lnlm8ZFixbpre7h2z4z/t/UmPHl888/l3W1atVUhw4dpMcL6ZnNt5ru2IeomCEurjCJ/Pr16zLR3Bxvr8Njt3v3bmcdHH+/RQWkXsb7g29rHcGhbDPFXP31448/yreTM2fOlMcY/olCsAmF3kUMtwTU5/niiy+cWdQwoR69bvhmFJPsX3vtNdlORHQnef/992X4PRZki/TWK4ReI3NsdHS03uoZpheY4/1devTooc+OYa7hq8QBEpTg89dcx5/i2waKaOMcf6dD+HpdGCWCIaUYtonPU4ySIaLkx8DtDoE/xI8//ri0MQzSmzlz5sjxGFZy9913663eTZ8+XdbNmzdXd911lzNwMtvdKViwoCpRooS0PQVjJoDEsEqTktjTsfbgLz7zFtKlSydDReD06dNeh2S6QsCKwOrll1+WoZII4DAPLaEw5MbUJ0K2MdeMXsie1rNnT2njvULwSkREREThh4HbHQKFM03gtmTJEpnv5YkJ7MzxviBZB4IVaNmyZaz1vHnzvAZAZmK5p28i16xZI2sEbQiMABnB0MPkygR0gQScrhCwAnrhEMj5C99GotcNyVEwdy5Q+Hng21X0Ltrh22FAgIakJO7Y57EtWLBAt4iIiIgonDBwu4NgwjayKGISt6f/4KO4pkmp3LZtW1n7YnrVihQpIsMFoUWLFhLMIGjzNnTD9IyhTsy+ffukbSBhCYI0QNCGayOYwjWRMdHVDz/8IOtAhkna4X0xw0hr164twVsgEjKUBFk7s2XLphYvXqy3xDBZLnE/KVK4/3VFkIpEKPDLL7/ImoiIiIjCCwO3Owj+42960Txll8QcKkCvlcnK6A16iEwPXevWrWUNmHdlMnt5Gy5Zt25d5/A/13luCELQE4UAqmLFinKcqSFjhlAaGN+P9PsQn2GSyBDZpEkTCR4zZcqkRowYofckr71798q6ePHisvbEFJvlUEkiIiKi8MTALQT4SkNsCnf6w/SiIamFuxT1M2bMkPUTTzwha19wnVOnTknbNZGJCeRwDHrU3EGQhNTD4Dp3zQRnSIOfIUMGadesWVPWrseax5iU7q3WG9LzY79ZMAQzV65cEhhiUni3bt2klwuPb6f7779flS9fXmXJkkVvielxvHLlirTz5s0ra0/wGgBDYomIiIgo/DBwCwHnz59X8+fP97iYQqL+qF69umROxBwxzD+zQ2+NGWr35JNPytoX05uGTIdI0GHXpk0bWSMAMdkW3TE9ZK49bmZ+mwnswARuZp9hAjf08pkgz509e/bI85gFWbOQiRK13hD0HD58WIaK4p5vJ7weDP9ED6SBn7uBbGPeoDYRIKMaEREREYUfBm4hAMMWUQzb0+IaxPhiet2QPdLOPMZ8MjNnypsLFy5I4AgI0lznYCFJh+m5MuUC3DGBG4Y7InAyTDBmgjUwQRx68ExCFDC9c76GSU6ePNmZ7hgLipvjeb/66isZhom5f+htbNSoUbIHQfZi6ph/542v/b6gePqAAQOSbPGVBpuIiIiIvGPgFgIwxytr1qweFww3DARqjMG3334rgZ9hAjez35e5c+c6h/Kht2r06NFxFpQGgM2bN3ucf4WACa8DTIIRzFczc9bsgRuGBLqWEEA2xp07d0rbZKn0F4IjJAZB4Ikg1NRvW7FihYqKipJ2crH3HPoKzEyQad7HQKG3D8FVUi0IjomIiIgoASwKWi1btkRueqt8+fJ6S+DMNTp27Ki3xChZsqRsnzp1qjzev3+/PI6IiLCOHDki22Dy5MmyPUuWLHrLLQ0aNJB9/i59+/bVZ8blCJzkmBdeeEEez5gxQx7nz59fHts999xzsq9Lly7yeMmSJfI4e/bs1r///ivb7KKjo2U/FrweX+rUqSPH5syZU2+JgfcA20eNGqW3eGd/XrTjI1++fHJ+9+7d9Rb36tWrJ8c9/PDDeksM/NyxPSH/hhKDIwh2vhdmiYyM1HuJKJjx95eIKDiwx+0OZYZLfvnll7LGUEFwfBj7VQPt6NGj0mMHTz/9tMyX87Qg6QYg8Ynj35y0XTVs2FDW69evlzVqokGtWrVkbWeyVZrhkabnzRG0eEyZHwhT6Btz3+zzzJKDyeyJuXnemOyTpUuXljURERERhRcGbncI14LVCLYAGR8xzBHDHsHfYZJINmISeHTv3t1ttkuztG/fXo7DcDnXNP6GmZuG5CgIllDUG9wFbmYbhl7iWBPsBTpM0hN7BkxTqiC5IJkM4H1zLc5toPaemRtoipQTERERUXhh4HaHcE0Tj54cJD25evWq+uSTTyRQQpDiWnTbU3p5k02yQIECqnLlytL2xH7NadOm6VZsKN6NbJfokTMZFsFd4IY5bpjrhmMR0Jggz1diEn+g9IJJuILeK28ZKm8HU2IBiWBck8kYkyZNkjVKITRr1kzaRERERBReGLjdwUyttn79+skawxWzZ88ubcO1pw527drlDKwQlEVEREjbk4IFCzpLBSD4QCZHd8xwyfHjx8sxSHGP+mbumIDuww8/lAQpKFCNJCPxheQeCCpr166tLl26JNvM+3I7lCtXTrJwogfUDlk5zWt944031LFjx6RtbNmyRY0cOVLaXbt2jXdyEiIiIiIKbgzcQoCvAtz2ZeHChfos30ytNhOo+Fu7zd5r5lp02xPT64YslkuWLJG2K9NjtnTpUlkj9b+nOWtmnpt5vf72to0ZM8b5XrVo0UKKcJcpU0YKX3fo0EEdOXJEaqYhePR32GhiQPHvQ4cOuS1BgBIGOXPmlHtDMfL+/ftLLxsKr9epU0d6TRG4Dhw4UJ9BREREROGGgVsI8FWA275gvpO/UKvN1FlLly6datmypbS9wbw2JBkBd0W3PbEPlzTDLF3Vq1dPSh+YBCbo/fLEdQilv/PboqOjne8Vgj4U4UZij/z586vGjRur4cOHy1w89F4Fi2LFismQUBTnPnnypBo0aJDq3LmzlFtAmQC8t0jQwt42IiIiovAV4fhPsvs0f0QUCwKjc+fOqVGjRqkePXrorbcXattt375d/f333zLPD8lIXIe32nXq1ElNmTJFMnua4a3JAUW4XXsEkcEUNd6IKLjx95eIKDiwx40ohCAZTNOmTSVTZ6NGjbwGbUREREQUPhi4EQVo2bJl8g00hioGK9wfluTsZSMiIiKixMPAjShAy5cvl2FDwRy44f6wbNu2TW8hIiIiolDGwI3IT6gvh+QmZvGUHTMY2O8Ty+zZs/UeIiIiIgpFDNyI/ISackjHbxYU6A5W9vvEUrJkSb2HiIiIiEIRAzciIiIiIqIgx8CNiIiIiIgoyDFwIyIiIiIiCnIM3IiIiIiIiIIcAzciIiIiIqIgx8CNiIiIiIgoyDFwI0om//77r9qzZ4/67rvv1Ndff61Wr16tfvvtN2VZlj6CiIiIiCgGAzcKCjt27FBZs2YNaHn66af12THw2L4fwZA/Tp48qbJnz+48r1ChQnqPZwi6ihUr5jzn8ccf13t8+/XXX1X79u3lvFKlSqm6deuq1q1bq3r16ql7771X3XPPPapPnz7qwoUL+ozYvL1X+fPnl2s2btxY9e/fX23btk2fRUREREShjIEbBQUEQufOnZMlW7ZsqnDhwj6X3Llz67NjXLp0yXkNLLNmzdJ7vJs9e7Y6c+ZMrHN9WblypTpw4IC0cfy8efPUX3/9JY+9+eyzz1S5cuXU9OnTVUREhGrXrp1677331NixY1VUVJR68MEH1bFjx9S7776rKlWqpI4cOaLPvMX+XmXOnDnWe5IxY0Z16NAhtWzZMjVo0CApvo0g8erVq/psIiIiIgpFDNwo6IwaNUr9/PPPPhcc507ZsmVlPX/+fHXx4kVpe/PFF1/IukKFCrL2BwIvQC8fnu/GjRvO63iya9cu9fzzz8uxDRs2VL///ruaOXOmeuONN9TLL7+sBgwYoNauXasWLlyo0qVLp/bt26c6duyoz3bvnXfeifWeYOglXjOGXdaoUUOOwb3i2kREREQUuhi4Udh56KGHpDcOvUyLFi3SW937448/1Lp166T92GOPydoX9Oyhhw1atGihWrZsKe1p06bJ2pPPP/9cgjZAzxuGZ7rTrFkzNWXKFNW7d28Z8hhob1nKlCnlPVi1apUqWrSobJs4caKsiYiIiCg0MXCjsIPkHmbOGYZBejNnzhw5Hr1md999t97qHebOIXi76667JEBq1aqVbP/xxx/V/v37pe3O8ePHZY3etLx580rbE9w/hku+/vrrcnx84Dxzb6dPn5Z7JiIiIqLQxMCNwg6GCprAbcmSJV7nrJnALpDkImaYZKNGjVTatGllLhoSigB61TzBHDRADxqGQ94OJkMleuHiGwASERERUfJj4EZhCUk+kGHx2rVrasGCBXprbEgusmnTJmm3bdtW1r6cOHFCrVixQtrNmzeXNZKMmOGSJqhz55lnnpFADzA3DsMXcX9JBdc2Q0Vr164twRsRERERhSYGbhSWUqRI4exF85Rd0iQTwTBJpND3B66FrI6pUqWSuWhGmzZtZI2hkhs3bpS2qyJFisjctdSpU0uqfyQqQUmBfv36SYr/xLR9+3bVpEkTSXCSKVMmNWLECL2HiIiIiEIRAzcKOsOGDZO5WZ4WT4GRK9OL9s0336i///5b2nYzZsyQ9RNPPCFrf5geNdRcsycXiYyMlDIG4C1JCZ4LvXwYZgl//vmnGjx4sJQIQAD53//+120JAE8wDw7z7MyCYZu5cuVSFStWlMQr3bp1k1pueExEREREoYuBGwWdn376SVL5e1pQ58wf1atXl6yKyORoskAau3fvVr/88ou0n3zySVn7glT7mzdvljYKZtuhBw4ZJgHz5q5fvy5td8qXL6+WLl2qDh48KOn80esGO3fulEySBQsWlN4881ze4J6+//5757J161apJ4deQcz1O3z4sASKN2/e1GcQERERUSiKsEz2AqJkhBpkpo4aerWaNm0qbXdQZBrDDV2hNw6BHWqfId0+vPnmm1LgGnXTUJTaQHHq/v37q6pVqzp78HDOs88+q7JkyaLOnj0r2+wwpBG9Y5jThgyRrgXAkXDEBG+YW+btNbjasGGD9NShrpt5bgz3RO8j6rzZ2d+ryZMnq06dOkkbMK8Nge2WLVtkWKaZ39egQQPJhpkhQwZ57AqvHXXlksp3330ngaUdeimxnYiCG+pADhw4UD+Kwd9fIqLbj4EbBQV7MILeMQRhgXIXuJnrokfs5MmTzuGMGJqIeWUjR45Ur776qmzzFrjh1+Tee++VXrI8efJIQOjqypUrqm/fvtLGkEhPc+u8uXz5svr4448lqMQ8OEAylPr160sbvAVurj799FPVpUsXaffs2VO9//770nbVo0cPuW5SQVB46NAh/SgG/+NHFBoYuBERBQkEbkTJLTo6Gl8gyOII3PTWwLRs2VLOdwRuekuMkiVLyvapU6fK4/3798vjiIgI68iRI7INHEGQbHcEbnrLLevWrZN9/i7p0qWzzp07p88OnP35mjZtqrfGsL9XuGdf6tSpI8fmzJlTb7n9oqKinPdsFsd//PReIgpm/P0lIgoOnONGYc8kKfnyyy9l/dVXX8ka3xj7W3TbJBxJkyaNXAe9gu4WDG0E1GqbO3eutOOjZs2azoQimI+XEEhYApj7dv78eWkTERERUWhh4EZhB8lI7FAzDZBdEgk7TEDVrl07WfuCeWOmdACGLD766KPODJeuy+uvv+4cjumtpps/TMHs9OnTyzq+UHvOwJBRIiIiIgo9DNwo7CA4sytVqpSk2kcv2CeffCLJSBDAuBbddj3PQAZIU07A1GvzBElTTMbJVatWOVP747mRQfK5556TlP++oP4asmvCI488Iuv4wJw8zPuD0qVLe0xOQkRERETBjYEb3RFMrTZkhgRkmbTXYQPXnjrj888/lzWCPdcyAO6YgNCyLGetOPSe7dq1S5KJIOU/slp6ej6UKWjcuLHsR002d4lQfEGSEwzvrF27trp06ZJsM6+diIiIiEIPAzcKOr4KcJvFDIH0h6nVZoIYf2u3nTt3zplS37XoticPP/yw2+GSEyZMkLlrgKyRJUqUkKAMgSHmzY0dO1bKCaDO24EDB1ThwoXVt99+K8GbJ2PGjHG+HzgXRbjLlCkjmTE7dOggPX4Yajl+/Hi/h4YSERERURCKyVFClLzsmRL9XVyzP5qskli7U7FiRdmPjI8XLlzQW28ZNWpUnOtOnDjR+Xwffvih3urbc8895zxv+/bteqtlXb9+3XIEW1bx4sWd+12XAgUKWIMHD3Z7j+DrvUqVKpXlCPqsxo0bW8OHD7dOnDihz0w+zEpHFLr4+0tEFBxYx40omaCu2c6dO6W+HOTIkUM5AjqZkxduWAeKKHTx95eIKDhwqCRRMilUqJBq0qSJFNDG0rx587AM2oiIiIgo4Ri4ERERERERBTkGbkREREREREGOgRsREREREVGQY+BGREREREQU5Bi4ERERERERBTkGbkREREREREGOgRsREREREVGQY+BGREREREQU5Bi4ERERERERBTkGbkREREREREGOgRsREREREVGQY+BGYWnt2rUqa9as8Vr69OmjrxLj6aefdnuct2XHjh367Bj2a2TPnl3t3r1b73Hv3XfflWMLFSqkt9yCa5truS758+dXpUqVUo0bN1b9+/dX27Zt02cRERERUShj4EZhKV26dKpw4cJxlrvvvludO3dOlowZM7o9BoGV3aVLl+T4f/75x+3x7pY0adLos2OYa2A5c+aM6tu3r97j3tWrV53Hu/r333+d+zJnzhzrefGaDh06pJYtW6YGDRqkHnjgAdW+fXu5HhERERGFLgZuFJYqV66sfv755zjLkiVL9BFK9erVy+0x2O5OyZIl3R7vbsGx7uTIkUPW8+bNUxs2bJB2QrzzzjuxnnfPnj3q4sWLavXq1apGjRpyzPTp09WAAQOkTUREREShiYEb0W3UpEkTVb58eWm/+eabsk5sKVOmVA899JBatWqVKlq0qGybOHGirImIiIgoNDFwI7qNUqRI4ez9+uGHH9TixYul7SpLliy6FX8YLtqqVStpnz59WoZrEhEREVFoYuBGdBudPXtWtWzZUuaeARKh3Lx5U9p2ERERupUwlmXJGr1wCOSIiIiIKDQxcCO6zRCUDRs2TNrIEIk5aEnh2rVratGiRdKuXbu2BG9EREREFJoYuBElg0aNGqlq1apJu1+/fpKxMjFt375d5tPt27dPZcqUSY0YMULvISIiIqJQxMCNyE8HDx6UOWOelldffVUf6R+k64c//vhDjR8/XtqBQr03JCIxS6VKlVSuXLlUxYoV5brdunWTWm54TEREREShi4EbkZ/Onz+v5s+f73FBCv5ANGjQQNWrV0/aQ4YMcVuzzRek///++++dy9atW9Vff/0ltd5QFuDw4cNq06ZNbufREREREVHoiLBM9gKiO8Dvv/+uihQpIu1Ro0apHj16SNsb9KYhMCtbtqxas2aN3hoX5pBhWKI75hpITPL111/rrUqCqqpVq0q7f//+auDAgdIePXq09OAhuyQSmtihXluFChWkPXnyZNWpUydpA+a1HTt2TG3ZskVNmTJFLViwQLYjSMTzZsiQQR67+uyzz+S9SSrfffedBJZ2kZGRsp2Ighsy4Zq/TQZ/f4mIbj/2uBH5CYFZ1qxZPS6egjY7BFZ2VapUUY899pi0MQ8NvWUJkSZNGlWoUCHVpk0bCRRN/bYVK1aoqKgoabuDYBD/CUuqJSmDQiIiIqI7AQM3otvo8uXLunXL0KFDJShEnbXhw4fLtsTKANm5c2dVp04daaNXzRP08LkLuBJrsfcKEhEREVHgGLgRJbPixYurLl26SHvcuHHq1KlTfvXe+QsJSwC9eZinR0REREShh4EbURDAMMb06dNLrxsSlSSmEydO6JZSqVKl0i0iIiIiCiUM3IiCQL58+ZzlBCZMmCAJRhIDShhgrhuULl3aY3ISIiIiIgpuDNyIgkSvXr1U9uzZ1dWrV9VHH32kt8YP5tJNmzZN1a5dW3rxAIW+iYiIiCg0MXAj8pOvAtz2ZeHChfos/yEzZd++faWN4tn+GDNmjPM5W7RoIUW4y5QpI2UEOnTooI4cOSJDMFHgu127dvosIiIiIgo1DNyI/OSrALd9OXDggD4rMN26dVMFChTQj3yLjo52PieCRdRK27t3r8qfP79q3LixZKlEKv6uXbvqM4iIiIgoFLEANxElORbwJQpd/P0lIgoO7HEjIiIiIiIKcgzciIiIiIiIghwDNyIiIiIioiDHwI2IiIiIiCjIMXAjIiIiIiIKcgzciIiIiIiIghwDNyIiIiIioiDHwI2IiIiIiCjIMXAjIiIiIiIKcgzciIiIiIiIghwDNyIiIiIioiDHwI3IT82aNVMPPfSQc2nXrp3eE3zs94mlS5cueg8RERERhaIIy0G3iRINgpy1a9fqR4E5dOiQypIli34U24QJE1Tv3r31I6VWrVqlKlasqB+5t2PHDlW7dm39KLa77rpLliJFiqgqVaqoRx99VJUvX17vjS1r1qzq3LlzKl26dCpt2rSqYMGCavv27bLvs88+U7///ru0fUHAV6pUKf3If3iuKVOmqOjoaHXmzBmVO3duVatWLdWxY0e5FzvcK1y+fFldv35dXtPPP/8s25LDgAED1MCBA/WjGJGRkeq7777Tj4goWPH3l4goODBwoySBHp7NmzfrR7f88ccfEnSkSJFC3X///XprbGvWrFGZMmXSj2KrUaOG+vHHHyWwQxDVo0cPNWrUKL3XPQQsFSpUkHaBAgVU9uzZpQ1XrlyRe7p69areotQzzzyjPvnkEwnQ7EzghufD89qhV+v777/Xj7zDcXXq1NGP/PPOO+/If57Mr2vmzJnV+fPnpZ0+fXo1adIktz2AnTp1kmCPgRsRxRd/f4mIggOHSlKSmDhxogQKrkuLFi1kPwIzd/uxeAra9u/fL0FbRESEGjp0qGybNWuW+vfff6XtDwRA9ufas2ePunjxolq9erUEhTB9+nT5j0ogXn75ZQnoPC3NmzeX43LlyqUefPBBafsLvXlRUVEStLVu3VodPXpUAsidO3dKQIrgs3379uqnn37SZxARERFRuGHgRiHj888/l3W1atVUhw4dZLji8ePH1cqVK2V7fKVMmVJ6zDDssmjRorINgWcgHnvsMemF87SYHj0EcHg+f126dEn16dNH2lWrVlVffPGFypcvnzwuXbq0+uabb1SePHnUjRs31GuvvSbbiYiIiCj8MHCjkIGeMEDwg3lp9evXl8dme0JhaGSrVq2kffr0aQmaEsOJEyfUt99+K20EeIFYuHChBKcwZMgQlSpVKmkbOXPmVD179pT2unXr1O7du6VNREREROGFgRuFhI0bN8pQSWjZsmWs9bx58xItyDJzyNAr5jrHLb7QS3bz5k2Zl1avXj29NTYMfTx79qwkErFbunSprBGgeTr3qaee0i2lFixYoFtEREREFE4YuFFIML1qyP5YpkwZaWO+HOa7IWj7+uuvZVtCXLt2TS1atEjayEIZyJBGb2bMmCFr9BRieKc7hQoVUtmyZVOLFy/WW2Js27ZN1rgfJHRx5+6771b33nuvtH/55RdZExEREVF4YeBGQQ+9ULNnz5Y2knMYmNtlEn0kdLgkUu03adJE7du3T5KjjBgxQu9JGJQIQEIVsN+7v/bu3Svr4sWLy9qTkiVLyppDJYmIiIjCEwM3CnpIwHHq1Clpu84RM8EQjsFcMl/efffdWIWpK1WqJJkeUQsOZQG6desmvVy+asP5C1kvAcMuERh6gtIISNlvr1+H4ZXIGAl58+aVtSd4DYAMmUREREQUfhi4UdAzvWnIpoiMknZt2rSRNYKcmTNnStsbpP9HHTWzbN26Vf31119SUgBBz+HDh9WmTZvkeonBZMJE0IZ6a56gdh3KE9StW1dvUc46beDtXMD8OUDBbSIiIiIKPyzATbeVKQiNniUk4/DlwoULMiQSPU8vvfSSGjdunN5zC3rNEIBVrlxZgi5XCIhMAe7JkyfLPRiY13bs2DG1ZcsWuS+T3KNBgwYyby5DhgzyGLwV4HYHddbKli0r7WnTpklh70AgCMuYMaO0P/jgA/XKK69I250XX3xRTZgwQebKYXim4W8BbtSKs5+X2FCo17VAOQv4EoUGFuAmIgoO7HGjoDZ37lzncEH0iI0ePTrOgtIAsHnz5oDneKVJk0aCHfTczZ8/31m/bcWKFVL0OiFMUhI8hynAHQh70IgA0xvT04bgMj4Q1OE/YUm1JGVQSERERHRHQI8b0e3SsWNH9PBaWbJk0Vu8a9CggRzv79K3b1995i3R0dHO/ZMnT9ZbPatTp44cmzNnTr0lBu4Z20eNGqW3eFe0aFE5vmHDhnpL4PLlyyfX6N69u97iXr169eS4hx9+WG+JYd7v8uXL6y3JwxEEy33Yl8jISL2XiIIZf3+JiIIDe9woaB09etRZuPrpp5+Wem2eFgwFBPRyOf5dSzu+MPQSMPfNPs8sEMgk+dtvv0m7bdu2so6PUqVKyRpz87wx2SdLly4tayIiIiIKLwzcKGgh2YhJEtK9e3fVqlUrj0v79u3lOAzJW7dunbTjy56dMlWqVLoVGJMoBbXX4jNM0qhevbqs8Zpci3MbBw4ckKQqULVqVVkTERERUXhh4EZBy2STLFCggCQe8cbeq4VEIPF18OBBmesG6L2yzzPzFzJUzpkzR9p16tRRuXPnlnZ8mPIHSNJirulq0qRJsk6dOrVq1qyZtImIiIgovDBwo6C0a9cuZxZEBGURERHS9qRgwYLOUgEIcP755x9p+wvJPRDw1a5dW126dEm29evXT9aBQjIOZKoEU67Al3LlyqnChQtLPTo71JOrVauWtN944w3ndQ1kwxw5cqS0u3btGu/kJEREREQU3Bi4UVCy95q5Ft32xPS6nTlzRi1ZskTarsaMGeMcXtmiRQspwl2mTBkpT9ChQwd15MgRqZk2fvx41a5dO31WYOz15EyBcF9Q/PvQoUNu67ChhEHOnDnl3h544AHVv39/6WV79dVXpUfv6tWrqnjx4nHSdRMRERFR+GDgRkEH89pMKn13Rbc9sQ+XNMMsXUVHR8tQSCwLFy6U2mJI7JE/f37VuHFjNXz4cJknh96r+EBP31dffSVt3Deum1DFihWTOW4ozn3y5Ek1aNAg1blzZymFgDIBeN1r165lbxsRERFRGGPgRrcVCj0j66O34ttI6IHeJxyHzJJ47A8Ml8Q5WEzwBOilMtvdLUj6gblt6KV7/fXXEzQnLW3atNLjh+sis6S/8H7gHPQEulOiRAm1atUq6ZlbtGiRmjp1qlq6dKkkUvniiy8SdM9EREREFPwYuBGFECRqadq0qWTRbNSokcqePbveQ0REREThjIEbUYCWLVumBgwYIEMVgxXuD4tJ8EJEREREoY2BG1GAli9fLolAgjlww/1h2bZtm95CRERERKGMgRuRn9asWSPJTcziKXNlMLDfJ5bZs2frPUREREQUihi4Efnp/vvvl0QnZkGB7mBlv08sJUuW1HuIiIiIKBQxcCMiIiIiIgpyDNyIiIiIiIiCHAM3IiIiIiKiIMfAjYiIiIiIKMgxcCMiIiIiIgpyDNyIiIiIiIiCHAM3uqN8+eWX6qGHHoq1LFu2TO8NH66vsUuXLnoPEREREYUiBm4Ux9q1a1XWrFnjtfTp00dfRalz5865PQZLnjx5VKlSpVTdunVV37591Xfffacsy9JnxrVjxw6318GSP39+uVbjxo1V//791bZt2/RZcR0+fFh9//33svz888+y/P3333rvLatXr5Zgp0aNGlIHDdceOHCgOnr0qD7Ctz///FPej06dOqk//vhDb42/7du3q9dff13Vq1dPVahQQTVs2FANGjTI7bXNa1u/fr281s2bN+s9RERERBSKGLhRHOnSpVOFCxeOs9x9990SjGHJmDGj22OyZ8+ur6IkEDPHu14zW7Zs6sSJExKwDRs2TAK4SpUqqS1btuizY/v333+d18qcOXOsa+FeDh06JD1nCGQQaLVv315dvXpVnx1XlixZ1NmzZ2V56qmn9NaYe37hhRckOPr000/lfhAY4doDBgyQAPHbb7/VR7u3f/9+9Z///Efde++96t1331VTpkxxGxwG4p133pHXNXLkSAkqf/vtN/XNN99IoIp7mjVrlj4yhrvXRkREREQhzPEfVSK/HDx4EF1isowaNUpv9ezMmTPO46OiovTW2Hbu3Gn17dvXcgR2clz69OmtlStX6r23REdHO681efJkvfWWGzduWI6AxqpRo4bzuN69e+u9t+C+sc8RuOktsY0fP955/tChQ60rV67Idrz2atWqyXZHcGo5AkjZbofX8uSTT1opU6Z0XsMsuP/4wus112ndurV19OhR2Y7nq1ChgmxPlSqVtXHjRtlu17FjR9lfvnx5vSV54OdvXoNZIiMj9V4iCmb8/SUiCg7scaNkVbp0aTVkyBC1YcMG6a1zBErq8ccfl964QDiCJZnLtWrVKlW0aFHZNnHiRFkHYty4cbJu1KiRDHNETyGgZ88RQEkbvWeu8+J+/PFHVaZMGTVz5kx53K5dOzVp0iRpJ8SlS5ecw0+rVq2qvvjiC5UvXz55jPcOvW4YduoIXNVrr70m24mIiIgo/DBwo6CAYYCffPKJtBEYjRgxQtqBQqDVqlUraZ8+fVoCn0C89957aurUqTLk0tV9993nDOQwf82uWrVqEli9/PLLMlQSARzmoSXUwoUL1fHjx6WNADdVqlTSNnLmzKl69uwp7XXr1qndu3dLm4iIiIjCCwM3ChqtW7dWxYoVk/aMGTNkHR+WTnKCXjgTaPmrWbNmMj+ucuXKesstmDOHni3APDu7iIgI6XUbO3as9M4FCnP3MCft+vXrekuMpUuXyhoBGubduWOfx7ZgwQLdIiIiIqJwwsCNggaCn0cffVTaR44ciVcmxmvXrqlFixZJu3bt2hK8JRYkADGBW2RkpKztcP/xVahQIUnYsnjxYr0lhsmQideSIoX7X1ckjUEiFPjll19kTUREREThhYEbBRX78EKkvw8Ejm/SpInat2+fypQpU7yHW7pCRkvMV+vWrZs87tq1qypRooS0k9revXtlXbx4cVl7UrJkSVlzqCQRERFReGLgRkEFiTYMDB10Byn27cWlUUYgV65cqmLFitJLhwALPVV4nBCXL1+WJCW5c+dWnTt3VnfddZeULsBwyMR2//33q/Lly0uZAuPmzZuSrAXy5s0ra0/w+uHixYuyJiIiIqLwwsCNggoKahuegpA9e/Y4i2hj2bp1q/rrr7+kZwznoMj2pk2bJPBJCAy7XL58uSRLwTBFBFc5cuRI8HXdWbNmjRTMRj074/z587qlVPr06XXLPTPnDsEmEREREYWfCNQE0G0ir37//XdVpEgRaY8aNUr16NFD2p6gxwzztiAqKkoKWPuCQAy9aIDC1R06dJA2ghozjBJp+Tt16iRtQIB17NgxKZaNc0yCjgYNGqivv/5aZciQQR7D6NGj1auvvuoswO0NAjQEgLt27VJz5851zp2rWbOmpOFH4W9v7PccHR0tmTMDgSDMPMcHH3ygXnnlFWm78+KLL6oJEybIXDn8nAy8T3hP0JuH+/Hks88+i3VeYkOhdfxs7TBPENuJKLjhb/fAgQP1oxj8/SUiuv3Y40ZB5eTJk7qlpK6bP9KkSSMBS5s2bdT8+fOd9dtWrFghAWN8oZcNaf6fffZZScv/5Zdfyrb169ert99+Wx+VdOwBJ4JTb0xPm73HMhAI6vCfsKRakjIoJCIiIroTMHCjoGLvFUKB6fjAfLQ6depIGz1JiQUZL5944glpo9ZbUgyZdGWKbWP4pzfIwgkoGxAf6Il0F3Al1mLvISUiIiKiwDFwo6BihjkiSUnRokWlHR9IWAKY+2afK5ZQZg4a5r2dOnVK2kmpVKlSssa8Pm9M9sn4BrtEREREFNwYuFHQQCIQU4fs8ccfl3V8nThxQreUSpUqlW55hxptOA9z2v755x+9NTZ7kpDb0eNWvXp1Wa9bty5OcW7jwIEDzh65qlWrypqIiIiIwgsDNwoK+/fvl7lkgLT7b7zxhrTj4+DBgzLXDdADZZ8r5s2yZcsk7X6ZMmUkqYk7yGAJSBoS32GJgXjsscdkfeHCBTVnzhxpu0KNOUidOrVq1qyZtImIiIgovDBwo2SFIYeYX4WeImSGRPIPZI3Mnz+/PsJ/SNAxbdo0Vbt2bXXp0iXZ1q9fP1n7A1koUbMNBg8eHGeIJYpbm8QnLVq0kEApsZQrV04VLlxYslXaoRZdrVq1pI1gFu+RHTJpjhw5UtooDB7f5CREREREFNwYuNFtMWvWLNWqVSvnUq9ePZm/hV4rpOc/c+aMKliwoFq6dKmzl8mTMWPGOK+DAArlA9BLhhT/KB+ARB0Y0jh+/HjVrl07fZZvadOmVR9++KEEjxiyifT9SIONNPvdu3eX4BI9X6jlNmTIEH1W4kDh8EOHDrmtw4ZAFu8TXhfuqX///tLLhvcNSViuXr2qihcvHiddNxERERGFDwZudFsguQaGL5pl9erV0nuEgAPz2aZPny7HPPLII/oMz1ATzVwHafpRHwzJOdBL17hxYzV8+HBJP48eqEChpMCSJUskEMSQSwRDqJGGYBFBG+5vw4YNznp2t0OxYsVkjhsSo6BcwqBBgyRzJnoqUSagbdu2au3atextIyIiIgpjLMBNd5RACnDv27dPgsmLFy9KIXH0diHbZXL6888/1fbt22WIaa5cuaQX0Fu9O38LcCc1FvAlCl38/SUiCg7scSPyAL2BSPaB4ZYNGzZM9qANChQooJo2barat2+vGjVq5HeRciIiIiIKbQzc6I6EeWH4FhlLcvZEJZVwfm1EREREdyIGbnRHQp02DP3BEo7BjXlt27Zt01uIiIiIKJQxcKM7ytNPPy3JTewLMlOGG9fXOHv2bL2HiIiIiEIRAze6oyChB5KM2JdwnCfm+hpLliyp9xARERFRKGLgRkREREREFOQYuBEREREREQU5Bm5ERERERERBjoEbERERERFRkGPgRkREREREFOQYuBEREREREQU5Bm50xzhw4IBas2aNWrRokVq3bp06d+6c3kNEREREFNwYuFHQaNasmcqaNWu8Fk9B2IkTJ1SvXr1UwYIFVbFixVSdOnVU8+bNVa1atVS2bNlU3bp11fLly/XR7qFot7vn9Lbs2LFDnx3Dfg3Ujdu9e7fe4967774rxxYqVEhvuQXXNtdyXfLnz69KlSqlGjdurPr376+2bdumzyIiIiKiUMbAjYJG3rx5VeHCheMsKVKkkMDswoULbvdjwTGu5s2bJ4Wnhw8frk6dOqVatmypBg8erEaNGqW6d++u7rnnHvXdd9+pRo0aqa5du6p///1XnxnbpUuX5Pn/+ecft8/tbkmTJo0+O4a5BpYzZ86ovn376j3uXb161Xm8K9yn2Zc5c+ZYz5sxY0Z16NAhtWzZMjVo0CApvt2+fXu5HhERERGFMIsoyHXs2NHCP9UsWbLoLb7NmTPHcgRzcl6TJk0sRzCj99ziCGasF198UY7B0qtXL70nNkfAJ/vLly+vtwTOXCNHjhzO51u/fr3eG1dUVJQc4+41R0dHO68xefJkvfWWGzduWKtXr7Zq1KjhPK537956b/Iwr8e+REZG6r1EFMz4+0tEFBzY40Zh548//lDPPvusunnzpmrYsKFasGCBDJV0lTZtWjV+/HjVtGlTeYyeuaQeWugIIpUjAJT2m2++KevEljJlSvXQQw+pVatWqaJFi8q2iRMnypqIiIiIQhMDNwo7AwcOVBcvXlSpU6dWn376qQQynkRERKgRI0aoTJkySUC1efNmvSdpYEjngAEDpP3DDz+oxYsXS9tVlixZdCv+0qVLp1q1aiXt06dPy3BNIiIiIgpNDNworCBgmzFjhrTbtm0r89h8wTy48+fPq+joaNW5c2e9NWmcPXtW5tph7hn06dNHegZdIaBMDJaFUU0xvXAI5IiIiIgoNDFwo7Dy/fffOxNxIEtlMEJQNmzYMGkjQ+T06dOlndiuXbsmpQ+gdu3aXnseiYiIiCi4MXCjsIJeM6Ny5cq6FXyQybJatWrS7tevn2SsTEzbt2+X+XT79u2TYaAYDkpEREREoYuBG4WVo0eP6lZMeYHEdPDgQZkz5ml59dVX9ZH+Qbp+QDIVJEmJD9R7QyISs1SqVEnlypVLVaxYUa7brVs3SbiCx0REREQUuhi4UVi5fPmybinpaUpMmAc3f/58j8vq1av1kf5p0KCBqlevnrSHDBnitmabL3v27JHhoWbZunWr+uuvv6TWG+b7HT58WG3atMntPDoiIiIiCh0RqAmg20RBqVOnTmrKlCmSaRHJPbxBIe2PPvpI2ghcUJA6odCbhsCsbNmyas2aNXprXJhD5ilYNNdAYpKvv/5ab1USVFWtWlXa/fv3l4yYMHr0aOnBc/eaf/75Z1WhQgVpT548Wd4fA/Pajh07prZs2SLvGUohAIJEPG+GDBnksavPPvtM/f777/pR4kOhcwSWdpGRkbKdiIIbMuGav00Gf3+JiG4/9rhRWLEPjzx16pRuJQ4EZlmzZvW4+NPDh8DKrkqVKuqxxx6TNuahobcsIdKkSaMKFSqk2rRpI4Giqd+2YsUKFRUVJW13EAziP2FJtSRlUEhERER0J2DgRmGldOnSuqVk2GCwsQ/lNIYOHSpBIeqsoQg4JFYGSJQ3qFOnjrTRq+YJevjcBVyJtdh7BYmIiIgocAzcKKwgQQeKXMPKlStl7Q9kozxw4ECyzAUrXry46tKli7THjRsnPYWJOT8PCUsAvXmYp0dEREREoYeBG4UVZFREGnyYNm2azzlxgGAGc8CKFSvmDHJuNwxjTJ8+vfS6IVFJYjpx4oRuKZUqVSrdIiIiIqJQwsCNwg4m0aPXDclJevToobd69tprr6nTp09L29s8sKSUL18+ZzmBCRMmSIKRxIASBpjrBhhG6ik5CREREREFNwZuFHZQs2zw4MHSRmZFZJpEEOcKiUJeeeUV9emnn8pjBHnI/phcevXqpbJnz66uXr3qzIwZX5hLhx7H2rVrSy8eoNA3EREREYUmBm4Ulvr06SMFrtHzhiCoaNGiEqQhQcfs2bOlV+6+++5TY8eOlePffPNNNXLkSGl74qsAt31ZuHChPst/yEzZt29faaN4tj/GjBnjfM4WLVrIHL8yZcpIGYEOHTqoI0eOyBBMFPhu166dPouIiIiIQg7quBEFs44dO6LWoOUIRvQW/0VHR1tt2rSx0qZNK9dwXerXr2+tXbtWH+1ey5Yt3Z7rbRk1apQ+O4a5RmRkpN7i3uXLl60CBQo4r+PuNeM1mf3ullSpUlmFCxe2GjdubA0fPtw6ceKEPjP5REVFxblPX+8FEQUH/v4SEQUHFuCmO8KVK1ek2PXRo0dlKGLu3LmlhhqSmVDSYwFfotDF318iouDAoZJ0R8BwQdQzw3BB1BRD5kkGbUREREQUKhi4ERERERERBTkGbkREREREREGOgRsREREREVGQY+BGREREREQU5Bi4ERERERERBTkGbkREREREREGOgRsREREREVGQY+BGREREREQU5Bi4ERERERERBTkGbkREREREREGOgRsREREREVGQY+BGt93atWtV1qxZ47X06dNHffzxx87HP//8s75qXOfPn1fZs2d3Hrts2TK9J66bN2+qAgUKyHEdO3bUW2M8/fTTzmv4u+zYsUOfHcN+DdzT7t279R733n33XTm2UKFCesstuLa5luuSP39+VapUKdW4cWPVv39/tW3bNn0WEREREYUyBm5026VLl04VLlw4znL33Xerc+fOyZIxY0a3xyDoqVWrlvO47777Tl81rg0bNqgzZ844j/3+++/1nrgQDB0+fFiOq1atmt4a49KlS7L9n3/+cXtP7pY0adLos2OYa2DBPfXt21fvce/q1avO4139+++/zn2ZM2eO9bx43w4dOiRB6qBBg9QDDzyg2rdvL9cjIiIiotDFwI1uu8qVK0tPmeuyZMkSfYRSvXr1cnsMtpcuXVp6lmDNmjWydgc9e3DvvffK2jx2x36dhg0b6lZsJUuWdHtP7hYc606OHDlkPW/ePAksE+qdd96J9bx79uxRFy9eVKtXr1Y1atSQY6ZPn64GDBggbSIiIiIKTQzcKCQ1aNBA1j/88IOyLEvarkyg9vLLL8t606ZN0mvmjgnc0GtlAr2k0KRJE1W+fHlpv/nmm7JObClTplQPPfSQWrVqlSpatKhsmzhxoqyJiIiIKDQxcKOQZAK3v/76S3qZXN24cUNt3LhR2k2bNpVhmAjaNm/eLNtcmWGU5rpJJUWKFM7eLwSdixcvlrarLFmy6Fb8YUhqq1atpH369GkZrklEREREoYmBG4Wk+vXrq4iICGm7m+e2ZcsWdeXKFZkDVqxYMVW1alXZ7m5o5f79+9WJEyek7WmYZGI5e/asatmypcw9AyRbQWIUV+a1JZTpjUQvHAI5IiIiIgpNDNwoJOXKlcsZ/LgLxtatWyfrKlWqSBCEeXXgbp4ber4AvWF169aVdlLC/QwbNkzaSIqCOWhJ4dq1a2rRokXSrl27tgRvRERERBSaGLhRyHrkkUdk7S5bpAnQTE+bSdSxfv36OHPiTOBWqVIlyVp5OzRq1MiZvbJfv34e597F1/bt22U+3b59+1SmTJnUiBEj9B4iIiIiCkUM3ChkmcDtyJEj6vfff5e2YXrcatasKWsEcOhxQir+Xbt2yTbDBHnmep4cPHhQ5ox5Wl599VV9pH+Qrh/++OMPNX78eGkHCvXekIjELAg+0RtZsWJFuW63bt2klhseExEREVHoYuBGIevBBx9U6dOnl7a9123v3r3q5MmT0q5evbqs77rrLlWuXDlp24dWHj9+XB04cEDavhKToKD3/PnzPS5IwR8IPF+9evWkPWTIELc123xBYha8drNs3bpVErag1hvKAqA2HbJpuptHR0REREShI8LylEud6DZDr1mRIkWkPWrUKNWjRw9pe4Mhh8uXL1edO3d2pryfNGmSPC5RokSsjJMvvfSS9Gw9/fTTznllX331lXrsscekcPXff/8dp3A2oDcNgVnZsmXdzqcz0KOHYYnumGsgMcnXX3+tt8aUKDDDOfv3768GDhwo7dGjR0sPHrJLIqGJHeq1VahQQdqTJ09WnTp1kjZgXtuxY8ckOcuUKVPUggULZDuCRDxvhgwZ5LGrzz77LE6vZWJCAhnXIa2RkZFeC6gTUXBAJlzzt8ng7y8R0e3HHjcKaWZ4o5mnBq7DJI1atWrJ2p6gxByLYYbugjY7BGZZs2b1uHgK2uwQWNkheQoCR8A8NPSWJQReQ6FChVSbNm0kUDTB7IoVK1RUVJS03UEwiP+EJdWSlEEhERER0Z2AgRuFNDO8EUk4MOwRTGBmAjXDPD506JDMiwMTuCV1/Tbj8uXLunXL0KFDJShEnbXhw4fLtsTKAImexzp16kgbvWqeoIfPXcCVWIu9V5CIiIiIAsfAjULa/fffr/LlyydtZIzEcEfMcQPXwK1AgQKyAAI2BFGYEwa3K3Bzp3jx4qpLly7SHjdunDp16pRfvXf+QsISQG8e5ukRERERUehh4EYhzwRdCNx++uknaefMmVOVLFlS2nYmmMNxmF9248YNdc8996jSpUvL9uSCYYxItIJeNyQqSUymuDikSpVKt4iIiIgolDBwo5BXv359WSNwQzAGrr1thtm+YcOG2z5M0hv0GppyAhMmTJAEI4kBJQww1w0QnHpKTkJEREREwY2BG4U8k6AEmRRN5kJfgRuGSJr0/cEQuEGvXr2kAPjVq1fVRx99pLfGD4aBTps2TdWuXVt68QCFvomIiIgoNDFwo5CXJ08eqdGGjI2rVq2Sbajx5g5S+mfOnFmCo5UrV8o202Pni68C3PZl4cKF+iz/ITNl3759pY3i2f4YM2aM8zlbtGgh2THLlCkjZQQ6dOggSVgwBBNlENq1a6fPIiIiIqJQw8CNwoLpdUNZQgQqJiGHqxQpUsQqE/DAAw+o3Llz60fe+SrAbV9MUe9AdevWzZlAxR/R0dHO50SwiB5HJGfJnz+/aty4sWSpRCr+rl276jOIiIiIKBSxADcRJTkW8CUKXfz9JSIKDuxxIyIiIiIiCnIM3IiIiIiIiIIcAzciIiIiIqIgx8CNiIiIiIgoyDFwIyIiIiIiCnIM3IiIiIiIiIIcAzciIiIiIqIgx8CNiIiIiIgoyDFwIyIiIiIiCnIM3IiIiIiIiIIcAzciIiIiIqIgx8CNbqv9+/erNWvWqEWLFqkNGzao48eP6z23x5dffqkeeuihWMuyZcv03vDh+hq7dOmi9xARERFRKGLgRrE0a9ZMZc2aNV7LuXPn9FViO3DggHrxxRdV3rx5VfHixVWdOnVU8+bNVc2aNVW+fPnUfffdpwYNGuTxfNixY4fb58SSP39+VapUKdW4cWPVv39/tW3bNn1WXIcPH1bff/+9LD///LMsf//9t957y+rVqyXYqVGjhnrggQfk2gMHDlRHjx7VR/j2559/qj59+qhOnTqpP/74Q2+Nv+3bt6vXX39d1atXT1WoUEE1bNhQ3jd31zavbf369fJaN2/erPcQERERUSiKsBx0m0iCFXf/yUdwcObMGZUiRQp1//33662xoSctU6ZM+lGMDz/8UL366qvqn3/+UalSpVINGjRQ1atXV5kzZ1bHjh1T3377rdqyZYsce/fdd6vZs2erWrVqyWM7BCEIVqBAgQIqe/bs0oYrV67I/V29elVvUeqZZ55Rn3zyiUqXLp3eEmP06NFyP1myZFFnz57VW2/BrwOCzI8//lgep06dWt11113y2gGvb968eerhhx+Wx+6gV/G///2v+uyzz9T169dlW3R0tASA8fXOO++oAQMGyP0B3r/z589LO3369GrSpEmqXbt28tgOQeOUKVNU+fLl5T1MLrh3BL52kZGR6rvvvtOPiChY8feXiChIIHAj8qVjx46IGCxHwKO3+DZmzBg5B4vjQ97at2+f3hPbihUrLEcwJsc5ghDrxx9/1HtucQQ+zmtNnjxZb73lxo0b1urVq60aNWo4j+vdu7fee8uoUaNkn6fXMX78eOf5Q4cOtRxBoWw/ePCgVa1aNdnuCBqtc+fOyXa7nTt3Wk8++aSVMmVK5zXMgvuPL7xec53WrVtbR48ele14PkcwK9sdQbG1ceNG2W5nfm6OwE1vSR5RUVHO12AW/JsgouDH318iouDAoZKUJDC08bXXXpN27dq11TfffKOKFSsmj13Vr19frV27VuXKlUt6z9BzhHUgHMGSzOVatWqVKlq0qGybOHGirAMxbtw4WTdq1EiGOZoeu8KFCytHACVtDK10nRfnCDZVmTJl1MyZM+UxXgN6wRLq0qVLch9QtWpV9cUXX8jwUihdurS8r3ny5FGOwNX5fhMRERFR+GHgRkkiKipKggkEVFOnTlVp0qTRe9wrWLCgGjlypLR///13GeYYHwi0WrVqJe3Tp09L4BOI9957T+4Xc8dcYS6eCeQwf82uWrVqEli9/PLLMlQSAZwZ2pkQCxcudCZwGTJkiAw3tcuZM6fq2bOntNetW6d2794tbSIiIiIKLwzcKNGhR2r+/PnSfvTRR6W3yh/opbrnnnuknZDeKkvPA0PQ6DrHzRckZ2nfvr2qXLmy3nIL5tAhGAXMMbOLiIiQXrexY8f6/XrtkJgFc+7MnDhj6dKlskaAhqQk7jz11FO6pdSCBQt0i4iIiIjCCQM3SnTIyHjz5k1pt2jRQtb+QG8SsjcCMkOixyxQ165dk1IDgCGaCN4Sy6xZs5yBGybmu0LwFl+FChVS2bJlU4sXL9ZbYpgMmXgtSAzjDpK63HvvvdL+5ZdfZE1ERERE4YWBGyU6e/BQpUoV3fIPhhwagQYhSJffpEkTtW/fPsn+OGLECL0nYf7991/pAezWrZs87tq1qypRooS0k9revXtljTIK3pQsWVLWHCpJREREFJ4YuFGis9c6Q29QIFDrzfBUM+3dd9+NVVy6UqVKktikYsWKUhYAARZ6qvA4IS5fvixJSnLnzq06d+4sZQGGDRsmwyETG0osIGU/yhQY6LU0SVrs74s7eP1w8eJFWRMRERFReGHgRokONdsMBDuBsB9vv47dnj17nEW0sWzdulX99ddf0jOGwAVFtjdt2uQcrhlfGHa5fPlymbNn6tflyJEjwdd1BzXwUGetbt26eoty1mkD1Grzxsy5Q7BJREREROGHBbjJL6aQs6fC1XbPP/+8MxU/sjpmyJBB2v5YsmSJatq0qbRnzJihnnzySWnbC3AjLT/ux0CAhWLeKOSNezQJOlDs++uvv471/L4KcNshQEMAuGvXLjV37lzn3LmaNWtKGv6MGTPKY0/s9xyfAtwIwsxzfPDBB+qVV16RtjsoGj5hwgSZK4esnIa/BbhRLNx+XmJDoV4E2XYs4EsUGliAm4goOLDHjRKdqTMGJ0+e1C3/2I9HfTJ/oNQAApY2bdpINksTNK5YsULKEsQXetkw5+7ZZ5+VtPxffvmlbFu/fr16++239VFJxx5wIjj1xvS0Zc2aVdaBQlCH/4Ql1ZKUQSERERHRnYCBGyU6FIY2fvrpJ93yD3q4jFKlSulWYDAfrU6dOtJGT1JiQWmDJ554Qtqo9ZYUQyZdmSAYwz+9OXLkiKxRNiA+0BPpLuBKrMXeQ0pEREREgWPgRokOQ2hManxTh8wfCISWLVsmbWRtDDSxiR0SlgDmvtnniiWUmYOGeW+nTp2SdlIywSvm9Xljsk/ag2YiIiIiCh8M3CjRoZeofv360p45c6Y6ceKEtH3BcMTffvtN2iiCnRD250R9OH+gRhvOw5w2T4lR7ElCbkePW/Xq1WW9bt26OMW5jQMHDjh75KpWrSprIiIiIgovDNwoSWAyO3rdEAB16dJFMj56g94rk3wje/bs6uWXX5Z2fBw8eFDmugF6oPxNjoLePqTdL1OmjCQ1cQcZLAFJQ+I7LDEQjz32mKwvXLig5syZI21XqDEHqVOnVs2aNZM2EREREYUXBm6UJJB50STwQDbGtm3behxauGPHDhleiRpsSP6BQCQ+STaQoGPatGmqdu3aks0S+vXrJ2t/IAslarbB4MGD4wyxRHFrk/ikRYsWEigllnLlyqnChQtLtko71KKrVauWtN944w3JnmmHTJojR46UNgqDxzc5CREREREFNwZulGSQPrp///7S8zZv3jxVpEgR9dxzz6mPP/5YffHFF5LiHgEQUtX/+uuvcs64ceNUy5Ytpe3JmDFjVKtWrWTB+SjCjV4ypPjv0KGDJOrAkMbx48erdu3a6bN8S5s2rfrwww8lePzll18kfT96DpFmv3v37jIMET1fqOU2ZMgQfVbiQNB66NAht3XYUP4AvXt4XbgnvKcIblHWAElYrl69qooXLx4nXTcRERERhRHUcSPypWPHjqj3ZzmCI73Ffxs3brQcAZblCIzkGq7LfffdZ5UoUULajgDMcgQx+sxboqOj45xnX1KlSmUVLlzYaty4sTV8+HDrxIkT+szYRo0aJcd7ex3Lli2T+3B9DiyPPPKItXfvXn2kd/Z7Rtsb3A+OcwS4ektse/bsserWreu8nlnwutu2bevx9ZqfmyM41luSR1RUVJx7j4yM1HuJKJjx95eIKDiwADfdNugZ2rx5s/QcXblyReaeobetZMmSMowShbdRDgDZJFGIG/sSWyAFuPft2yfZHC9evKiyZcsmvV3+1pZLKn/++afavn27ZLXMlSuX9AJiTqAn/hbgTmos4EsUuvj7S0QUHDhUkm6bdOnSyXwt1EJDQPH4449L0AYIQr799ltVr149dfToURkCuGbNGtmXXDD8EMk+MNyyYcOGyR60QYECBSTARdbNRo0aeQ3aiIiIiCh8MHCjoJEpUyap+9amTRsJ5BA4JRX0/uFbZCzJ2ROVVML5tRERERHdiRi4UVBJkyaNJC5Zv369pOZPKihTgKE/WMIxuDGvbdu2bXoLEREREYUyBm4UdFKmTOlMy5/Ynn76aRUdHR1rQWbKcOP6GmfPnq33EBEREVEoYuBGdxQMwUSSEfsSjvPEXF+jmUtIRERERKGJgRsREREREVGQY+BGREREREQU5Bi4ERERERERBTkGbkREREREREGOgRsREREREVGQY+BGREREREQU5Bi43eEOHDig1qxZoxYtWqTWrVunzp07p/cEbv/+/c5rbdiwQR0/flzvIVdnz56VIuPLli1TS5cuVT/99JO6cOGC3ktEREREFBsDtzvQiRMnVK9evVTBggVVsWLFVJ06dVTz5s1VrVq1VLZs2VTdunXV8uXL9dHeIfB78cUXVd68eVXx4sWd16pZs6bKly+fuu+++9SgQYN8BoTdunVTWbNmVeXKldNb/PPHH3/IeVhmzJiht/oH92TOdV3y5MmjSpUqJe9F37591Xfffacsy9JnxmW/1rvvvqu3xnbjxg31v//9T+qq4X1+8MEHVePGjVWTJk1UtWrV5Nz69eur1atX6zPiQgFx8zyoP7d79269xz3cC44tVKiQ3kJEREREoYiB2x1m3rx5Uox5+PDh6tSpU6ply5Zq8ODBatSoUap79+7qnnvukSClUaNGqmvXrurff//VZ8b14YcfqjJlyqgJEyao06dPSxAycOBAudYbb7yhKlWqJIFF//79VenSpdXatWv1mXFdvnxZgp/z58/rLf65efOmnIfl2rVreqt/EIiZc9OlS6cKFy7sXBBYIcDFezFs2DAJ4PB6tmzZos+OzX6tq1ev6q234P1BYPzyyy+rbdu2qQoVKsh7NHbsWPlZdO7cWQKsb7/9VtWrV0/997//1WfGdunSJefznDlzRoJKb3Av5ngiIiIiCmGO/3DSHWLOnDlWihQp0G1kNWnSxDp06JDec4vjP/rWiy++KMdg6dWrl94T2+jRo53HREZGWvv27dN7YluxYoVVoEABOS59+vTWjz/+qPfE1rFjRzmmUKFCeot/Dh486LyPyZMn663+cQQ+znOjoqL01th27txpOYIjyxHYyXF4DStXrtR7b/F1raeeekr2pUmTxpo7d67eGpsjuJKfi7nODz/8oPfc4gi0ZV+OHDmcx61fv17vjQv3gmOyZMmityQPcx/2Bf9uiCj48feXiCg4sMftDoEhhc8++6z0UDVs2FAtWLBAhkq6Sps2rRo/frxq2rSpPEZvEHqI7LZv36569uwp7dq1a6tvvvlGhly6g6F/6GnLlSuXunLlimrXrp2sQwV6CocMGSJz9jA0Eff++OOPS2+cv9Cb+MUXX0j7ueeeU61bt5a2q8yZM6uZM2dKzyeGl+Jn5QmGV5YvX17ab775pqyJiIiIKHwxcLtDYAjjxYsXVerUqdWnn36qUqZMqffEFRERoUaMGKEyZcokwcHmzZv1nhhRUVEyXwvXmDp1qkqTJo3e4x4CxJEjR0r7999/V5988om0QwnmpZn7/vvvv+X98ReGSeL9AgzD9AbB2+jRo9Xbb7+tIiMj9da4UqRIoQYMGCDtH374QS1evFjarrJkyaJbRERERBTKGLjdARCwmcQdbdu2lXlsvmAeHOabRUdHy/wrA0EIeuvg0Ucf9RmIGOhpM887adIkWYca9JSZnsVAEqEgcQt6MuGrr77yOm/QX8hKifmJCCihT58+bnvoEIQTERERUehj4HYH+P77750JM5o1aybr+ELGQxMgtGjRQtb+SJUqlSQvAQy9RAAYahAEIViFI0eOyPBTf6CXs2PHjtLetGmTvG979uyRxwmB+0HiFNixY4eaPn26tImIiIgo/DBwuwOg18yoXLmybsXPL7/8oltKValSRbf8g5T3hv06oQTZIA3M9fMX5goi/T8sWbJEyiS0atVKzZo1S3pE4wvZP8372q9fP/XPP/9Im4iIiIjCCwO3O8DRo0d1K2bYXkIcO3ZMt5S6++67dcs/9ue231MoQX03A8MV/YX5guitfO+99yRRi2VZav78+erJJ5+Uaz711FNSOy8+wyiRyATQA4jEMkREREQUfhi43QGQ1dBAAJEQ9h6du+66S7f8Yz8+VHuGUGvNCLSnDEMmUbsNwywRtGHYJRK74OeDbJLoPUMiFxTNdlcLzpMGDRpI7TdABkzWbCMiIiIKPwzc7gDp06fXrZgCzgmB4MOwB4T+sB9vv04osQdFGTJk0K3A4LVjntuXX36pjh8/rj766CNVo0YN2YeeSCQawZDMw4cPyzZ/INgDzB00GTwD8dlnn0mWyqRaUMiciIiIiOKPgdsdwD5E8dSpU7oVP/ny5dMtpU6ePKlb/rEfn9Ahm8nF/hpQ1y2hsmXLpl544QW1fv16tWXLFuk9g927d8swSk+uXbumWzEw3/Cxxx6TNkoV/PXXX9L2188//yzBVVItKANBRERERPHHwO0OgCLSxtatW3UrfuzX+umnn3TLP8ioaJQpU0a3QgsCHMP+XiSGihUryjw3FEgHFC53raFnuOvtHDp0qNTWQ68qkqGAt3p9dqgd5y7gSqylU6dO+pmIiIiIKD4YuN0BHnroISnYDCtXrpS1P5CN8sCBA7Hqg6EotKkNtnTpUln7A9dYtmyZtEuVKhWyPW6mhh0SihQtWlTaiQnv7UsvvaQfxfS8+at48eKqS5cu0h43bpz0riZ0TiMRERERBQcGbncAZDFs0qSJtKdNm+ZXNkQU38awPRScrlSpkt4aM1Syfv360kZCjRMnTkjbl4ULF6rffvtN2u3bt5d1qEFvmClj8Pjjj8s6KaRLl063Ys9P9EdUVJScg143JCohIiIiovDAwO0OMXDgQOl1QybEHj166K2evfbaa84i2QgG7JBsAj1DyAyJHh5fKezR8/PKK69IO3fu3LF6lELF/v371bPPPittZMdEdkh/ffvtt/J+tm3b1q+i3Z9//rmskcQEvaWBQGD96quvSnvChAmxyjcQERERUehi4HaHwPypwYMHS3vKlCmqa9eubtPZI+kFgqxPP/1UHiPIQ6Fou5o1a6q3335b2osWLZKAxFPSkx07dsjwSgQsmG+FHr8sWbLovcHv77//lvlfVatWlSAIwe/kyZNV/vz59RG+occTQxeRRRLz13799Ve9J7YbN27I+4qfD7z11lsqR44c0g5Er169JHEKSgogYyURERERhb4IC5WA6Y6B4A09aJhzhoCiXbt2EtRheB3mU02dOtU5pPHNN9/8//buBdiu6f4D+ErEH+ORBxJaBENSlTaoV6dUVZAJEVVUhUaSTpV2miBRdIoMTU0xMYqhrXpUVal6tPQR2jApE2k9ppRSTcJ41SNJCaE4//tb9rluknNvbsiNda7PZ2bPWWc/Ts7d9jX7e39rr5UHvKg/09ZWXDZReYvJn6O99tpr5+6Du+66a57rLEJOVJoi2MX29dZbL3/2qFGjqk9YUgxeEYElvsc+++xTrW1fVKXi34zRCrfYYou8LobQj3nQOjJy5Mg0fvz43I4uozGqYxg8eHB+9q4uuorG0PyPPvpo/v4hPvvHP/5xw+/X9rPi/Ma5aSu+77hx43IwjgAb0wFENW3TTTfN3RofeOCBdO2117ZW5E444YR09tlnL3PuI0THHHARhmPQj/bEyJKTJk2q3qUclldkwvCVLc5HVH3bWt7PAJTB7y9AIVpuSvmQue+++2oHHXRQbY011ohEsswybNiw2syZM6u9OzZr1qxaSwhp97Nawkzt2GOPrT355JPVEY2NGTOm4fHtLfPnz8/HzZkzp+H29pYJEybk40J8RqN96ktL2KwNGjSo1hJIa1dddVXttddeq45cVtvPaglu1dolPfjgg/mz1lxzzSX+nfrSq1ev2v7779/huW8Jvnnflpumak1jr776aq0lFLZ+dktwq7Z8MOKc1L9LfVnezwCUwe8vQBlU3D7EWoJIHqI/KkvRrS6eP4v5wKISt6Li+Bi6/qmnnsqfG6MZxiiHQ4YMaR3RknfE+YkKW1QL47zFYCQxSmWc+3h+rjvyF3toXn5/AcoguAFdzo0fNC+/vwBlUAoBAAAonOAGAABQOMENAACgcIIbAABA4QQ3AACAwgluAAAAhRPcAAAACie4AQAAFE5wAwAAKJzgBgAAUDjBDQAAoHCCG0XbfffdU58+fRouG220Udp6663TsGHD0qRJk9L06dNTrVarjlzW3//+94af09EyevTo6uiUZs6c2XCfziwnn3xy9SnLevvtt9P111+fxo4dm84///xqbWPxfeqf2a9fv/TII49UWxo766yz8r4DBw6s1gAA0IwEN4r28ssvp4ULF+ZAtvnmmy+xrL/++unFF19Mt99+ezr33HPTPvvsk7bddtscsBp566238mfF0rdv32U+r9HSv3//6uiU1lxzzYb7fOQjH2n93LXXXrvhPhGylvbmm2+mK6+8Mg0ZMiQdfPDB6fLLL09/+tOfqq2NLVq0qPXfmj9/fjrllFOqLY0tXry4dX8AAJqX4EZT2HPPPdP999+/xPLQQw+ll156KT355JPpBz/4Qa4sPfzww7kCN2vWrOrIxqZNm7bM5zVaYr+6HXfcseE+t956a7VHSpMnT264T6yve+ONN9LFF1+cBg0alMaMGZO/84qK0BpuuOGGdPfdd+c2AADdl+BG09tkk01yMLrzzjtzVez1119Pxx9/fLW1PKNGjUrHHHNMmjNnTq7G/fCHP8zVwhUxYsSINHTo0Nw+6aST8isAAN2X4Ea38YlPfCIdfvjhuX3XXXelV155JbdLM27cuLTDDjuka665Jj322GPpm9/8ZlprrbWqrZ3Ts2fPdPrpp+d2BNZbbrklt5fWu3fvqgUAQDMT3OhWBg8eXLVSevrpp6tWWeJ5tr/97W/pS1/6UurVq1e1dsUsWLAgV+622267/D4GP4lBTpbWo0ePqgUAQDMT3OhWnnnmmaqV8gAkJVpZYSo+5/vf/35ux4iZV111VW4DAND9CG50G9E18tprr83tbbbZJm244Ya53Z0NHz487bLLLrn93e9+Nz/fBwBA9yO40S0899xzaeTIka3dI+vPf7UnKlUHHnhgu8vyRqUsyRlnnJFfn3jiiXTRRRflNgAA3YvgRlOIUBLznC29nHPOOemwww5LW265ZZoxY0ZabbXV8pxuhx56aHVkY/fcc0+66aab2l3adrks3d57750+//nP5/b3vvc9c7YBAHRDPWoxszEUKgbfeOCBB6p37RswYEDaf//908SJE/OE1o3EfGrbb799bsfzYPvtt19uNxITaa+++urVu47NnTs3bbHFFrkd877Fd1hRUeWLwBgDjtx4443V2mW1t9/s2bPTzjvvnNunnnpqmjJlSm6fd9556bjjjsujS8aAJu2JEBw/R1eJUH3HHXdU796xxx575PVA2aIHQ/3/KXV+fwFWPRU3mkIErssuu6x1ibnPYs62EIFl3rx56Sc/+Um7oW1pEcxiwu72ls6Gtg9KTOLd1k477ZRHqwxRcXzhhRdyu7Mi1MZNWFctXRkKAQA+DAQ3msJmm22WjjrqqNYl5j6LoBai2+ORRx6ZPkzF41dffbVqvWvq1Km5q+iiRYtyF9IQ7zsjKnONAtfKWuK/GQAA753gRtMaPXp0OvHEE3P7uuuuSyeccEJuf1htvfXW6atf/WpuX3DBBen5559P6667bn4PAEBzE9xoalFlGjFiRG7H82VROfowO+2009Jaa62Vq24xUAkAAN2D4EZTi66AV199dRo8eHB+H1W3X/3qV7n9YbTxxhvnwUjCJZdc0lSjYwIA0D7BjaYXIybefPPNeVCRt99+Ox1xxBFp5syZ1dYPn8mTJ6d+/fqlxYsXp4svvrhaCwBAMxPc6BYGDRqUrrnmmtSzZ8/0+uuvpwMOOCA98sgj1dZlLW8C7voSz9E1mwiwp5xySm7H/HcAADQ/wY1uY999920dTXH+/Plp+PDh7XYVXN4E3PXllltuqY5oLscee2zadNNNq3cAADQ7E3ADXc4EvtC8/P4ClEHFDQAAoHCCGwAAQOEENwAAgMIJbgAAAIUT3AAAAAonuAEAABROcAMAACic4AYAAFA4wQ0AAKBwghsAAEDhBDcAAIDCCW4AAACFE9wAAAAKJ7gBAAAUTnADAAAonOAGAABQOMENAACgcIIbAABA4QQ3AACAwgluAAAAhRPcAAAACie4AQAAFE5wAwAAKJzgBgAAUDjBDQAAoHCCGwAAQOEENwAAgMIJbgBNYu7cuen000+v3rGinD8AmpngBtAkInScd955acGCBdUaVoTzB0AzE9wAmkBUi6644oq0cOHCHD5YMc4fAM1OcANoAlEtGjhwYBozZoyq0XsQ5693795p1KhRzh8ATUlwAyhcvVoU4SMWVaMVUz9/EydOzOfN+QOgGQluAIWrV9uOOuqotPnmm6u6raB6tS2Cm/MHQLMS3AAK1rbaVqfq1nltq219+vTJ65w/AJqR4AZQsLbVtjpVo85rW22rc/4AaEaCG0ChGlXb6lSNlq9Rta3O+QOg2QhuAIVqVG2rUzVavkbVtjrnD4BmI7gBFKijaludqlH7Oqq21Tl/ADQTwQ2gQB1V2+pUjdrXUbWtzvkDoJkIbgCF6Uy1rU7VaFmdqbbVOX8ANAvBDaAwnam21akaLasz1bY65w+AZtGj1qJqA3SJuJGeMmVK9e4dQ4cOVeVo4Nlnn01f/vKX07e//e00fPjwam3H6sdEAOlM2OvO3su5cP46dvnll+cKZlt77LFHmjFjRvUOgFVBcAO6XKPgBjQvwQ1g1dNVEgAAoHCCGwAAQOEENwAAgMIJbgAAAIUzOAlAk4hBXmJACINCvDfOHwDNTMUNAACgcIIbAABA4QQ3AACAwgluAAAAhRPcAAAACie4AQAAFE5wAwAAKJzgBgAAUDjBDQAAoHCCGwAAQOEENwAAgMIJbgAAAIUT3AAAAAonuAEAABROcAMAACic4AYAAFA4wQ0AAKBwghsAAEDhBDcAAIDCCW4AAACFE9wAAAAKJ7gBAAAUTnADAAAoXI9ai6oNQMHmzp2bFixYkLbbbrtqDSvC+QOgmQluAAAAhdNVEgAAoHCCGwAAQOEENwAAgMIJbgAAAIUT3AAAAAonuAEAABROcAMAACic4AYAAFA4wQ0AAKBwghsAAEDhetRaVG2AprFo0aL08MMPp+effz6tvvrqaZNNNkmDBg1KPXv6exTv3eOPP56efvrptHDhwtS3b980ZMiQ1Lt372orAHxw3OEATeWmm25Ke++9d76p3mmnndKIESPy+2222SZtvPHG6cQTT0zz58+v9l7SE088kfr06ZOXq6++ulrbeZ/85CfzsaNHj67WLOvVV19Nu+yyS96vf//+afbs2dWW9l1yySWt3yuWe++9t9rCqvDcc8+lyZMnp8022yxttdVW6bOf/WwaOXJk2m233fJ1tueee6Y//OEP1d7LKuG6imPr36HtssEGG6TNN9887brrrmnMmDHpyiuvTK+99lp1FADNRHADmkJUQA444IB04IEHpttuuy1tueWWacKECencc89NU6dOTfvtt1+uvp199tlp2223TX/961+rI9/19ttv58+J5Y033qjWdt5///vffGxU+9rzta99Ld1zzz15vzPOOCOHy+W5/PLL8/4hXn/2s5/lNl3vhhtuSIMHD07nnHNOvn5GjRqVzjzzzDRt2rR8fX30ox9NM2bMSMOHD0/HHHNMeuutt6oj31XCdRXHxrYIeBHU6kt8/9dffz3NmjUrh7YIbwMHDkx//vOfqyMBaBrRVRKgZC03o7VddtklunXX1llnndoVV1xRa7mBrra+q+XmtDZgwIC83wYbbFCbO3duteUdc+bMydtiueyyy6q1nddyw5uPbbm5r9Ys6bzzzmv9/G984xvV2o499thjef8ePXrULrzwwtzeaKONam+++Wa1B13luuuuq/Xs2TOf8xEjRtTmzZtXbXnX4sWLa1//+tdb/7tOnjy52vKuEq6rODa2x2c18uyzz9amTp1a+7//+7+833rrrZfXAdA8VNyA4p100km5YrDaaqul3/72t+krX/lKw2fZdt5559yVsiUEpRdeeCEdf/zx1Zaud+edd6ZJkybl9l577ZVabrZze3l+/vOf59foBhc/1xprrJFabqhzVZGuE90bx44dm6tl++67b7r55ptzV8mlxX+Piy66KFd0Q1TmHnjggdxeFd7rdbW0AQMGpJNPPjldcMEF+X1U+VqCa24D0BwEN6Boc+bMSRdeeGFuH3300WmPPfbI7fZEADr88MPzTXjcnHbU/Wxleeqpp9Khhx6a3nzzzfyM1LXXXpt69epVbe3YVVddlV/jmap11lknDRs2LL+vr6drTJkyJb3yyit5YJtLL700/1GgPfGHgOiSu+6666ahQ4c27IbbFd7PddWeww47rGqlNG/evKoFQDMQ3ICi/fSnP219rmjixIn5dXki9MRN6fTp09Paa69dre0a8UzTIYcckge4WG+99XLlpl+/ftXWjkUV8V//+ldux7NVbV/j2atVETo/jCKw1QcRif928RzY8sRzcPGHgPvuuy+NHz++Wtt13s911ZFam4Gk4w8FADQPwQ0o2u9///v8GkP9b7311rldkhiN8O67785dNyMMxOiWnVWvqm2xxRZ5QJUQA7BEhSdC24033pjXsXLdcccdafHixbm9//7759fSvJ/rqiO//vWvq1ZKn/vc56oWAM1AcAOKFc8f1Z8n2nHHHfNrSaLr2vnnn5/bZ511VutzUJ3xv//9L/3yl7/M7S984Qv5NcSzSJ/5zGdyW3fJrhFVs7rudl21J6qMF198cTr22GPz+5g+YHndjgEoi+AGFCsGGImAEzbaaKP8WoLoYvaPf/wjjRs3rlqT8vNPK+KPf/xjHn4+HHzwwfm1rh7kYp/oKsfKFRNs13W36yoGtolKWn2JPwJ87GMfy/PRxeAkn/70p/P0E6acAGg+ghtQrJiTqm5Fb2C7Ukxg/MUvfjF3Z6x/rxNOOCE9+uijud0Z9WpaTBoeA6q0ddBBB+XXqDj+4he/yG1Wnu58XcWcbdEVtL7cdddd6Z///Gce4CS2vfjii+mhhx5KTz75ZHUEAM1CcAOKtdZaa1WtdyYYLkU8J/TII4+k3XffPT344IN50IgIA0cccUS+QV6el19+OU9bECKkLT21QUycvMMOO+R2fboAVp7uel2FmFw7BiBpu7z00ktp9uzZ6Tvf+U6u4MYk9fHMXP0aBKA5CG5AsTbYYIPWYdrr3QpLEaMMxuAhMe1A/XmkuDk+88wzc7sjcYMe1ZUQzx7F3FxLL/UR/2Lo+biZZ+Vp2z2yO11X7YlukvEsXwS3CIQxpUE9EEbXSgCag+AGFCtCW9zIhnvvvTe/liAC5e9+97vW4dljoIcRI0bkdtxgxzD/HWlbRbviiivScccdt8wSEy/XeR5p5fr4xz9etbrXddUZ66+/fpo2bVpuxx8Nrr/++twGoHyCG1C0vfbaK7/GcznPPPNMbi9PzLcVz/bEa1eIAR9iCP+2fvSjH6XevXvnOeeOPPLIdrvgxcAYt99+e27HjXnM19beEpWREMPBt51/i/cnBu2od0+97bbb8mtnxGiUjz/+eH72sCu8n+tqRXzqU5+qWin/PAA0B8ENKNqYMWPya9wsX3TRRbm9PBdccEG+CY4b3lU1F1pM4hxdHMNjjz2WB5VoJAYbqd/4T5gwIR144IHtLnGjHubOnZv+8pe/5Dbv34YbbthayYpq5oIFC3K7I/FHgL333jtttdVWSwSfrtbZ62pFtB2ptFevXlULgNIJbkDR4iY5Qkw499xz83DpHYnnwaZOnZrbceyqnGD5qKOOag0El1xySbr11ltzu636aJKbbrrpcucQO+SQQ6qW7pIr25QpU3LVLboLTpw4sVrbvuOPPz6PyBhOO+20/LqqdOa6WhH1IBh22mmnqgVA6QQ3oHgxcXAEnRjQI6oebZ//aisG8hg2bFjuThbPC11zzTWrvKJQ79oWYj6utoNfROi8//77cztCWY8ePXK7PTFARX2qgOuuuy4P587KEaN21gf8iOcMjznmmBzilvbGG2+kb33rW+nSSy/N7yPk1f+QsCp1dF11Vlx/UcGuV66HDBnygfwsALw3PWoenACaQDyLM3LkyPTwww/n9/HsW1QhNtlkk7Rw4cI0ffr0PFpjPAu05ZZbpt/85jdLDEIRosth/Rmi7bffPgejjsS/N378+OrdO8P0z5s3L40aNarDLpgxwfHYsWNzO26M43m1EBMgn3XWWbkdz+DFZMjLE1XGSZMm5Xb8fPXJuVk5IrxFBS26r0YXysMOOyyHupgyIKq3V155Zfr3v/+d9z3ppJNyNXfpwP1BX1ch3sfw/vG999lnn2rtO3PWxfQT8TP85z//qdamtNtuu+Vuu/H7A0CTiOAG0Axee+212rRp02otwSz+4LTM0nLjXTv11FNrixYtqo5Y0pw5cxoe194yYcKE6sh3DBw4MK9vucGu1rSvJVS2fs6ll15aawmUtZYb+vx+4403zu87o+WGvvVzDjrooGotK9N9992Xz+0aa6zReq7bLsOGDavNnDmz2ntZH+R1VRfH1tc3Wvr27VtrCZW1o48+ujZ9+vRaS1CtjgSgWai4AU0pKnBRfXvhhRfSmmuumQeNiGpHfd43WFHRFTfmTIuRPxcvXpz69++fnwGLShwAfNAENwAAgMIZnAQAAKBwghsAAEDhBDcAAIDCCW4AAACFE9wAAAAKJ7gBAAAUTnADAAAonOAGAABQOMENAACgcIIbAABA4QQ3AACAwgluAAAAhRPcAAAACie4AQAAFE5wAwAAKJzgBgAAUDjBDQAAoHCCGwAAQOEENwAAgMIJbgAAAIUT3AAAAAonuAEAABROcAMAACic4AYAAFA4wQ0AAKBwghsAAEDhBDcAAIDCCW4AAACFE9wAAAAKJ7gBAAAUTnADAAAonOAGAABQOMENAACgcIIbAABA4QQ3AACAwgluAAAAhRPcAAAACie4AQAAFE5wAwAAKJzgBgAAUDjBDQAAoHCCGwAAQOEENwAAgMIJbgAAAIUT3AAAAAonuAEAABROcAMAACic4AYAAFA4wQ0AAKBwghsAAEDhBDcAAIDCCW4AAACFE9wAAAAKJ7gBAAAUTnADAAAonOAGAABQOMENAACgcIIbAABA4QQ3AACAwgluAAAAhRPcAAAACie4AQAAFE5wAwAAKJzgBgAAUDjBDQAAoHCCGwAAQOEENwAAgMIJbgAAAIUT3AAAAAonuAEAABROcAMAACic4AYAAFA4wQ0AAKBwghsAAEDhBDcAAIDCCW4AAACFE9wAAAAKJ7gBAAAUTnADAAAonOAGAABQOMENAACgcIIbAABA4QQ3AACAwgluAAAAhRPcAAAACie4AQAAFE5wAwAAKJzgBgAAUDjBDQAAoHCCGwAAQOEENwAAgMIJbgAAAIUT3AAAAAonuAEAABROcAMAACic4AYAAFA4wQ0AAKBwghsAAEDhBDcAAIDCCW4AAACFE9wAAAAKJ7gBAAAUTnADAAAonOAGAABQOMENAACgcIIbAABA4QQ3AACAwgluAAAAhRPcAAAACie4AQAAFE5wAwAAKJzgBgAAUDjBDQAAoHCCGwAAQNFS+n8ngVzf8S+9HgAAAABJRU5ErkJggg==;" vertex="1" parent="1">
          <mxGeometry x="52" y="927.24" width="268" height="385.52" as="geometry" />
        </mxCell>
      </root>
    </mxGraphModel>
  </diagram>
</mxfile>
